<svg width="224" height="159" viewBox="0 0 224 159" fill="none" xmlns="http://www.w3.org/2000/svg">
<path d="M1.76909 158.468L10.779 151.247L0.0196777 147.055L1.76909 158.468ZM139.943 104.382L140.008 103.384L139.943 104.382ZM189.202 4.30836L189.559 5.24268L189.202 4.30836ZM320.115 37.476C320.564 36.5825 320.564 36.5825 320.564 36.5825C320.564 36.5824 320.564 36.5824 320.564 36.5824C320.564 36.5824 320.564 36.5824 320.564 36.5823C320.563 36.5822 320.563 36.5821 320.563 36.5819C320.562 36.5816 320.561 36.5811 320.56 36.5805C320.557 36.5792 320.554 36.5774 320.549 36.575C320.539 36.5702 320.525 36.5631 320.506 36.5537C320.469 36.5349 320.413 36.5069 320.339 36.4702C320.191 36.3968 319.972 36.2881 319.685 36.1467C319.11 35.8639 318.263 35.45 317.17 34.9245L316.303 36.7269C317.39 37.2496 318.232 37.6609 318.802 37.9412C319.086 38.0813 319.303 38.1887 319.448 38.2609C319.521 38.297 319.576 38.3244 319.612 38.3426C319.63 38.3517 319.644 38.3585 319.653 38.363C319.657 38.3653 319.661 38.367 319.663 38.3681C319.664 38.3686 319.665 38.369 319.665 38.3693C319.666 38.3694 319.666 38.3695 319.666 38.3696C319.666 38.3696 319.666 38.3696 319.666 38.3696C319.666 38.3696 319.666 38.3696 319.666 38.3696C319.666 38.3696 319.666 38.3696 320.115 37.476ZM310.235 31.6639C308.162 30.7093 305.821 29.6479 303.253 28.5097L302.443 30.338C305.001 31.4722 307.333 32.5296 309.398 33.4805L310.235 31.6639ZM296.226 25.4522C293.974 24.4908 291.609 23.4986 289.148 22.4895L288.389 24.3399C290.84 25.3452 293.197 26.3336 295.441 27.2916L296.226 25.4522ZM282.058 19.6424C279.729 18.7276 277.339 17.8092 274.901 16.8968L274.2 18.7699C276.627 19.6783 279.007 20.5928 281.327 21.504L282.058 19.6424ZM267.706 14.2749C265.319 13.4294 262.901 12.5976 260.462 11.7876L259.832 13.6857C262.257 14.4912 264.663 15.3187 267.038 16.1601L267.706 14.2749ZM253.162 9.45129C250.715 8.69885 248.259 7.97581 245.805 7.29017L245.267 9.21639C247.703 9.89706 250.143 10.6152 252.574 11.363L253.162 9.45129ZM238.385 5.33475C235.876 4.71539 233.38 4.14405 230.91 3.62953L230.503 5.58749C232.946 6.09661 235.418 6.66243 237.905 7.27646L238.385 5.33475ZM223.34 2.22457C220.752 1.80725 218.206 1.46615 215.72 1.21247L215.517 3.20214C217.961 3.45146 220.467 3.78723 223.021 4.19907L223.34 2.22457ZM208.005 0.713216C205.327 0.650245 202.743 0.716674 200.276 0.930198L200.448 2.92275C202.832 2.71641 205.342 2.65115 207.958 2.71266L208.005 0.713216ZM192.596 2.19141C191.295 2.52445 190.043 2.91724 188.846 3.37403L189.559 5.24268C190.679 4.81519 191.858 4.44476 193.092 4.12891L192.596 2.19141ZM188.846 3.37403C187.547 3.86967 186.316 4.41532 185.15 5.00827L186.056 6.79102C187.157 6.23118 188.323 5.71399 189.559 5.24268L188.846 3.37403ZM178.458 9.49361C176.378 11.3054 174.615 13.3297 173.121 15.5254L174.775 16.6504C176.178 14.5888 177.828 12.695 179.772 11.0016L178.458 9.49361ZM169.384 22.6264C168.41 25.0597 167.646 27.6144 167.046 30.2524L168.997 30.6958C169.577 28.1425 170.312 25.6903 171.241 23.3697L169.384 22.6264ZM165.729 38.0754C165.423 40.6628 165.222 43.2976 165.088 45.9498L167.086 46.0502C167.217 43.4316 167.416 40.8429 167.715 38.31L165.729 38.0754ZM164.858 53.8158C164.825 56.446 164.823 59.0717 164.82 61.6587L166.82 61.6614C166.823 59.0709 166.825 56.4577 166.858 53.8413L164.858 53.8158ZM164.767 69.4792C164.72 72.1577 164.632 74.76 164.459 77.2561L166.454 77.394C166.63 74.8514 166.72 72.2122 166.766 69.5138L164.767 69.4792ZM163.556 84.9212C163.075 87.5924 162.413 90.0408 161.504 92.2204L163.351 92.9896C164.329 90.6423 165.025 88.0472 165.525 85.2759L163.556 84.9212ZM157.484 98.4217C155.829 100.069 153.785 101.364 151.243 102.232L151.889 104.125C154.709 103.162 157.018 101.708 158.895 99.8391L157.484 98.4217ZM143.857 103.461C142.648 103.498 141.367 103.474 140.008 103.384L139.877 105.38C141.294 105.473 142.64 105.499 143.918 105.46L143.857 103.461ZM140.008 103.384C138.653 103.295 137.31 103.214 135.98 103.142L135.872 105.14C137.194 105.211 138.529 105.291 139.877 105.38L140.008 103.384ZM128.108 102.812C125.402 102.731 122.753 102.688 120.159 102.679L120.152 104.679C122.729 104.688 125.36 104.731 128.048 104.811L128.108 102.812ZM112.201 102.766C109.494 102.835 106.851 102.943 104.271 103.089L104.384 105.086C106.943 104.941 109.565 104.833 112.252 104.765L112.201 102.766ZM96.3646 103.668C93.6635 103.912 91.0366 104.199 88.4819 104.525L88.7354 106.509C91.2652 106.186 93.8677 105.902 96.5448 105.66L96.3646 103.668ZM80.6297 105.688C77.9404 106.142 75.3388 106.643 72.8223 107.184L73.243 109.139C75.73 108.604 78.3024 108.11 80.9631 107.66L80.6297 105.688ZM65.0834 109.044C62.4337 109.752 59.8895 110.506 57.4467 111.301L58.0658 113.203C60.4738 112.419 62.9836 111.675 65.5991 110.977L65.0834 109.044ZM49.9576 113.983C47.4029 114.986 44.9759 116.033 42.6704 117.117L43.5211 118.927C45.7867 117.862 48.1738 116.832 50.6884 115.845L49.9576 113.983ZM35.5455 120.782C33.1316 122.138 30.8779 123.53 28.7745 124.942L29.8892 126.603C31.9486 125.22 34.1573 123.856 36.5253 122.525L35.5455 120.782ZM22.3196 129.692C20.1181 131.467 18.1299 133.247 16.3361 135.003L17.7348 136.432C19.4837 134.721 21.4242 132.983 23.5753 131.248L22.3196 129.692ZM10.9196 140.88C9.01905 143.177 7.45009 145.362 6.1626 147.359L7.8434 148.443C9.09002 146.51 10.6126 144.389 12.4605 142.155L10.9196 140.88Z" fill="#5B5AD1"/>
</svg>
