<svg width="281" height="298" viewBox="0 0 281 298" fill="none" xmlns="http://www.w3.org/2000/svg">
<line x1="34.6211" x2="34.6211" y2="143.288" stroke="#E8A700" stroke-width="3"/>
<line x1="249.554" x2="249.554" y2="143.288" stroke="#E8A700" stroke-width="3"/>
<rect x="3.25488" y="117.899" width="274.665" height="91.0773" rx="45.5386" fill="#FFB800" stroke="#121212" stroke-width="6"/>
<path d="M51.3778 170.102C48.7378 170.102 46.8898 169.038 45.8338 166.91L48.6898 165.278C49.2178 166.334 50.1138 166.862 51.3778 166.862C52.2578 166.862 52.9138 166.654 53.3458 166.238C53.7778 165.822 53.9938 165.254 53.9938 164.534V152.966H57.2818V164.534C57.2818 166.294 56.7298 167.662 55.6258 168.638C54.5218 169.614 53.1058 170.102 51.3778 170.102ZM70.1087 168.278C68.8767 169.494 67.3727 170.102 65.5967 170.102C63.8207 170.102 62.3167 169.494 61.0847 168.278C59.8687 167.046 59.2607 165.542 59.2607 163.766C59.2607 161.99 59.8687 160.494 61.0847 159.278C62.3167 158.046 63.8207 157.43 65.5967 157.43C67.3727 157.43 68.8767 158.046 70.1087 159.278C71.3407 160.494 71.9567 161.99 71.9567 163.766C71.9567 165.542 71.3407 167.046 70.1087 168.278ZM63.2687 166.142C63.8927 166.766 64.6687 167.078 65.5967 167.078C66.5247 167.078 67.3007 166.766 67.9247 166.142C68.5487 165.518 68.8607 164.726 68.8607 163.766C68.8607 162.806 68.5487 162.014 67.9247 161.39C67.3007 160.766 66.5247 160.454 65.5967 160.454C64.6687 160.454 63.8927 160.766 63.2687 161.39C62.6607 162.014 62.3567 162.806 62.3567 163.766C62.3567 164.726 62.6607 165.518 63.2687 166.142ZM75.5507 156.326C75.0387 156.326 74.5907 156.142 74.2067 155.774C73.8387 155.39 73.6547 154.942 73.6547 154.43C73.6547 153.918 73.8387 153.47 74.2067 153.086C74.5907 152.702 75.0387 152.51 75.5507 152.51C76.0787 152.51 76.5267 152.702 76.8947 153.086C77.2787 153.47 77.4707 153.918 77.4707 154.43C77.4707 154.942 77.2787 155.39 76.8947 155.774C76.5267 156.142 76.0787 156.326 75.5507 156.326ZM74.0147 169.766V157.766H77.1107V169.766H74.0147ZM86.4964 157.43C87.8084 157.43 88.8884 157.87 89.7364 158.75C90.6004 159.63 91.0324 160.846 91.0324 162.398V169.766H87.9364V162.782C87.9364 161.982 87.7204 161.374 87.2884 160.958C86.8564 160.526 86.2804 160.31 85.5604 160.31C84.7604 160.31 84.1204 160.558 83.6404 161.054C83.1604 161.55 82.9204 162.294 82.9204 163.286V169.766H79.8244V157.766H82.9204V159.11C83.6724 157.99 84.8644 157.43 86.4964 157.43ZM109.66 168.278C108.428 169.494 106.924 170.102 105.148 170.102C103.372 170.102 101.868 169.494 100.636 168.278C99.42 167.046 98.812 165.542 98.812 163.766C98.812 161.99 99.42 160.494 100.636 159.278C101.868 158.046 103.372 157.43 105.148 157.43C106.924 157.43 108.428 158.046 109.66 159.278C110.892 160.494 111.508 161.99 111.508 163.766C111.508 165.542 110.892 167.046 109.66 168.278ZM102.82 166.142C103.444 166.766 104.22 167.078 105.148 167.078C106.076 167.078 106.852 166.766 107.476 166.142C108.1 165.518 108.412 164.726 108.412 163.766C108.412 162.806 108.1 162.014 107.476 161.39C106.852 160.766 106.076 160.454 105.148 160.454C104.22 160.454 103.444 160.766 102.82 161.39C102.212 162.014 101.908 162.806 101.908 163.766C101.908 164.726 102.212 165.518 102.82 166.142ZM121.486 157.766H124.582V169.766H121.486V168.422C120.734 169.542 119.542 170.102 117.91 170.102C116.598 170.102 115.51 169.662 114.646 168.782C113.798 167.902 113.374 166.686 113.374 165.134V157.766H116.47V164.75C116.47 165.55 116.686 166.166 117.118 166.598C117.55 167.014 118.126 167.222 118.846 167.222C119.646 167.222 120.286 166.974 120.766 166.478C121.246 165.982 121.486 165.238 121.486 164.246V157.766ZM130.394 159.83C130.682 159.062 131.154 158.486 131.81 158.102C132.482 157.718 133.226 157.526 134.042 157.526V160.982C133.098 160.87 132.25 161.062 131.498 161.558C130.762 162.054 130.394 162.878 130.394 164.03V169.766H127.298V157.766H130.394V159.83ZM150.732 157.766H153.828V169.766H150.732V168.35C149.804 169.518 148.5 170.102 146.82 170.102C145.22 170.102 143.844 169.494 142.692 168.278C141.556 167.046 140.988 165.542 140.988 163.766C140.988 161.99 141.556 160.494 142.692 159.278C143.844 158.046 145.22 157.43 146.82 157.43C148.5 157.43 149.804 158.014 150.732 159.182V157.766ZM145.02 166.214C145.644 166.838 146.436 167.15 147.396 167.15C148.356 167.15 149.148 166.838 149.772 166.214C150.412 165.574 150.732 164.758 150.732 163.766C150.732 162.774 150.412 161.966 149.772 161.342C149.148 160.702 148.356 160.382 147.396 160.382C146.436 160.382 145.644 160.702 145.02 161.342C144.396 161.966 144.084 162.774 144.084 163.766C144.084 164.758 144.396 165.574 145.02 166.214ZM169.788 157.43C171.164 157.43 172.26 157.878 173.076 158.774C173.908 159.67 174.324 160.87 174.324 162.374V169.766H171.228V162.59C171.228 161.87 171.052 161.31 170.7 160.91C170.348 160.51 169.852 160.31 169.212 160.31C168.508 160.31 167.956 160.542 167.556 161.006C167.172 161.47 166.98 162.142 166.98 163.022V169.766H163.884V162.59C163.884 161.87 163.708 161.31 163.356 160.91C163.004 160.51 162.508 160.31 161.868 160.31C161.18 160.31 160.628 160.542 160.212 161.006C159.812 161.47 159.612 162.142 159.612 163.022V169.766H156.516V157.766H159.612V159.038C160.332 157.966 161.444 157.43 162.948 157.43C164.42 157.43 165.508 158.006 166.212 159.158C167.012 158.006 168.204 157.43 169.788 157.43ZM185.953 157.766H189.049V169.766H185.953V168.35C185.025 169.518 183.721 170.102 182.041 170.102C180.441 170.102 179.065 169.494 177.913 168.278C176.777 167.046 176.209 165.542 176.209 163.766C176.209 161.99 176.777 160.494 177.913 159.278C179.065 158.046 180.441 157.43 182.041 157.43C183.721 157.43 185.025 158.014 185.953 159.182V157.766ZM180.241 166.214C180.865 166.838 181.657 167.15 182.617 167.15C183.577 167.15 184.369 166.838 184.993 166.214C185.633 165.574 185.953 164.758 185.953 163.766C185.953 162.774 185.633 161.966 184.993 161.342C184.369 160.702 183.577 160.382 182.617 160.382C181.657 160.382 180.865 160.702 180.241 161.342C179.617 161.966 179.305 162.774 179.305 163.766C179.305 164.758 179.617 165.574 180.241 166.214ZM195.505 166.862H200.833V169.766H191.353V167.702L196.417 160.67H191.593V157.766H200.593V159.83L195.505 166.862ZM204.52 156.326C204.008 156.326 203.56 156.142 203.176 155.774C202.808 155.39 202.624 154.942 202.624 154.43C202.624 153.918 202.808 153.47 203.176 153.086C203.56 152.702 204.008 152.51 204.52 152.51C205.048 152.51 205.496 152.702 205.864 153.086C206.248 153.47 206.44 153.918 206.44 154.43C206.44 154.942 206.248 155.39 205.864 155.774C205.496 156.142 205.048 156.326 204.52 156.326ZM202.984 169.766V157.766H206.08V169.766H202.984ZM215.465 157.43C216.777 157.43 217.857 157.87 218.705 158.75C219.569 159.63 220.001 160.846 220.001 162.398V169.766H216.905V162.782C216.905 161.982 216.689 161.374 216.257 160.958C215.825 160.526 215.249 160.31 214.529 160.31C213.729 160.31 213.089 160.558 212.609 161.054C212.129 161.55 211.889 162.294 211.889 163.286V169.766H208.793V157.766H211.889V159.11C212.641 157.99 213.833 157.43 215.465 157.43ZM231.717 157.766H234.741V169.19C234.741 171.046 234.125 172.462 232.893 173.438C231.677 174.414 230.205 174.902 228.477 174.902C227.181 174.902 226.037 174.654 225.045 174.158C224.069 173.662 223.317 172.934 222.789 171.974L225.429 170.462C226.037 171.582 227.085 172.142 228.573 172.142C229.549 172.142 230.317 171.886 230.877 171.374C231.437 170.862 231.717 170.134 231.717 169.19V167.894C230.805 169.11 229.525 169.718 227.877 169.718C226.181 169.718 224.757 169.126 223.605 167.942C222.469 166.742 221.901 165.286 221.901 163.574C221.901 161.878 222.477 160.43 223.629 159.23C224.781 158.03 226.197 157.43 227.877 157.43C229.525 157.43 230.805 158.038 231.717 159.254V157.766ZM225.933 165.95C226.573 166.558 227.381 166.862 228.357 166.862C229.333 166.862 230.133 166.558 230.757 165.95C231.397 165.326 231.717 164.534 231.717 163.574C231.717 162.63 231.397 161.854 230.757 161.246C230.133 160.622 229.333 160.31 228.357 160.31C227.381 160.31 226.573 160.622 225.933 161.246C225.309 161.854 224.997 162.63 224.997 163.574C224.997 164.534 225.309 165.326 225.933 165.95Z" fill="#FEFEFE"/>
<rect x="42.4355" y="202.977" width="197.424" height="91.0773" rx="45.5386" fill="#5B5AD1" stroke="#121212" stroke-width="6"/>
<path d="M87.1263 255.174C85.3183 255.174 83.8063 254.566 82.5903 253.35C81.3903 252.134 80.7903 250.63 80.7903 248.838C80.7903 247.046 81.3903 245.542 82.5903 244.326C83.8063 243.11 85.3183 242.502 87.1263 242.502C88.2943 242.502 89.3583 242.782 90.3183 243.342C91.2783 243.902 92.0063 244.654 92.5023 245.598L89.8383 247.158C89.5983 246.662 89.2303 246.27 88.7343 245.982C88.2543 245.694 87.7103 245.55 87.1023 245.55C86.1743 245.55 85.4063 245.862 84.7983 246.486C84.1903 247.094 83.8863 247.878 83.8863 248.838C83.8863 249.782 84.1903 250.566 84.7983 251.19C85.4063 251.798 86.1743 252.102 87.1023 252.102C87.7263 252.102 88.2783 251.966 88.7583 251.694C89.2543 251.406 89.6223 251.014 89.8623 250.518L92.5503 252.054C92.0223 252.998 91.2783 253.758 90.3183 254.334C89.3583 254.894 88.2943 255.174 87.1263 255.174ZM104.104 253.35C102.872 254.566 101.368 255.174 99.5922 255.174C97.8162 255.174 96.3122 254.566 95.0802 253.35C93.8642 252.118 93.2562 250.614 93.2562 248.838C93.2562 247.062 93.8642 245.566 95.0802 244.35C96.3122 243.118 97.8162 242.502 99.5922 242.502C101.368 242.502 102.872 243.118 104.104 244.35C105.336 245.566 105.952 247.062 105.952 248.838C105.952 250.614 105.336 252.118 104.104 253.35ZM97.2642 251.214C97.8882 251.838 98.6642 252.15 99.5922 252.15C100.52 252.15 101.296 251.838 101.92 251.214C102.544 250.59 102.856 249.798 102.856 248.838C102.856 247.878 102.544 247.086 101.92 246.462C101.296 245.838 100.52 245.526 99.5922 245.526C98.6642 245.526 97.8882 245.838 97.2642 246.462C96.6562 247.086 96.3522 247.878 96.3522 248.838C96.3522 249.798 96.6562 250.59 97.2642 251.214ZM121.282 242.502C122.658 242.502 123.754 242.95 124.57 243.846C125.402 244.742 125.818 245.942 125.818 247.446V254.838H122.722V247.662C122.722 246.942 122.546 246.382 122.194 245.982C121.842 245.582 121.346 245.382 120.706 245.382C120.002 245.382 119.45 245.614 119.05 246.078C118.666 246.542 118.474 247.214 118.474 248.094V254.838H115.378V247.662C115.378 246.942 115.202 246.382 114.85 245.982C114.498 245.582 114.002 245.382 113.362 245.382C112.674 245.382 112.122 245.614 111.706 246.078C111.306 246.542 111.106 247.214 111.106 248.094V254.838H108.01V242.838H111.106V244.11C111.826 243.038 112.938 242.502 114.442 242.502C115.914 242.502 117.002 243.078 117.706 244.23C118.506 243.078 119.698 242.502 121.282 242.502ZM141.6 242.502C142.976 242.502 144.072 242.95 144.888 243.846C145.72 244.742 146.136 245.942 146.136 247.446V254.838H143.04V247.662C143.04 246.942 142.864 246.382 142.512 245.982C142.16 245.582 141.664 245.382 141.024 245.382C140.32 245.382 139.768 245.614 139.368 246.078C138.984 246.542 138.792 247.214 138.792 248.094V254.838H135.696V247.662C135.696 246.942 135.52 246.382 135.168 245.982C134.816 245.582 134.32 245.382 133.68 245.382C132.992 245.382 132.44 245.614 132.024 246.078C131.624 246.542 131.424 247.214 131.424 248.094V254.838H128.328V242.838H131.424V244.11C132.144 243.038 133.256 242.502 134.76 242.502C136.232 242.502 137.32 243.078 138.024 244.23C138.824 243.078 140.016 242.502 141.6 242.502ZM156.565 242.838H159.661V254.838H156.565V253.494C155.813 254.614 154.621 255.174 152.989 255.174C151.677 255.174 150.589 254.734 149.725 253.854C148.877 252.974 148.453 251.758 148.453 250.206V242.838H151.549V249.822C151.549 250.622 151.765 251.238 152.197 251.67C152.629 252.086 153.205 252.294 153.925 252.294C154.725 252.294 155.365 252.046 155.845 251.55C156.325 251.054 156.565 250.31 156.565 249.318V242.838ZM169.049 242.502C170.361 242.502 171.441 242.942 172.289 243.822C173.153 244.702 173.585 245.918 173.585 247.47V254.838H170.489V247.854C170.489 247.054 170.273 246.446 169.841 246.03C169.409 245.598 168.833 245.382 168.113 245.382C167.313 245.382 166.673 245.63 166.193 246.126C165.713 246.622 165.473 247.366 165.473 248.358V254.838H162.377V242.838H165.473V244.182C166.225 243.062 167.417 242.502 169.049 242.502ZM177.644 241.398C177.132 241.398 176.684 241.214 176.3 240.846C175.932 240.462 175.748 240.014 175.748 239.502C175.748 238.99 175.932 238.542 176.3 238.158C176.684 237.774 177.132 237.582 177.644 237.582C178.172 237.582 178.62 237.774 178.988 238.158C179.372 238.542 179.564 238.99 179.564 239.502C179.564 240.014 179.372 240.462 178.988 240.846C178.62 241.214 178.172 241.398 177.644 241.398ZM176.108 254.838V242.838H179.204V254.838H176.108ZM188.782 245.814H186.07V250.806C186.07 251.222 186.174 251.526 186.382 251.718C186.59 251.91 186.894 252.022 187.294 252.054C187.694 252.07 188.19 252.062 188.782 252.03V254.838C186.654 255.078 185.15 254.878 184.27 254.238C183.406 253.598 182.974 252.454 182.974 250.806V245.814H180.886V242.838H182.974V240.414L186.07 239.478V242.838H188.782V245.814ZM198.927 242.838H202.239L197.871 254.838C197.247 256.566 196.415 257.814 195.375 258.582C194.351 259.366 193.071 259.718 191.535 259.638V256.758C192.367 256.774 193.023 256.598 193.503 256.23C193.999 255.862 194.391 255.27 194.679 254.454L189.759 242.838H193.143L196.263 250.902L198.927 242.838Z" fill="#121212"/>
</svg>
