<svg width="513" height="315" viewBox="0 0 513 315" fill="none" xmlns="http://www.w3.org/2000/svg">
<rect x="3" y="120" width="507" height="99" rx="49.5" fill="#FFB800" stroke="#121212" stroke-width="6"/>
<path d="M75.3004 186.672C69.9564 186.672 66.1644 184.496 63.9244 180.144L70.5964 176.304C71.1724 177.328 71.7964 178.064 72.4684 178.512C73.1724 178.96 74.1324 179.184 75.3484 179.184C78.2604 179.184 79.7164 177.856 79.7164 175.2V152.4H87.3964V175.2C87.3964 178.784 86.2604 181.6 83.9884 183.648C81.7484 185.664 78.8524 186.672 75.3004 186.672ZM112.997 183.024C110.533 185.456 107.525 186.672 103.973 186.672C100.421 186.672 97.4125 185.456 94.9485 183.024C92.4845 180.56 91.2525 177.552 91.2525 174C91.2525 170.448 92.4845 167.456 94.9485 165.024C97.4125 162.56 100.421 161.328 103.973 161.328C107.525 161.328 110.533 162.56 112.997 165.024C115.461 167.456 116.693 170.448 116.693 174C116.693 177.552 115.461 180.56 112.997 183.024ZM100.037 178.08C101.093 179.136 102.405 179.664 103.973 179.664C105.541 179.664 106.853 179.136 107.909 178.08C108.965 177.024 109.493 175.664 109.493 174C109.493 172.336 108.965 170.976 107.909 169.92C106.853 168.864 105.541 168.336 103.973 168.336C102.405 168.336 101.093 168.864 100.037 169.92C98.9805 170.976 98.4525 172.336 98.4525 174C98.4525 175.664 98.9805 177.024 100.037 178.08ZM127.389 158.64C126.557 159.472 125.549 159.888 124.365 159.888C123.181 159.888 122.157 159.472 121.293 158.64C120.461 157.776 120.045 156.752 120.045 155.568C120.045 154.384 120.461 153.376 121.293 152.544C122.157 151.68 123.181 151.248 124.365 151.248C125.549 151.248 126.557 151.68 127.389 152.544C128.253 153.376 128.685 154.384 128.685 155.568C128.685 156.752 128.253 157.776 127.389 158.64ZM120.765 186V162H127.965V186H120.765ZM147.298 161.328C149.858 161.328 151.986 162.208 153.682 163.968C155.41 165.728 156.274 168.16 156.274 171.264V186H149.074V172.32C149.074 170.912 148.674 169.84 147.874 169.104C147.106 168.336 146.114 167.952 144.898 167.952C143.522 167.952 142.434 168.368 141.634 169.2C140.834 170.032 140.434 171.264 140.434 172.896V186H133.234V162H140.434V164.256C141.874 162.304 144.162 161.328 147.298 161.328ZM193.762 183.024C191.298 185.456 188.29 186.672 184.738 186.672C181.186 186.672 178.178 185.456 175.714 183.024C173.25 180.56 172.018 177.552 172.018 174C172.018 170.448 173.25 167.456 175.714 165.024C178.178 162.56 181.186 161.328 184.738 161.328C188.29 161.328 191.298 162.56 193.762 165.024C196.226 167.456 197.458 170.448 197.458 174C197.458 177.552 196.226 180.56 193.762 183.024ZM180.802 178.08C181.858 179.136 183.17 179.664 184.738 179.664C186.306 179.664 187.618 179.136 188.674 178.08C189.73 177.024 190.258 175.664 190.258 174C190.258 172.336 189.73 170.976 188.674 169.92C187.618 168.864 186.306 168.336 184.738 168.336C183.17 168.336 181.858 168.864 180.802 169.92C179.746 170.976 179.218 172.336 179.218 174C179.218 175.664 179.746 177.024 180.802 178.08ZM217.035 162H224.235V186H217.035V183.744C215.595 185.696 213.307 186.672 210.171 186.672C207.611 186.672 205.467 185.792 203.739 184.032C202.043 182.272 201.195 179.84 201.195 176.736V162H208.395V175.68C208.395 177.088 208.779 178.176 209.547 178.944C210.347 179.68 211.355 180.048 212.571 180.048C213.947 180.048 215.035 179.632 215.835 178.8C216.635 177.968 217.035 176.736 217.035 175.104V162ZM236.715 166.272C237.163 164.736 238.059 163.568 239.403 162.768C240.779 161.936 242.283 161.52 243.915 161.52V169.68C242.155 169.392 240.507 169.696 238.971 170.592C237.467 171.456 236.715 172.976 236.715 175.152V186H229.515V162H236.715V166.272ZM276.705 162H283.905V186H276.705V183.744C275.009 185.696 272.625 186.672 269.553 186.672C266.385 186.672 263.681 185.456 261.441 183.024C259.201 180.56 258.081 177.552 258.081 174C258.081 170.448 259.201 167.456 261.441 165.024C263.681 162.56 266.385 161.328 269.553 161.328C272.625 161.328 275.009 162.304 276.705 164.256V162ZM266.865 178.272C267.921 179.328 269.297 179.856 270.993 179.856C272.689 179.856 274.065 179.328 275.121 178.272C276.177 177.216 276.705 175.792 276.705 174C276.705 172.208 276.177 170.784 275.121 169.728C274.065 168.672 272.689 168.144 270.993 168.144C269.297 168.144 267.921 168.672 266.865 169.728C265.809 170.784 265.281 172.208 265.281 174C265.281 175.792 265.809 177.216 266.865 178.272ZM316.067 161.328C318.819 161.328 321.027 162.24 322.691 164.064C324.355 165.856 325.187 168.256 325.187 171.264V186H317.987V171.888C317.987 170.672 317.683 169.712 317.075 169.008C316.499 168.304 315.651 167.952 314.531 167.952C313.347 167.952 312.419 168.352 311.747 169.152C311.107 169.952 310.787 171.056 310.787 172.464V186H303.587V171.888C303.587 170.672 303.283 169.712 302.675 169.008C302.099 168.304 301.251 167.952 300.131 167.952C298.947 167.952 298.019 168.352 297.347 169.152C296.707 169.952 296.387 171.056 296.387 172.464V186H289.187V162H296.387V164.208C297.699 162.288 299.843 161.328 302.819 161.328C305.603 161.328 307.699 162.384 309.107 164.496C310.579 162.384 312.899 161.328 316.067 161.328ZM347.533 162H354.733V186H347.533V183.744C345.837 185.696 343.453 186.672 340.381 186.672C337.213 186.672 334.509 185.456 332.269 183.024C330.029 180.56 328.909 177.552 328.909 174C328.909 170.448 330.029 167.456 332.269 165.024C334.509 162.56 337.213 161.328 340.381 161.328C343.453 161.328 345.837 162.304 347.533 164.256V162ZM337.693 178.272C338.749 179.328 340.125 179.856 341.821 179.856C343.517 179.856 344.893 179.328 345.949 178.272C347.005 177.216 347.533 175.792 347.533 174C347.533 172.208 347.005 170.784 345.949 169.728C344.893 168.672 343.517 168.144 341.821 168.144C340.125 168.144 338.749 168.672 337.693 169.728C336.637 170.784 336.109 172.208 336.109 174C336.109 175.792 336.637 177.216 337.693 178.272ZM368.943 179.28H378.495V186H359.295V181.2L368.367 168.72H359.775V162H378.015V166.8L368.943 179.28ZM389.42 158.64C388.588 159.472 387.58 159.888 386.396 159.888C385.212 159.888 384.188 159.472 383.324 158.64C382.492 157.776 382.076 156.752 382.076 155.568C382.076 154.384 382.492 153.376 383.324 152.544C384.188 151.68 385.212 151.248 386.396 151.248C387.58 151.248 388.588 151.68 389.42 152.544C390.284 153.376 390.716 154.384 390.716 155.568C390.716 156.752 390.284 157.776 389.42 158.64ZM382.796 186V162H389.996V186H382.796ZM409.329 161.328C411.889 161.328 414.017 162.208 415.713 163.968C417.441 165.728 418.305 168.16 418.305 171.264V186H411.105V172.32C411.105 170.912 410.705 169.84 409.905 169.104C409.137 168.336 408.145 167.952 406.929 167.952C405.553 167.952 404.465 168.368 403.665 169.2C402.865 170.032 402.465 171.264 402.465 172.896V186H395.265V162H402.465V164.256C403.905 162.304 406.193 161.328 409.329 161.328ZM440.865 162H447.873V184.8C447.873 188.576 446.641 191.424 444.177 193.344C441.713 195.296 438.721 196.272 435.201 196.272C429.793 196.272 426.001 194.336 423.825 190.464L429.969 186.912C431.057 188.928 432.881 189.936 435.441 189.936C437.137 189.936 438.465 189.488 439.425 188.592C440.385 187.728 440.865 186.464 440.865 184.8V182.592C439.201 184.672 436.865 185.712 433.857 185.712C430.497 185.712 427.681 184.528 425.409 182.16C423.169 179.76 422.049 176.88 422.049 173.52C422.049 170.16 423.169 167.296 425.409 164.928C427.681 162.528 430.497 161.328 433.857 161.328C436.865 161.328 439.201 162.368 440.865 164.448V162ZM430.881 177.552C431.969 178.576 433.361 179.088 435.057 179.088C436.753 179.088 438.145 178.576 439.233 177.552C440.321 176.528 440.865 175.184 440.865 173.52C440.865 171.856 440.321 170.512 439.233 169.488C438.145 168.464 436.753 167.952 435.057 167.952C433.361 167.952 431.969 168.464 430.881 169.488C429.793 170.512 429.249 171.856 429.249 173.52C429.249 175.184 429.793 176.528 430.881 177.552Z" fill="#FEFEFE"/>
<line x1="87.5" y1="-88" x2="87.5" y2="115" stroke="#E8A700" stroke-width="3"/>
<line x1="427.5" y1="-88" x2="427.5" y2="115" stroke="#E8A700" stroke-width="3"/>
<rect x="3" y="213" width="366" height="99" rx="49.5" fill="#5D5CD6" stroke="#121212" stroke-width="6"/>
<path d="M76.4334 279.672C72.7854 279.672 69.7454 278.456 67.3134 276.024C64.9134 273.592 63.7134 270.584 63.7134 267C63.7134 263.416 64.9134 260.408 67.3134 257.976C69.7454 255.544 72.7854 254.328 76.4334 254.328C78.7374 254.328 80.8494 254.888 82.7694 256.008C84.7214 257.128 86.2254 258.616 87.2814 260.472L80.9934 264.12C80.1294 262.328 78.5774 261.432 76.3374 261.432C74.7694 261.432 73.4734 261.96 72.4494 263.016C71.4254 264.04 70.9134 265.368 70.9134 267C70.9134 268.632 71.4254 269.976 72.4494 271.032C73.4734 272.056 74.7694 272.568 76.3374 272.568C78.6094 272.568 80.1614 271.672 80.9934 269.88L87.2814 273.48C86.2254 275.368 84.7374 276.872 82.8174 277.992C80.8974 279.112 78.7694 279.672 76.4334 279.672ZM110.254 276.024C107.79 278.456 104.782 279.672 101.23 279.672C97.6783 279.672 94.6703 278.456 92.2063 276.024C89.7423 273.56 88.5103 270.552 88.5103 267C88.5103 263.448 89.7423 260.456 92.2063 258.024C94.6703 255.56 97.6783 254.328 101.23 254.328C104.782 254.328 107.79 255.56 110.254 258.024C112.718 260.456 113.95 263.448 113.95 267C113.95 270.552 112.718 273.56 110.254 276.024ZM97.2943 271.08C98.3503 272.136 99.6623 272.664 101.23 272.664C102.798 272.664 104.11 272.136 105.166 271.08C106.222 270.024 106.75 268.664 106.75 267C106.75 265.336 106.222 263.976 105.166 262.92C104.11 261.864 102.798 261.336 101.23 261.336C99.6623 261.336 98.3503 261.864 97.2943 262.92C96.2383 263.976 95.7103 265.336 95.7103 267C95.7103 268.664 96.2383 270.024 97.2943 271.08ZM144.903 254.328C147.655 254.328 149.863 255.24 151.527 257.064C153.191 258.856 154.023 261.256 154.023 264.264V279H146.823V264.888C146.823 263.672 146.519 262.712 145.911 262.008C145.335 261.304 144.487 260.952 143.367 260.952C142.183 260.952 141.255 261.352 140.583 262.152C139.943 262.952 139.623 264.056 139.623 265.464V279H132.423V264.888C132.423 263.672 132.119 262.712 131.511 262.008C130.935 261.304 130.087 260.952 128.967 260.952C127.783 260.952 126.855 261.352 126.183 262.152C125.543 262.952 125.223 264.056 125.223 265.464V279H118.023V255H125.223V257.208C126.535 255.288 128.679 254.328 131.655 254.328C134.439 254.328 136.535 255.384 137.943 257.496C139.415 255.384 141.735 254.328 144.903 254.328ZM185.825 254.328C188.577 254.328 190.785 255.24 192.449 257.064C194.113 258.856 194.945 261.256 194.945 264.264V279H187.745V264.888C187.745 263.672 187.441 262.712 186.833 262.008C186.257 261.304 185.409 260.952 184.289 260.952C183.105 260.952 182.177 261.352 181.505 262.152C180.865 262.952 180.545 264.056 180.545 265.464V279H173.345V264.888C173.345 263.672 173.041 262.712 172.433 262.008C171.857 261.304 171.009 260.952 169.889 260.952C168.705 260.952 167.777 261.352 167.105 262.152C166.465 262.952 166.145 264.056 166.145 265.464V279H158.945V255H166.145V257.208C167.457 255.288 169.601 254.328 172.577 254.328C175.361 254.328 177.457 255.384 178.865 257.496C180.337 255.384 182.657 254.328 185.825 254.328ZM215.371 255H222.571V279H215.371V276.744C213.931 278.696 211.643 279.672 208.507 279.672C205.947 279.672 203.803 278.792 202.075 277.032C200.379 275.272 199.531 272.84 199.531 269.736V255H206.731V268.68C206.731 270.088 207.115 271.176 207.883 271.944C208.683 272.68 209.691 273.048 210.907 273.048C212.283 273.048 213.371 272.632 214.171 271.8C214.971 270.968 215.371 269.736 215.371 268.104V255ZM241.915 254.328C244.475 254.328 246.603 255.208 248.299 256.968C250.027 258.728 250.891 261.16 250.891 264.264V279H243.691V265.32C243.691 263.912 243.291 262.84 242.491 262.104C241.723 261.336 240.731 260.952 239.515 260.952C238.139 260.952 237.051 261.368 236.251 262.2C235.451 263.032 235.051 264.264 235.051 265.896V279H227.851V255H235.051V257.256C236.491 255.304 238.779 254.328 241.915 254.328ZM262.459 251.64C261.627 252.472 260.619 252.888 259.435 252.888C258.251 252.888 257.227 252.472 256.363 251.64C255.531 250.776 255.115 249.752 255.115 248.568C255.115 247.384 255.531 246.376 256.363 245.544C257.227 244.68 258.251 244.248 259.435 244.248C260.619 244.248 261.627 244.68 262.459 245.544C263.323 246.376 263.755 247.384 263.755 248.568C263.755 249.752 263.323 250.776 262.459 251.64ZM255.835 279V255H263.035V279H255.835ZM282.368 261.912H277.424V270.408C277.424 271.368 277.808 271.976 278.576 272.232C279.344 272.488 280.608 272.568 282.368 272.472V279C277.792 279.48 274.624 279.048 272.864 277.704C271.104 276.328 270.224 273.896 270.224 270.408V261.912H266.384V255H270.224V250.44L277.424 248.28V255H282.368V261.912ZM302.033 255H309.713L301.505 278.28C300.161 282.056 298.385 284.76 296.177 286.392C294.001 288.024 291.217 288.76 287.825 288.6V281.88C289.489 281.88 290.769 281.576 291.665 280.968C292.561 280.392 293.281 279.368 293.825 277.896L284.273 255H292.193L297.521 269.688L302.033 255Z" fill="#121212"/>
</svg>
