<svg width="372" height="105" viewBox="0 0 372 105" fill="none" xmlns="http://www.w3.org/2000/svg">
<rect x="3" y="2.99976" width="366" height="99" rx="49.5" fill="#5B5AD1" stroke="#121212" stroke-width="6"/>
<path d="M76.4334 69.672C72.7854 69.672 69.7454 68.456 67.3134 66.024C64.9134 63.592 63.7134 60.584 63.7134 57C63.7134 53.416 64.9134 50.408 67.3134 47.976C69.7454 45.544 72.7854 44.328 76.4334 44.328C78.7374 44.328 80.8494 44.888 82.7694 46.008C84.7214 47.128 86.2254 48.616 87.2814 50.472L80.9934 54.12C80.1294 52.328 78.5774 51.432 76.3374 51.432C74.7694 51.432 73.4734 51.96 72.4494 53.016C71.4254 54.04 70.9134 55.368 70.9134 57C70.9134 58.632 71.4254 59.976 72.4494 61.032C73.4734 62.056 74.7694 62.568 76.3374 62.568C78.6094 62.568 80.1614 61.672 80.9934 59.88L87.2814 63.48C86.2254 65.368 84.7374 66.872 82.8174 67.992C80.8974 69.112 78.7694 69.672 76.4334 69.672ZM110.254 66.024C107.79 68.456 104.782 69.672 101.23 69.672C97.6783 69.672 94.6703 68.456 92.2063 66.024C89.7423 63.56 88.5103 60.552 88.5103 57C88.5103 53.448 89.7423 50.456 92.2063 48.024C94.6703 45.56 97.6783 44.328 101.23 44.328C104.782 44.328 107.79 45.56 110.254 48.024C112.718 50.456 113.95 53.448 113.95 57C113.95 60.552 112.718 63.56 110.254 66.024ZM97.2943 61.08C98.3503 62.136 99.6623 62.664 101.23 62.664C102.798 62.664 104.11 62.136 105.166 61.08C106.222 60.024 106.75 58.664 106.75 57C106.75 55.336 106.222 53.976 105.166 52.92C104.11 51.864 102.798 51.336 101.23 51.336C99.6623 51.336 98.3503 51.864 97.2943 52.92C96.2383 53.976 95.7103 55.336 95.7103 57C95.7103 58.664 96.2383 60.024 97.2943 61.08ZM144.903 44.328C147.655 44.328 149.863 45.24 151.527 47.064C153.191 48.856 154.023 51.256 154.023 54.264V69H146.823V54.888C146.823 53.672 146.519 52.712 145.911 52.008C145.335 51.304 144.487 50.952 143.367 50.952C142.183 50.952 141.255 51.352 140.583 52.152C139.943 52.952 139.623 54.056 139.623 55.464V69H132.423V54.888C132.423 53.672 132.119 52.712 131.511 52.008C130.935 51.304 130.087 50.952 128.967 50.952C127.783 50.952 126.855 51.352 126.183 52.152C125.543 52.952 125.223 54.056 125.223 55.464V69H118.023V45H125.223V47.208C126.535 45.288 128.679 44.328 131.655 44.328C134.439 44.328 136.535 45.384 137.943 47.496C139.415 45.384 141.735 44.328 144.903 44.328ZM185.825 44.328C188.577 44.328 190.785 45.24 192.449 47.064C194.113 48.856 194.945 51.256 194.945 54.264V69H187.745V54.888C187.745 53.672 187.441 52.712 186.833 52.008C186.257 51.304 185.409 50.952 184.289 50.952C183.105 50.952 182.177 51.352 181.505 52.152C180.865 52.952 180.545 54.056 180.545 55.464V69H173.345V54.888C173.345 53.672 173.041 52.712 172.433 52.008C171.857 51.304 171.009 50.952 169.889 50.952C168.705 50.952 167.777 51.352 167.105 52.152C166.465 52.952 166.145 54.056 166.145 55.464V69H158.945V45H166.145V47.208C167.457 45.288 169.601 44.328 172.577 44.328C175.361 44.328 177.457 45.384 178.865 47.496C180.337 45.384 182.657 44.328 185.825 44.328ZM215.371 45H222.571V69H215.371V66.744C213.931 68.696 211.643 69.672 208.507 69.672C205.947 69.672 203.803 68.792 202.075 67.032C200.379 65.272 199.531 62.84 199.531 59.736V45H206.731V58.68C206.731 60.088 207.115 61.176 207.883 61.944C208.683 62.68 209.691 63.048 210.907 63.048C212.283 63.048 213.371 62.632 214.171 61.8C214.971 60.968 215.371 59.736 215.371 58.104V45ZM241.915 44.328C244.475 44.328 246.603 45.208 248.299 46.968C250.027 48.728 250.891 51.16 250.891 54.264V69H243.691V55.32C243.691 53.912 243.291 52.84 242.491 52.104C241.723 51.336 240.731 50.952 239.515 50.952C238.139 50.952 237.051 51.368 236.251 52.2C235.451 53.032 235.051 54.264 235.051 55.896V69H227.851V45H235.051V47.256C236.491 45.304 238.779 44.328 241.915 44.328ZM262.459 41.64C261.627 42.472 260.619 42.888 259.435 42.888C258.251 42.888 257.227 42.472 256.363 41.64C255.531 40.776 255.115 39.752 255.115 38.568C255.115 37.384 255.531 36.376 256.363 35.544C257.227 34.68 258.251 34.248 259.435 34.248C260.619 34.248 261.627 34.68 262.459 35.544C263.323 36.376 263.755 37.384 263.755 38.568C263.755 39.752 263.323 40.776 262.459 41.64ZM255.835 69V45H263.035V69H255.835ZM282.368 51.912H277.424V60.408C277.424 61.368 277.808 61.976 278.576 62.232C279.344 62.488 280.608 62.568 282.368 62.472V69C277.792 69.48 274.624 69.048 272.864 67.704C271.104 66.328 270.224 63.896 270.224 60.408V51.912H266.384V45H270.224V40.44L277.424 38.28V45H282.368V51.912ZM302.033 45H309.713L301.505 68.28C300.161 72.056 298.385 74.76 296.177 76.392C294.001 78.024 291.217 78.76 287.825 78.6V71.88C289.489 71.88 290.769 71.576 291.665 70.968C292.561 70.392 293.281 69.368 293.825 67.896L284.273 45H292.193L297.521 59.688L302.033 45Z" fill="#121212"/>
</svg>
