<svg width="513" height="218" viewBox="0 0 513 218" fill="none" xmlns="http://www.w3.org/2000/svg">
<rect x="3" y="116" width="507" height="99" rx="49.5" fill="#FFB800" stroke="#121212" stroke-width="6"/>
<path d="M75.3004 182.672C69.9564 182.672 66.1644 180.496 63.9244 176.144L70.5964 172.304C71.1724 173.328 71.7964 174.064 72.4684 174.512C73.1724 174.96 74.1324 175.184 75.3484 175.184C78.2604 175.184 79.7164 173.856 79.7164 171.2V148.4H87.3964V171.2C87.3964 174.784 86.2604 177.6 83.9884 179.648C81.7484 181.664 78.8524 182.672 75.3004 182.672ZM112.997 179.024C110.533 181.456 107.525 182.672 103.973 182.672C100.421 182.672 97.4125 181.456 94.9485 179.024C92.4845 176.56 91.2525 173.552 91.2525 170C91.2525 166.448 92.4845 163.456 94.9485 161.024C97.4125 158.56 100.421 157.328 103.973 157.328C107.525 157.328 110.533 158.56 112.997 161.024C115.461 163.456 116.693 166.448 116.693 170C116.693 173.552 115.461 176.56 112.997 179.024ZM100.037 174.08C101.093 175.136 102.405 175.664 103.973 175.664C105.541 175.664 106.853 175.136 107.909 174.08C108.965 173.024 109.493 171.664 109.493 170C109.493 168.336 108.965 166.976 107.909 165.92C106.853 164.864 105.541 164.336 103.973 164.336C102.405 164.336 101.093 164.864 100.037 165.92C98.9805 166.976 98.4525 168.336 98.4525 170C98.4525 171.664 98.9805 173.024 100.037 174.08ZM127.389 154.64C126.557 155.472 125.549 155.888 124.365 155.888C123.181 155.888 122.157 155.472 121.293 154.64C120.461 153.776 120.045 152.752 120.045 151.568C120.045 150.384 120.461 149.376 121.293 148.544C122.157 147.68 123.181 147.248 124.365 147.248C125.549 147.248 126.557 147.68 127.389 148.544C128.253 149.376 128.685 150.384 128.685 151.568C128.685 152.752 128.253 153.776 127.389 154.64ZM120.765 182V158H127.965V182H120.765ZM147.298 157.328C149.858 157.328 151.986 158.208 153.682 159.968C155.41 161.728 156.274 164.16 156.274 167.264V182H149.074V168.32C149.074 166.912 148.674 165.84 147.874 165.104C147.106 164.336 146.114 163.952 144.898 163.952C143.522 163.952 142.434 164.368 141.634 165.2C140.834 166.032 140.434 167.264 140.434 168.896V182H133.234V158H140.434V160.256C141.874 158.304 144.162 157.328 147.298 157.328ZM193.762 179.024C191.298 181.456 188.29 182.672 184.738 182.672C181.186 182.672 178.178 181.456 175.714 179.024C173.25 176.56 172.018 173.552 172.018 170C172.018 166.448 173.25 163.456 175.714 161.024C178.178 158.56 181.186 157.328 184.738 157.328C188.29 157.328 191.298 158.56 193.762 161.024C196.226 163.456 197.458 166.448 197.458 170C197.458 173.552 196.226 176.56 193.762 179.024ZM180.802 174.08C181.858 175.136 183.17 175.664 184.738 175.664C186.306 175.664 187.618 175.136 188.674 174.08C189.73 173.024 190.258 171.664 190.258 170C190.258 168.336 189.73 166.976 188.674 165.92C187.618 164.864 186.306 164.336 184.738 164.336C183.17 164.336 181.858 164.864 180.802 165.92C179.746 166.976 179.218 168.336 179.218 170C179.218 171.664 179.746 173.024 180.802 174.08ZM217.035 158H224.235V182H217.035V179.744C215.595 181.696 213.307 182.672 210.171 182.672C207.611 182.672 205.467 181.792 203.739 180.032C202.043 178.272 201.195 175.84 201.195 172.736V158H208.395V171.68C208.395 173.088 208.779 174.176 209.547 174.944C210.347 175.68 211.355 176.048 212.571 176.048C213.947 176.048 215.035 175.632 215.835 174.8C216.635 173.968 217.035 172.736 217.035 171.104V158ZM236.715 162.272C237.163 160.736 238.059 159.568 239.403 158.768C240.779 157.936 242.283 157.52 243.915 157.52V165.68C242.155 165.392 240.507 165.696 238.971 166.592C237.467 167.456 236.715 168.976 236.715 171.152V182H229.515V158H236.715V162.272ZM276.705 158H283.905V182H276.705V179.744C275.009 181.696 272.625 182.672 269.553 182.672C266.385 182.672 263.681 181.456 261.441 179.024C259.201 176.56 258.081 173.552 258.081 170C258.081 166.448 259.201 163.456 261.441 161.024C263.681 158.56 266.385 157.328 269.553 157.328C272.625 157.328 275.009 158.304 276.705 160.256V158ZM266.865 174.272C267.921 175.328 269.297 175.856 270.993 175.856C272.689 175.856 274.065 175.328 275.121 174.272C276.177 173.216 276.705 171.792 276.705 170C276.705 168.208 276.177 166.784 275.121 165.728C274.065 164.672 272.689 164.144 270.993 164.144C269.297 164.144 267.921 164.672 266.865 165.728C265.809 166.784 265.281 168.208 265.281 170C265.281 171.792 265.809 173.216 266.865 174.272ZM316.067 157.328C318.819 157.328 321.027 158.24 322.691 160.064C324.355 161.856 325.187 164.256 325.187 167.264V182H317.987V167.888C317.987 166.672 317.683 165.712 317.075 165.008C316.499 164.304 315.651 163.952 314.531 163.952C313.347 163.952 312.419 164.352 311.747 165.152C311.107 165.952 310.787 167.056 310.787 168.464V182H303.587V167.888C303.587 166.672 303.283 165.712 302.675 165.008C302.099 164.304 301.251 163.952 300.131 163.952C298.947 163.952 298.019 164.352 297.347 165.152C296.707 165.952 296.387 167.056 296.387 168.464V182H289.187V158H296.387V160.208C297.699 158.288 299.843 157.328 302.819 157.328C305.603 157.328 307.699 158.384 309.107 160.496C310.579 158.384 312.899 157.328 316.067 157.328ZM347.533 158H354.733V182H347.533V179.744C345.837 181.696 343.453 182.672 340.381 182.672C337.213 182.672 334.509 181.456 332.269 179.024C330.029 176.56 328.909 173.552 328.909 170C328.909 166.448 330.029 163.456 332.269 161.024C334.509 158.56 337.213 157.328 340.381 157.328C343.453 157.328 345.837 158.304 347.533 160.256V158ZM337.693 174.272C338.749 175.328 340.125 175.856 341.821 175.856C343.517 175.856 344.893 175.328 345.949 174.272C347.005 173.216 347.533 171.792 347.533 170C347.533 168.208 347.005 166.784 345.949 165.728C344.893 164.672 343.517 164.144 341.821 164.144C340.125 164.144 338.749 164.672 337.693 165.728C336.637 166.784 336.109 168.208 336.109 170C336.109 171.792 336.637 173.216 337.693 174.272ZM368.943 175.28H378.495V182H359.295V177.2L368.367 164.72H359.775V158H378.015V162.8L368.943 175.28ZM389.42 154.64C388.588 155.472 387.58 155.888 386.396 155.888C385.212 155.888 384.188 155.472 383.324 154.64C382.492 153.776 382.076 152.752 382.076 151.568C382.076 150.384 382.492 149.376 383.324 148.544C384.188 147.68 385.212 147.248 386.396 147.248C387.58 147.248 388.588 147.68 389.42 148.544C390.284 149.376 390.716 150.384 390.716 151.568C390.716 152.752 390.284 153.776 389.42 154.64ZM382.796 182V158H389.996V182H382.796ZM409.329 157.328C411.889 157.328 414.017 158.208 415.713 159.968C417.441 161.728 418.305 164.16 418.305 167.264V182H411.105V168.32C411.105 166.912 410.705 165.84 409.905 165.104C409.137 164.336 408.145 163.952 406.929 163.952C405.553 163.952 404.465 164.368 403.665 165.2C402.865 166.032 402.465 167.264 402.465 168.896V182H395.265V158H402.465V160.256C403.905 158.304 406.193 157.328 409.329 157.328ZM440.865 158H447.873V180.8C447.873 184.576 446.641 187.424 444.177 189.344C441.713 191.296 438.721 192.272 435.201 192.272C429.793 192.272 426.001 190.336 423.825 186.464L429.969 182.912C431.057 184.928 432.881 185.936 435.441 185.936C437.137 185.936 438.465 185.488 439.425 184.592C440.385 183.728 440.865 182.464 440.865 180.8V178.592C439.201 180.672 436.865 181.712 433.857 181.712C430.497 181.712 427.681 180.528 425.409 178.16C423.169 175.76 422.049 172.88 422.049 169.52C422.049 166.16 423.169 163.296 425.409 160.928C427.681 158.528 430.497 157.328 433.857 157.328C436.865 157.328 439.201 158.368 440.865 160.448V158ZM430.881 173.552C431.969 174.576 433.361 175.088 435.057 175.088C436.753 175.088 438.145 174.576 439.233 173.552C440.321 172.528 440.865 171.184 440.865 169.52C440.865 167.856 440.321 166.512 439.233 165.488C438.145 164.464 436.753 163.952 435.057 163.952C433.361 163.952 431.969 164.464 430.881 165.488C429.793 166.512 429.249 167.856 429.249 169.52C429.249 171.184 429.793 172.528 430.881 173.552Z" fill="#FEFEFE"/>
<line x1="87.5" y1="-92" x2="87.5" y2="111" stroke="#E8A700" stroke-width="3"/>
<line x1="427.5" y1="-92" x2="427.5" y2="111" stroke="#E8A700" stroke-width="3"/>
</svg>
