<svg width="96" height="96" viewBox="0 0 96 96" fill="none" xmlns="http://www.w3.org/2000/svg">
<rect width="96" height="96" fill="#5958D3"/>
<path d="M22.5191 66.9757C17.6721 61.9987 15.0035 55.4371 15.0035 48.5001C15.0035 41.563 17.673 35.0006 22.5191 30.0236C27.3577 25.0551 33.8393 22.1996 40.7696 21.9846L40.5759 15.7578C32.0246 16.0237 24.0263 19.5462 18.0553 25.677C12.0689 31.8239 8.77246 39.9292 8.77246 48.5001C8.77246 57.0709 12.0689 65.1753 18.0553 71.3223C24.0263 77.453 32.0237 80.9764 40.5759 81.2423L40.7696 75.0155C33.8393 74.8006 27.3577 71.945 22.5191 66.9765V66.9757Z" fill="white"/>
<path d="M78.9443 25.677C72.9732 19.5462 64.9759 16.0229 56.4237 15.7578L56.23 21.9846C63.1602 22.1996 69.6419 25.0551 74.4804 30.0236C79.3275 35.0006 81.9961 41.5621 81.9961 48.5001C81.9961 55.438 79.3266 61.9995 74.4804 66.9757C69.6411 71.9442 63.1602 74.7997 56.23 75.0147L56.4237 81.2415C64.975 80.9755 72.9732 77.453 78.9443 71.3214C84.9306 65.1745 88.2271 57.0692 88.2271 48.4992C88.2271 39.9292 84.9306 31.8231 78.9443 25.6762V25.677Z" fill="white"/>
<path d="M67.2773 49.5034C67.2433 52.4201 65.3903 55.0675 61.7701 57.3725C61.3818 57.6197 60.9919 57.8499 60.6078 58.0641C57.7064 59.6792 56.2697 63.0547 57.1644 66.2526C57.3249 66.2076 61.1329 65.1311 64.974 62.7174C70.4964 59.2476 73.4471 54.703 73.5066 49.5765C73.5992 41.6844 68.7335 33.5953 68.5262 33.2546L67.0496 30.8281L48.5 40.1968L29.9505 30.8281L28.4739 33.2546C28.2666 33.5953 23.4009 41.6844 23.4935 49.5765C23.6345 61.5984 39.1747 66.0691 39.8357 66.2534C40.7312 63.0555 39.2945 59.68 36.3923 58.0649C36.0074 57.8508 35.6183 57.6206 35.23 57.3733C31.6098 55.0675 29.7568 52.4201 29.7228 49.5042C29.6778 45.6852 31.2785 41.5604 32.4866 39.0022L48.5 47.1313L64.5135 39.0022C65.7216 41.5612 67.3214 45.6852 67.2773 49.5042V49.5034Z" fill="white"/>
</svg>
