<svg width="870" height="870" viewBox="0 0 870 870" fill="none" xmlns="http://www.w3.org/2000/svg">
<path d="M414.816 774.387H78.8221C76.1871 774.387 73.66 773.34 71.7967 771.477C69.9335 769.614 68.8867 767.087 68.8867 764.451V105.548C68.9097 102.928 69.9665 100.424 71.8273 98.5791C73.6881 96.7347 76.2021 95.6999 78.8221 95.7H414.816C416.121 95.7 417.413 95.9569 418.618 96.4562C419.824 96.9555 420.919 97.6874 421.842 98.61C422.764 99.5325 423.496 100.628 423.995 101.833C424.495 103.039 424.752 104.331 424.752 105.635V764.451C424.752 765.756 424.495 767.048 423.995 768.254C423.496 769.459 422.764 770.554 421.842 771.477C420.919 772.4 419.824 773.131 418.618 773.631C417.413 774.13 416.121 774.387 414.816 774.387ZM78.8221 96.048C76.3039 96.0526 73.8901 97.055 72.1094 98.8356C70.3287 100.616 69.3263 103.03 69.3217 105.548V764.451C69.3263 766.97 70.3287 769.384 72.1094 771.164C73.8901 772.945 76.3039 773.947 78.8221 773.952H414.816C417.334 773.947 419.748 772.945 421.529 771.164C423.31 769.384 424.312 766.97 424.317 764.451V105.548C424.312 103.03 423.31 100.616 421.529 98.8356C419.748 97.055 417.334 96.0526 414.816 96.048H78.8221Z" fill="#EBEBEB"/>
<path d="M791.178 774.387H455.184C452.549 774.387 450.022 773.34 448.159 771.477C446.296 769.614 445.249 767.087 445.249 764.451V105.548C445.272 102.928 446.329 100.424 448.19 98.5791C450.05 96.7347 452.564 95.6999 455.184 95.7H791.178C793.813 95.7 796.341 96.7467 798.204 98.61C800.067 100.473 801.114 103 801.114 105.635V764.451C801.114 765.756 800.857 767.048 800.358 768.254C799.858 769.459 799.126 770.554 798.204 771.477C797.281 772.4 796.186 773.131 794.981 773.631C793.775 774.13 792.483 774.387 791.178 774.387ZM455.184 96.048C452.666 96.0526 450.252 97.055 448.472 98.8356C446.691 100.616 445.689 103.03 445.684 105.548V764.451C445.689 766.97 446.691 769.384 448.472 771.164C450.252 772.945 452.666 773.947 455.184 773.952H791.178C793.697 773.947 796.11 772.945 797.891 771.164C799.672 769.384 800.674 766.97 800.679 764.451V105.548C800.674 103.03 799.672 100.616 797.891 98.8356C796.11 97.055 793.697 96.0526 791.178 96.048H455.184Z" fill="#EBEBEB"/>
<path d="M196.707 292.755L199.525 298.445L205.824 299.367L201.265 303.804L202.344 310.068L196.707 307.11L191.086 310.068L192.165 303.804L187.606 299.367L193.905 298.445L196.707 292.755Z" fill="#EBEBEB"/>
<path d="M759.858 561.115L762.677 566.822L768.976 567.745L764.417 572.164L765.496 578.446L759.858 575.488L754.238 578.446L755.317 572.164L750.758 567.745L757.057 566.822L759.858 561.115Z" fill="#F5F5F5"/>
<path d="M648.324 726.572L651.143 732.262L657.424 733.184L652.865 737.621L653.944 743.885L648.324 740.927L642.704 743.885L643.765 737.621L639.224 733.184L645.505 732.262L648.324 726.572Z" fill="#F5F5F5"/>
<path d="M393.136 191.661L394.18 193.784L396.529 194.132C396.66 194.149 396.784 194.203 396.885 194.288C396.986 194.372 397.062 194.484 397.102 194.61C397.142 194.736 397.145 194.871 397.112 194.999C397.078 195.127 397.009 195.242 396.912 195.332L395.172 196.985L395.572 199.317C395.593 199.447 395.577 199.58 395.527 199.701C395.476 199.822 395.394 199.928 395.288 200.005C395.181 200.082 395.056 200.129 394.925 200.14C394.794 200.15 394.663 200.124 394.545 200.065L392.457 198.951L390.369 200.065C390.252 200.124 390.121 200.15 389.99 200.14C389.859 200.129 389.733 200.082 389.627 200.005C389.521 199.928 389.438 199.822 389.388 199.701C389.338 199.58 389.322 199.447 389.343 199.317L389.726 196.985L387.986 195.332C387.888 195.241 387.819 195.124 387.786 194.995C387.753 194.866 387.758 194.73 387.8 194.604C387.843 194.477 387.92 194.365 388.024 194.282C388.128 194.198 388.253 194.146 388.386 194.132L390.717 193.784L391.761 191.661C391.803 191.511 391.893 191.378 392.017 191.284C392.141 191.19 392.293 191.139 392.449 191.139C392.605 191.139 392.756 191.19 392.88 191.284C393.004 191.378 393.094 191.511 393.136 191.661Z" fill="#EBEBEB"/>
<path d="M105.757 699.48L106.801 701.585L109.133 701.933C109.265 701.952 109.39 702.007 109.493 702.092C109.595 702.178 109.672 702.29 109.713 702.417C109.755 702.544 109.76 702.68 109.729 702.81C109.697 702.94 109.629 703.058 109.533 703.151L107.793 704.787L108.193 707.119C108.214 707.248 108.198 707.381 108.148 707.503C108.098 707.624 108.015 707.729 107.909 707.807C107.803 707.884 107.677 707.931 107.546 707.941C107.415 707.952 107.284 707.926 107.167 707.867L105.079 706.77L102.991 707.867C102.874 707.926 102.742 707.952 102.611 707.941C102.48 707.931 102.355 707.884 102.249 707.807C102.142 707.729 102.06 707.624 102.01 707.503C101.959 707.381 101.944 707.248 101.964 707.119L102.364 704.787L100.624 703.151C100.529 703.059 100.461 702.942 100.428 702.814C100.396 702.685 100.399 702.55 100.439 702.424C100.479 702.297 100.553 702.184 100.653 702.098C100.754 702.011 100.876 701.954 101.007 701.933L103.339 701.585L104.4 699.48C104.447 699.337 104.537 699.212 104.659 699.123C104.781 699.034 104.928 698.987 105.079 698.987C105.23 698.987 105.376 699.034 105.498 699.123C105.62 699.212 105.711 699.337 105.757 699.48Z" fill="#F5F5F5"/>
<path d="M152.686 169.302L153.73 171.425L156.079 171.755C156.21 171.776 156.332 171.833 156.432 171.92C156.533 172.007 156.607 172.119 156.647 172.246C156.687 172.372 156.69 172.507 156.657 172.636C156.625 172.764 156.557 172.881 156.461 172.973L154.721 174.713L155.122 177.028C155.149 177.159 155.139 177.296 155.091 177.421C155.042 177.546 154.959 177.655 154.851 177.734C154.742 177.813 154.613 177.859 154.479 177.867C154.345 177.874 154.212 177.842 154.095 177.776L152.007 176.68L149.919 177.776C149.802 177.842 149.669 177.874 149.535 177.867C149.401 177.859 149.272 177.813 149.163 177.734C149.055 177.655 148.972 177.546 148.923 177.421C148.875 177.296 148.865 177.159 148.892 177.028L149.275 174.713L147.535 172.973C147.439 172.88 147.372 172.762 147.34 172.632C147.308 172.502 147.313 172.366 147.355 172.239C147.397 172.112 147.473 172 147.576 171.914C147.678 171.829 147.803 171.774 147.935 171.755L150.267 171.425L151.381 169.302C151.436 169.176 151.528 169.068 151.644 168.993C151.76 168.917 151.895 168.877 152.033 168.877C152.171 168.877 152.307 168.917 152.422 168.993C152.538 169.068 152.63 169.176 152.686 169.302Z" fill="#EBEBEB"/>
<path d="M149.867 588.677C149.87 589.135 149.737 589.584 149.485 589.967C149.233 590.35 148.873 590.649 148.45 590.827C148.028 591.005 147.562 591.053 147.112 590.966C146.662 590.879 146.248 590.66 145.922 590.337C145.597 590.014 145.375 589.601 145.284 589.152C145.193 588.703 145.238 588.236 145.413 587.813C145.587 587.389 145.884 587.026 146.265 586.771C146.646 586.516 147.094 586.38 147.552 586.38C148.163 586.38 148.749 586.621 149.183 587.052C149.616 587.482 149.862 588.066 149.867 588.677Z" fill="#EBEBEB"/>
<path d="M479.665 299.089C479.669 299.547 479.536 299.996 479.284 300.379C479.032 300.762 478.671 301.061 478.249 301.239C477.826 301.417 477.361 301.465 476.91 301.378C476.46 301.291 476.046 301.071 475.721 300.749C475.396 300.426 475.174 300.013 475.083 299.564C474.992 299.115 475.037 298.648 475.212 298.224C475.386 297.801 475.683 297.438 476.064 297.183C476.445 296.928 476.893 296.792 477.351 296.792C477.654 296.79 477.955 296.847 478.236 296.962C478.516 297.076 478.771 297.245 478.987 297.458C479.202 297.672 479.372 297.926 479.489 298.206C479.605 298.485 479.665 298.786 479.665 299.089Z" fill="#EBEBEB"/>
<path d="M359.675 171.216C359.675 171.674 359.54 172.121 359.285 172.502C359.031 172.882 358.67 173.179 358.247 173.354C357.824 173.529 357.358 173.575 356.91 173.486C356.461 173.396 356.048 173.176 355.725 172.852C355.401 172.529 355.181 172.116 355.091 171.668C355.002 171.219 355.048 170.753 355.223 170.33C355.398 169.908 355.695 169.546 356.075 169.292C356.456 169.038 356.903 168.902 357.361 168.902C357.973 168.906 358.559 169.152 358.992 169.585C359.425 170.018 359.671 170.604 359.675 171.216Z" fill="#F5F5F5"/>
<path d="M363.34 735.226C370.214 733.604 374.472 726.716 372.849 719.841C371.227 712.967 364.339 708.71 357.465 710.332C350.59 711.954 346.333 718.843 347.955 725.717C349.578 732.591 356.466 736.849 363.34 735.226Z" fill="#F0F0F0"/>
<path d="M356.004 715.297C353.384 715.291 350.831 716.12 348.713 717.663C347.632 720.144 347.367 722.904 347.955 725.545C348.544 728.186 349.956 730.572 351.989 732.359C354.021 734.146 356.569 735.24 359.264 735.486C361.959 735.731 364.662 735.114 366.983 733.723C368.011 731.822 368.527 729.687 368.482 727.527C368.436 725.367 367.831 723.255 366.724 721.399C365.617 719.544 364.047 718.007 362.168 716.94C360.289 715.874 358.165 715.313 356.004 715.314V715.297Z" fill="#E6E6E6"/>
<path d="M256.963 500.494H151.084V452.696L256.963 326.824H307.632V455.41H333.888V500.494H307.632V539.609H256.963V500.494ZM256.963 455.41V389.569L201.005 455.41H256.963Z" fill="#5D5CD6"/>
<path d="M352.002 434.147C352.002 394.371 359.159 366.531 373.473 350.627C387.788 334.724 409.601 326.778 438.915 326.789C452.985 326.789 464.545 328.529 473.593 332.009C481.812 334.971 489.339 339.584 495.708 345.564C501.077 350.69 505.625 356.611 509.193 363.121C512.724 369.917 515.384 377.131 517.11 384.592C521.044 400.532 523.008 416.894 522.957 433.312C522.957 471.267 516.536 499.044 503.695 516.641C490.854 534.238 468.738 543.042 437.349 543.054C419.74 543.054 405.512 540.247 394.666 534.632C383.733 528.927 374.524 520.402 367.992 509.942C362.946 502.239 359.02 491.701 356.212 478.326C353.298 463.783 351.887 448.979 352.002 434.147ZM409.665 434.287C409.665 460.967 412.014 479.161 416.712 488.87C421.41 498.58 428.237 503.457 437.192 503.504C440.034 503.536 442.854 503.003 445.488 501.937C448.123 500.87 450.519 499.291 452.539 497.292C456.877 493.151 460.067 486.608 462.109 477.665C464.15 468.721 465.171 454.801 465.171 435.905C465.171 408.134 462.816 389.464 458.107 379.894C453.397 370.324 446.333 365.545 436.914 365.557C427.309 365.557 420.349 370.434 416.034 380.19C411.718 389.946 409.596 407.978 409.665 434.287Z" fill="#5D5CD6"/>
<path d="M646.827 500.494H540.948V452.696L646.827 326.824H697.496V455.41H723.84V500.494H697.496V539.609H646.827V500.494ZM646.827 455.41V389.569L590.886 455.41H646.827Z" fill="#5D5CD6"/>
<g opacity="0.3">
<path d="M349.74 253.379C349.74 254.023 349.549 254.653 349.19 255.188C348.832 255.724 348.323 256.141 347.727 256.387C347.132 256.632 346.477 256.696 345.845 256.569C345.213 256.442 344.634 256.13 344.179 255.673C343.725 255.217 343.416 254.635 343.293 254.003C343.169 253.371 343.236 252.716 343.485 252.122C343.734 251.527 344.154 251.02 344.691 250.665C345.229 250.309 345.859 250.122 346.504 250.125C346.93 250.125 347.352 250.209 347.746 250.373C348.14 250.537 348.498 250.777 348.798 251.079C349.099 251.381 349.337 251.74 349.499 252.135C349.66 252.53 349.742 252.952 349.74 253.379Z" fill="#5D5CD6"/>
<path d="M126.968 378.363C128.236 378.363 129.264 377.335 129.264 376.066C129.264 374.798 128.236 373.769 126.968 373.769C125.699 373.769 124.671 374.798 124.671 376.066C124.671 377.335 125.699 378.363 126.968 378.363Z" fill="#5D5CD6"/>
<path d="M506.427 713.783C508.243 713.783 509.716 712.31 509.716 710.494C509.716 708.678 508.243 707.206 506.427 707.206C504.611 707.206 503.139 708.678 503.139 710.494C503.139 712.31 504.611 713.783 506.427 713.783Z" fill="#5D5CD6"/>
<path d="M585.51 579.977C586.778 579.977 587.807 578.949 587.807 577.68C587.807 576.412 586.778 575.383 585.51 575.383C584.241 575.383 583.213 576.412 583.213 577.68C583.213 578.949 584.241 579.977 585.51 579.977Z" fill="#5D5CD6"/>
<path d="M738.056 166.379C738.056 166.833 737.921 167.277 737.668 167.655C737.416 168.033 737.057 168.327 736.638 168.501C736.218 168.675 735.756 168.72 735.311 168.631C734.865 168.543 734.456 168.324 734.135 168.003C733.813 167.682 733.595 167.272 733.506 166.827C733.417 166.381 733.463 165.92 733.637 165.5C733.811 165.08 734.105 164.721 734.483 164.469C734.86 164.217 735.304 164.082 735.759 164.082C736.368 164.082 736.952 164.324 737.383 164.755C737.814 165.185 738.056 165.77 738.056 166.379Z" fill="#5D5CD6"/>
<path d="M300.585 120.06C300.585 120.514 300.45 120.958 300.198 121.336C299.945 121.714 299.587 122.008 299.167 122.182C298.747 122.356 298.285 122.401 297.84 122.313C297.394 122.224 296.985 122.005 296.664 121.684C296.343 121.363 296.124 120.954 296.035 120.508C295.947 120.063 295.992 119.601 296.166 119.181C296.34 118.761 296.634 118.403 297.012 118.15C297.39 117.898 297.834 117.763 298.288 117.763C298.896 117.768 299.477 118.011 299.907 118.441C300.337 118.871 300.58 119.452 300.585 120.06Z" fill="#5D5CD6"/>
<path d="M483.198 240.572C484.467 240.572 485.495 239.544 485.495 238.276C485.495 237.007 484.467 235.979 483.198 235.979C481.93 235.979 480.901 237.007 480.901 238.276C480.901 239.544 481.93 240.572 483.198 240.572Z" fill="#5D5CD6"/>
</g>
<path d="M245.74 240.59C266.795 240.59 283.863 223.521 283.863 202.466C283.863 181.411 266.795 164.343 245.74 164.343C224.685 164.343 207.616 181.411 207.616 202.466C207.616 223.521 224.685 240.59 245.74 240.59Z" fill="#5D5CD6"/>
<path opacity="0.7" d="M245.74 240.59C266.795 240.59 283.863 223.521 283.863 202.466C283.863 181.411 266.795 164.343 245.74 164.343C224.685 164.343 207.616 181.411 207.616 202.466C207.616 223.521 224.685 240.59 245.74 240.59Z" fill="white"/>
<path opacity="0.2" d="M232.603 173.704C227.411 173.688 222.271 174.737 217.5 176.784C211.636 183.229 208.156 191.487 207.638 200.185C207.12 208.883 209.596 217.496 214.653 224.591C219.711 231.686 227.045 236.835 235.436 239.183C243.827 241.53 252.769 240.934 260.774 237.493C265.737 232.023 269.005 225.23 270.182 217.939C271.358 210.648 270.393 203.172 267.402 196.419C264.412 189.666 259.525 183.926 253.335 179.897C247.146 175.868 239.919 173.723 232.534 173.722L232.603 173.704Z" fill="#5D5CD6"/>
<path opacity="0.2" d="M228.81 183.779C228.81 184.467 228.606 185.14 228.223 185.712C227.841 186.284 227.297 186.731 226.661 186.994C226.025 187.257 225.326 187.326 224.651 187.192C223.976 187.058 223.356 186.726 222.869 186.24C222.382 185.753 222.051 185.133 221.916 184.458C221.782 183.783 221.851 183.083 222.115 182.447C222.378 181.811 222.824 181.268 223.396 180.885C223.969 180.503 224.641 180.299 225.33 180.299C226.253 180.299 227.138 180.665 227.79 181.318C228.443 181.971 228.81 182.856 228.81 183.779Z" fill="#5D5CD6"/>
<path opacity="0.2" d="M269.805 180.299C269.805 180.987 269.601 181.66 269.218 182.232C268.836 182.805 268.292 183.251 267.656 183.514C267.021 183.777 266.321 183.846 265.646 183.712C264.971 183.578 264.351 183.246 263.864 182.76C263.377 182.273 263.046 181.653 262.912 180.978C262.777 180.303 262.846 179.603 263.11 178.967C263.373 178.331 263.819 177.788 264.391 177.405C264.964 177.023 265.636 176.819 266.325 176.819C267.248 176.819 268.133 177.185 268.785 177.838C269.438 178.491 269.805 179.376 269.805 180.299Z" fill="#5D5CD6"/>
<path opacity="0.2" d="M262.844 205.146C262.844 206.275 262.509 207.378 261.882 208.317C261.255 209.255 260.364 209.987 259.321 210.419C258.278 210.851 257.131 210.964 256.023 210.743C254.916 210.523 253.899 209.98 253.101 209.182C252.303 208.383 251.76 207.366 251.539 206.259C251.319 205.152 251.432 204.005 251.864 202.962C252.296 201.919 253.028 201.028 253.966 200.401C254.905 199.773 256.008 199.439 257.137 199.439C258.651 199.439 260.102 200.04 261.172 201.11C262.243 202.181 262.844 203.632 262.844 205.146Z" fill="#5D5CD6"/>
<path opacity="0.2" d="M244.713 221.415C244.713 222.922 244.266 224.396 243.429 225.649C242.591 226.902 241.401 227.879 240.008 228.456C238.616 229.033 237.083 229.184 235.605 228.89C234.127 228.596 232.769 227.87 231.703 226.804C230.637 225.738 229.911 224.38 229.617 222.902C229.323 221.423 229.474 219.891 230.051 218.498C230.628 217.106 231.604 215.916 232.858 215.078C234.111 214.241 235.585 213.794 237.092 213.794C239.113 213.794 241.052 214.597 242.481 216.026C243.91 217.455 244.713 219.394 244.713 221.415Z" fill="#5D5CD6"/>
<path d="M697.565 662.324C701.81 644.339 690.671 626.318 672.686 622.073C654.7 617.828 636.679 628.966 632.434 646.952C628.189 664.937 639.328 682.959 657.314 687.203C675.299 691.448 693.32 680.31 697.565 662.324Z" fill="#5D5CD6"/>
<path opacity="0.3" d="M697.565 662.324C701.81 644.339 690.671 626.318 672.686 622.073C654.7 617.828 636.679 628.966 632.434 646.952C628.189 664.937 639.328 682.959 657.314 687.203C675.299 691.448 693.32 680.31 697.565 662.324Z" fill="white"/>
<path opacity="0.4" d="M686.134 628.732C678.717 626.493 670.752 626.899 663.601 629.881C656.45 632.863 650.556 638.235 646.926 645.08C643.296 651.925 642.155 659.818 643.699 667.41C645.242 675.003 649.374 681.824 655.389 686.709C658.508 687.656 661.751 688.137 665.011 688.135C671.919 688.134 678.657 685.994 684.3 682.011C689.943 678.027 694.215 672.394 696.53 665.886C698.844 659.377 699.087 652.312 697.226 645.66C695.365 639.007 691.49 633.094 686.134 628.732Z" fill="#5D5CD6"/>
<path d="M633.064 664.68C597.341 681.488 623.981 694.451 674.319 676.355C720.934 659.599 738.699 638.475 696.939 645.035C699.184 653.822 640.807 676.564 633.064 664.68Z" fill="#5D5CD6"/>
<path opacity="0.2" d="M685.734 326.824C638.946 358.44 578.376 400.2 561.655 500.494H558.088C574.357 401.314 632.717 358.562 679.523 326.824H685.734Z" fill="black"/>
<path d="M443.7 640.79C414.12 640.79 384.871 627.444 370.62 605.659C361.833 592.192 351.619 563.986 382.035 526.35L384.732 528.542C363.225 555.164 359.258 581.873 373.543 603.763C390.943 630.385 431.99 643.783 467.034 634.247C502.93 624.486 524.715 593.27 526.82 548.605C534.006 395.815 615.177 348.748 674.442 314.383C711.277 293.033 737.882 277.617 732.036 245.062C731.218 240.555 729.426 237.44 726.52 235.526C718.951 230.533 704.161 233.995 687.039 237.98C653.44 245.81 607.434 256.528 580.029 209.914L583.039 208.174C609.139 252.596 651.891 242.626 686.256 234.622C704.161 230.463 719.612 226.861 728.434 232.655C732.175 235.109 734.472 238.989 735.394 244.487C741.675 279.427 712.774 296.2 676.147 317.428C617.561 351.393 537.347 397.903 530.248 548.848C528.055 595.132 505.331 627.514 467.886 637.693C459.997 639.793 451.864 640.835 443.7 640.79Z" fill="#5D5CD6"/>
<path opacity="0.2" d="M443.7 640.79C414.12 640.79 384.871 627.444 370.62 605.659C361.833 592.192 351.619 563.986 382.035 526.35L384.732 528.542C363.225 555.164 359.258 581.873 373.543 603.763C390.943 630.385 431.99 643.783 467.034 634.247C502.93 624.486 524.715 593.27 526.82 548.605C534.006 395.815 615.177 348.748 674.442 314.383C711.277 293.033 737.882 277.617 732.036 245.062C731.218 240.555 729.426 237.44 726.52 235.526C718.951 230.533 704.161 233.995 687.039 237.98C653.44 245.81 607.434 256.528 580.029 209.914L583.039 208.174C609.139 252.596 651.891 242.626 686.256 234.622C704.161 230.463 719.612 226.861 728.434 232.655C732.175 235.109 734.472 238.989 735.394 244.487C741.675 279.427 712.774 296.2 676.147 317.428C617.561 351.393 537.347 397.903 530.248 548.848C528.055 595.132 505.331 627.514 467.886 637.693C459.997 639.793 451.864 640.835 443.7 640.79Z" fill="white"/>
<path d="M544.202 168.78C552.22 168.826 560.185 170.076 567.831 172.486C567.831 172.486 586.971 205.146 589.233 212.628C588.433 220.006 575.992 232.099 575.992 232.099L544.202 168.78Z" fill="#5D5CD6"/>
<path opacity="0.3" d="M544.202 168.78C552.22 168.826 560.185 170.076 567.831 172.486C567.831 172.486 586.971 205.146 589.233 212.628C588.433 220.006 575.992 232.099 575.992 232.099L544.202 168.78Z" fill="white"/>
<path d="M600.892 327.346C593.521 318.334 586.799 308.809 580.777 298.845C579.316 296.328 577.929 293.764 576.619 291.154C575.87 289.675 575.157 288.196 574.461 286.7C573.548 285.244 572.839 283.669 572.356 282.019C570.268 259.973 577.819 243.739 570.616 226.043L541.94 237.249C541.94 237.249 544.376 268.778 549.944 287.709C553.424 299.419 561.22 309.546 568.754 318.925C571.103 321.848 573.365 324.858 575.714 327.799C578.063 330.739 580.429 333.123 582.674 335.89C586.067 340.083 587.18 344.102 584.623 349.044L584.188 349.827C583.457 351.115 586.867 352.576 589.025 349.827C592.505 345.338 592.018 345.616 595.045 341.788C596.89 339.474 598.995 336.951 600.822 334.828C601.703 333.784 602.193 332.466 602.205 331.1C602.218 329.734 601.753 328.406 600.892 327.346Z" fill="#5D5CD6"/>
<path opacity="0.7" d="M600.892 327.346C593.521 318.334 586.799 308.809 580.777 298.845C579.316 296.328 577.929 293.764 576.619 291.154C575.87 289.675 575.157 288.196 574.461 286.7C573.548 285.244 572.839 283.669 572.356 282.019C570.268 259.973 577.819 243.739 570.616 226.043L541.94 237.249C541.94 237.249 544.376 268.778 549.944 287.709C553.424 299.419 561.22 309.546 568.754 318.925C571.103 321.848 573.365 324.858 575.714 327.799C578.063 330.739 580.429 333.123 582.674 335.89C586.067 340.083 587.18 344.102 584.623 349.044L584.188 349.827C583.457 351.115 586.867 352.576 589.025 349.827C592.505 345.338 592.018 345.616 595.045 341.788C596.89 339.474 598.995 336.951 600.822 334.828C601.703 333.784 602.193 332.466 602.205 331.1C602.218 329.734 601.753 328.406 600.892 327.346Z" fill="white"/>
<path opacity="0.3" d="M593.88 318.281C589.33 323.158 584.279 327.544 578.812 331.366C579.56 332.201 580.291 333.106 581.039 333.906C586.513 330.208 591.484 325.815 595.829 320.839L593.88 318.281Z" fill="#5D5CD6"/>
<path opacity="0.3" d="M600.892 327.346L600.683 327.103C599.344 328.638 598.565 330.583 598.473 332.618C598.361 334.015 598.588 335.417 599.134 336.707L600.787 334.741C601.651 333.708 602.133 332.409 602.152 331.062C602.171 329.715 601.726 328.403 600.892 327.346Z" fill="#5D5CD6"/>
<path d="M537.382 189.66C534.274 194.315 530.545 198.524 526.298 202.171C523.944 204.2 521.363 205.952 518.608 207.391C517.16 208.132 515.659 208.766 514.118 209.287L512.935 209.67L512.552 209.774L511.735 210.001C511.231 210.12 510.719 210.202 510.203 210.244C508.735 210.357 507.259 210.221 505.836 209.844C504.041 209.335 502.321 208.592 500.72 207.634C499.432 206.881 498.184 206.062 496.979 205.181C494.804 203.563 492.724 201.82 490.75 199.961C486.944 196.355 483.452 192.431 480.31 188.233C479.705 187.415 479.405 186.412 479.461 185.396C479.517 184.381 479.925 183.416 480.616 182.67C481.307 181.923 482.237 181.441 483.245 181.307C484.254 181.173 485.277 181.395 486.139 181.934H486.278C490.385 184.544 494.526 187.294 498.563 189.747C500.616 190.948 502.6 192.166 504.566 193.105C505.463 193.575 506.387 193.993 507.332 194.358C507.921 194.618 508.552 194.771 509.194 194.81C509.299 194.81 509.194 194.689 508.55 194.706C508.348 194.694 508.144 194.694 507.941 194.706L507.559 194.793L508.133 194.497C508.906 194.081 509.655 193.622 510.377 193.123C511.934 192.025 513.39 190.79 514.727 189.434C517.767 186.248 520.614 182.884 523.253 179.359C524.699 177.742 526.698 176.722 528.856 176.502C531.015 176.282 533.178 176.876 534.921 178.168C536.664 179.46 537.861 181.357 538.278 183.486C538.695 185.615 538.301 187.824 537.173 189.677L537.382 189.66Z" fill="#5D5CD6"/>
<path opacity="0.7" d="M537.382 189.66C534.274 194.315 530.545 198.524 526.298 202.171C523.944 204.2 521.363 205.952 518.608 207.391C517.16 208.132 515.659 208.766 514.118 209.287L512.935 209.67L512.552 209.774L511.735 210.001C511.231 210.12 510.719 210.202 510.203 210.244C508.735 210.357 507.259 210.221 505.836 209.844C504.041 209.335 502.321 208.592 500.72 207.634C499.432 206.881 498.184 206.062 496.979 205.181C494.804 203.563 492.724 201.82 490.75 199.961C486.944 196.355 483.452 192.431 480.31 188.233C479.705 187.415 479.405 186.412 479.461 185.396C479.517 184.381 479.925 183.416 480.616 182.67C481.307 181.923 482.237 181.441 483.245 181.307C484.254 181.173 485.277 181.395 486.139 181.934H486.278C490.385 184.544 494.526 187.294 498.563 189.747C500.616 190.948 502.6 192.166 504.566 193.105C505.463 193.575 506.387 193.993 507.332 194.358C507.921 194.618 508.552 194.771 509.194 194.81C509.299 194.81 509.194 194.689 508.55 194.706C508.348 194.694 508.144 194.694 507.941 194.706L507.559 194.793L508.133 194.497C508.906 194.081 509.655 193.622 510.377 193.123C511.934 192.025 513.39 190.79 514.727 189.434C517.767 186.248 520.614 182.884 523.253 179.359C524.699 177.742 526.698 176.722 528.856 176.502C531.015 176.282 533.178 176.876 534.921 178.168C536.664 179.46 537.861 181.357 538.278 183.486C538.695 185.615 538.301 187.824 537.173 189.677L537.382 189.66Z" fill="white"/>
<path d="M473.785 178.211L475.821 181.691C475.821 181.691 477.369 186.25 480.484 187.085L488.94 184.353L488.505 183.64C487.427 182.004 487.548 178.82 487.914 176.175C488.279 173.53 486.922 173.443 485.913 174.104C485.198 174.927 484.696 175.913 484.451 176.975C484.036 176.401 483.577 175.86 483.077 175.357L480.501 172.782C479.961 172.254 479.241 171.95 478.486 171.93C477.731 171.911 476.996 172.178 476.43 172.678L474.342 174.539C473.846 174.998 473.522 175.611 473.42 176.278C473.319 176.945 473.448 177.626 473.785 178.211Z" fill="#5D5CD6"/>
<path opacity="0.7" d="M473.785 178.211L475.821 181.691C475.821 181.691 477.369 186.25 480.484 187.085L488.94 184.353L488.505 183.64C487.427 182.004 487.548 178.82 487.914 176.175C488.279 173.53 486.922 173.443 485.913 174.104C485.198 174.927 484.696 175.913 484.451 176.975C484.036 176.401 483.577 175.86 483.077 175.357L480.501 172.782C479.961 172.254 479.241 171.95 478.486 171.93C477.731 171.911 476.996 172.178 476.43 172.678L474.342 174.539C473.846 174.998 473.522 175.611 473.42 176.278C473.319 176.945 473.448 177.626 473.785 178.211Z" fill="white"/>
<path d="M552.746 165.683C543.366 168.169 534.381 171.958 526.054 176.941C524.755 177.754 523.736 178.944 523.132 180.353C522.529 181.762 522.371 183.321 522.679 184.823C526.037 201.248 533.676 223.242 541.923 237.249L580.394 221.328C580.655 214.542 571.312 192.583 561.794 171.355C560.089 167.545 556.8 164.708 552.746 165.683Z" fill="#5D5CD6"/>
<path opacity="0.8" d="M552.746 165.683C543.366 168.169 534.381 171.958 526.054 176.941C524.755 177.754 523.736 178.944 523.132 180.353C522.529 181.762 522.371 183.321 522.679 184.823C526.037 201.248 533.676 223.242 541.923 237.249L580.394 221.328C580.655 214.542 571.312 192.583 561.794 171.355C560.089 167.545 556.8 164.708 552.746 165.683Z" fill="white"/>
<path opacity="0.3" d="M567.763 184.805L560.124 182.248C561.864 186.719 568.006 192.374 572.304 195.698C570.912 192.218 569.363 188.564 567.763 184.805Z" fill="#5D5CD6"/>
<path d="M550.223 148.457C547.039 142.402 540.166 139.357 531.919 140.035C524.959 140.627 518.799 147.726 519.53 151.554C520.261 155.382 526.107 157.018 527.221 158.34L522.401 161.82C521.83 162.232 521.348 162.755 520.985 163.359C520.621 163.962 520.384 164.632 520.286 165.33C520.189 166.027 520.233 166.737 520.417 167.416C520.601 168.096 520.921 168.732 521.357 169.285C523.393 171.86 526.072 174.505 527.621 176.453C540.949 176.105 550.815 171.025 554.382 166.135C553.042 159.941 553.321 154.477 550.223 148.457Z" fill="#5D5CD6"/>
<path opacity="0.8" d="M550.223 148.457C547.039 142.402 540.166 139.357 531.919 140.035C524.959 140.627 518.799 147.726 519.53 151.554C520.261 155.382 526.107 157.018 527.221 158.34L522.401 161.82C521.83 162.232 521.348 162.755 520.985 163.359C520.621 163.962 520.384 164.632 520.286 165.33C520.189 166.027 520.233 166.737 520.417 167.416C520.601 168.096 520.921 168.732 521.357 169.285C523.393 171.86 526.072 174.505 527.621 176.453C540.949 176.105 550.815 171.025 554.382 166.135C553.042 159.941 553.321 154.477 550.223 148.457Z" fill="white"/>
<path d="M543.681 152.215C544.627 154.642 544.833 157.294 544.272 159.838C543.711 162.381 542.408 164.701 540.529 166.504C538.649 168.308 536.277 169.513 533.713 169.969C531.149 170.424 528.507 170.11 526.121 169.064C523.736 168.018 521.714 166.289 520.311 164.094C518.908 161.9 518.187 159.339 518.24 156.735C518.292 154.131 519.116 151.601 520.606 149.464C522.096 147.328 524.186 145.682 526.612 144.733C529.868 143.465 533.494 143.54 536.694 144.943C539.894 146.346 542.407 148.961 543.681 152.215Z" fill="#263238"/>
<path d="M656.659 309.024C656.467 303.299 656.206 303.804 656.05 298.984C655.945 296.026 655.928 292.737 655.91 289.901C655.905 288.554 655.434 287.251 654.578 286.211C653.722 285.171 652.533 284.459 651.212 284.194C648.916 283.724 646.601 283.289 644.252 282.802C641.242 282.158 638.267 281.462 635.326 280.61C633.029 279.948 630.767 279.218 628.523 278.4C626.278 277.582 623.755 276.66 621.424 275.581C618.674 274.415 615.96 273.162 613.28 271.857C610.27 270.431 607.295 268.934 604.319 267.42C592.87 248.472 592.627 235.979 580.342 221.328L553.964 233.264C553.964 233.264 573.347 267.647 586.537 282.228C594.14 290.615 606.059 294.408 616.691 297.157C624.364 299.123 632.142 300.637 639.92 302.081C642.947 302.638 646.236 302.847 648.846 304.656C650.777 306.137 652.101 308.272 652.57 310.659C652.686 311.147 652.79 311.634 652.883 312.121C653.213 313.583 656.781 312.469 656.659 309.024Z" fill="#5D5CD6"/>
<path opacity="0.8" d="M656.659 309.024C656.467 303.299 656.206 303.804 656.05 298.984C655.945 296.026 655.928 292.737 655.91 289.901C655.905 288.554 655.434 287.251 654.578 286.211C653.722 285.171 652.533 284.459 651.212 284.194C648.916 283.724 646.601 283.289 644.252 282.802C641.242 282.158 638.267 281.462 635.326 280.61C633.029 279.948 630.767 279.218 628.523 278.4C626.278 277.582 623.755 276.66 621.424 275.581C618.674 274.415 615.96 273.162 613.28 271.857C610.27 270.431 607.295 268.934 604.319 267.42C592.87 248.472 592.627 235.979 580.342 221.328L553.964 233.264C553.964 233.264 573.347 267.647 586.537 282.228C594.14 290.615 606.059 294.408 616.691 297.157C624.364 299.123 632.142 300.637 639.92 302.081C642.947 302.638 646.236 302.847 648.846 304.656C650.777 306.137 652.101 308.272 652.57 310.659C652.686 311.147 652.79 311.634 652.883 312.121C653.213 313.583 656.781 312.469 656.659 309.024Z" fill="white"/>
<path opacity="0.3" d="M643.278 282.576C642.234 282.35 641.19 282.124 640.129 281.863C640.216 287.883 637.397 298.253 636.37 301.403L639.676 302.029C641.843 295.761 643.057 289.204 643.278 282.576Z" fill="#5D5CD6"/>
<path opacity="0.3" d="M655.98 289.901C655.975 288.557 655.507 287.255 654.654 286.216C653.802 285.176 652.617 284.462 651.3 284.194L649.56 283.864C649.839 285.842 650.851 287.642 652.396 288.91C653.389 289.828 654.58 290.506 655.876 290.893C655.98 290.58 655.98 290.232 655.98 289.901Z" fill="#5D5CD6"/>
<path d="M541.227 152.32C541.923 154.965 538.965 157.731 536.616 155.452C534.424 153.101 532.024 150.952 529.447 149.031C527.029 147.517 530.248 144.872 534.058 145.899C535.684 146.308 537.187 147.106 538.436 148.224C539.685 149.343 540.643 150.748 541.227 152.32Z" fill="white"/>
<path d="M541.419 236.397C540.201 236.849 542.428 238.937 542.428 238.937C542.428 238.937 566.788 230.602 581.578 222.024C581.614 221.505 581.525 220.984 581.319 220.506C581.114 220.028 580.797 219.606 580.395 219.275C567.737 225.714 554.724 231.43 541.419 236.397Z" fill="#5D5CD6"/>
<path opacity="0.5" d="M541.419 236.397C540.201 236.849 542.428 238.937 542.428 238.937C542.428 238.937 566.788 230.602 581.578 222.024C581.614 221.505 581.525 220.984 581.319 220.506C581.114 220.028 580.797 219.606 580.395 219.275C567.737 225.714 554.724 231.43 541.419 236.397Z" fill="white"/>
<path d="M559.34 164.534C564.143 166.97 568.649 169.528 573.26 172.364C575.505 173.791 577.732 175.235 579.942 176.801C582.152 178.367 584.344 179.968 586.554 181.778L587.372 182.456L588.398 183.396C589.01 183.943 589.591 184.524 590.138 185.136C590.695 185.745 591.165 186.337 591.617 186.876C592.07 187.415 592.557 188.059 592.957 188.616C594.578 190.853 596.077 193.176 597.446 195.576C600.143 200.229 602.47 205.087 604.406 210.105C604.764 211.053 604.783 212.096 604.459 213.056C604.135 214.016 603.488 214.834 602.629 215.372C601.77 215.909 600.751 216.132 599.746 216.003C598.741 215.874 597.811 215.401 597.116 214.664L597.029 214.559C593.549 210.853 590.19 206.956 586.815 203.319C583.439 199.682 580.011 195.994 577.175 194.375C573.225 191.922 568.823 189.469 564.456 187.067L551.301 179.759C549.262 178.679 547.734 176.834 547.056 174.628C546.377 172.422 546.602 170.037 547.682 167.997C548.762 165.957 550.608 164.43 552.814 163.751C555.02 163.073 557.405 163.298 559.445 164.378L559.34 164.534Z" fill="#5D5CD6"/>
<path opacity="0.8" d="M559.34 164.534C564.143 166.97 568.649 169.528 573.26 172.364C575.505 173.791 577.732 175.235 579.942 176.801C582.152 178.367 584.344 179.968 586.554 181.778L587.372 182.456L588.398 183.396C589.01 183.943 589.591 184.524 590.138 185.136C590.695 185.745 591.165 186.337 591.617 186.876C592.07 187.415 592.557 188.059 592.957 188.616C594.578 190.853 596.077 193.176 597.446 195.576C600.143 200.229 602.47 205.087 604.406 210.105C604.764 211.053 604.783 212.096 604.459 213.056C604.135 214.016 603.488 214.834 602.629 215.372C601.77 215.909 600.751 216.132 599.746 216.003C598.741 215.874 597.811 215.401 597.116 214.664L597.029 214.559C593.549 210.853 590.19 206.956 586.815 203.319C583.439 199.682 580.011 195.994 577.175 194.375C573.225 191.922 568.823 189.469 564.456 187.067L551.301 179.759C549.262 178.679 547.734 176.834 547.056 174.628C546.377 172.422 546.602 170.037 547.682 167.997C548.762 165.957 550.608 164.43 552.814 163.751C555.02 163.073 557.405 163.298 559.445 164.378L559.34 164.534Z" fill="white"/>
<path d="M608.53 218.788L607.051 215.081C607.051 215.081 606.233 210.349 603.293 209.026L594.593 210.401L594.888 211.166C595.689 212.906 595.08 216.091 594.297 218.631C593.514 221.171 594.836 221.502 595.95 220.997C596.576 220.719 597.185 219.588 597.846 218.387C598.171 218.992 598.537 219.574 598.943 220.127L601.083 223.068C601.53 223.677 602.191 224.095 602.933 224.237C603.676 224.379 604.444 224.235 605.085 223.834L607.451 222.32C608.005 221.941 608.414 221.385 608.61 220.743C608.806 220.101 608.778 219.411 608.53 218.788Z" fill="#5D5CD6"/>
<path opacity="0.8" d="M608.53 218.788L607.051 215.081C607.051 215.081 606.233 210.349 603.293 209.026L594.593 210.401L594.888 211.166C595.689 212.906 595.08 216.091 594.297 218.631C593.514 221.171 594.836 221.502 595.95 220.997C596.576 220.719 597.185 219.588 597.846 218.387C598.171 218.992 598.537 219.574 598.943 220.127L601.083 223.068C601.53 223.677 602.191 224.095 602.933 224.237C603.676 224.379 604.444 224.235 605.085 223.834L607.451 222.32C608.005 221.941 608.414 221.385 608.61 220.743C608.806 220.101 608.778 219.411 608.53 218.788Z" fill="white"/>
<path opacity="0.3" d="M551.998 184.544L549.875 184.718L536.843 216.178C537.555 216.229 538.271 216.17 538.966 216.004C538.966 216.004 555.948 209.67 561.081 207.304C557.636 200.187 551.998 184.544 551.998 184.544Z" fill="#5D5CD6"/>
<path d="M528.212 192.792C529.795 201.016 532.736 208.919 536.912 216.178C543.28 213.985 553.894 209.844 559.045 207.478C555.583 200.056 552.511 192.46 549.84 184.719C544.394 185.084 532.44 189.66 528.212 192.792Z" fill="white"/>
<path opacity="0.3" d="M541.14 199.595C540.886 200.446 540.385 201.203 539.7 201.769C539.016 202.335 538.179 202.685 537.296 202.775C536.412 202.866 535.522 202.692 534.737 202.276C533.952 201.86 533.308 201.221 532.887 200.439C532.466 199.658 532.286 198.768 532.37 197.884C532.454 197 532.798 196.161 533.36 195.473C533.921 194.784 534.674 194.278 535.523 194.018C536.372 193.757 537.279 193.755 538.13 194.01C539.269 194.352 540.226 195.132 540.791 196.18C541.355 197.227 541.481 198.455 541.14 199.595Z" fill="#5D5CD6"/>
<path opacity="0.6" d="M544.463 193.61C544.395 193.9 544.241 194.163 544.021 194.365C543.801 194.566 543.525 194.696 543.23 194.738C542.935 194.78 542.634 194.731 542.367 194.599C542.099 194.466 541.878 194.256 541.733 193.996C541.587 193.736 541.523 193.438 541.55 193.141C541.577 192.844 541.693 192.562 541.883 192.332C542.073 192.102 542.328 191.934 542.614 191.852C542.901 191.77 543.206 191.776 543.489 191.87C543.841 191.982 544.138 192.225 544.319 192.548C544.5 192.871 544.551 193.25 544.463 193.61Z" fill="#5D5CD6"/>
<path opacity="0.6" d="M548.361 192.096C548.32 192.298 548.238 192.489 548.119 192.657C548 192.825 547.847 192.966 547.67 193.072C547.494 193.178 547.297 193.245 547.092 193.271C546.888 193.296 546.681 193.278 546.483 193.218C546.286 193.159 546.104 193.058 545.948 192.924C545.791 192.79 545.665 192.625 545.576 192.439C545.488 192.253 545.439 192.05 545.433 191.845C545.427 191.639 545.465 191.434 545.542 191.243C545.598 191.059 545.69 190.888 545.812 190.739C545.934 190.59 546.084 190.467 546.254 190.377C546.423 190.286 546.609 190.23 546.801 190.212C546.992 190.193 547.185 190.213 547.369 190.269C547.742 190.382 548.055 190.637 548.24 190.979C548.426 191.321 548.47 191.722 548.361 192.096Z" fill="#5D5CD6"/>
<path opacity="0.5" d="M553.824 205.651L537.729 212.002L536.772 208.835L552.85 202.484L553.824 205.651Z" fill="#5D5CD6"/>
<path opacity="0.2" d="M465.033 447.476C464.995 457.608 464.017 467.714 462.109 477.665C460.056 486.608 456.866 493.151 452.539 497.292C450.524 499.293 448.131 500.872 445.499 501.939C442.867 503.005 440.049 503.537 437.21 503.504C428.266 503.504 421.44 498.626 416.73 488.87C415.903 487.118 415.199 485.31 414.625 483.459C404.678 492.002 395.417 501.31 386.924 511.299L377.685 522.191C382.657 527.231 388.394 531.453 394.684 534.702C405.519 540.305 419.74 543.112 437.349 543.124C440.446 543.124 443.439 543.037 446.345 542.863C456.998 527.099 465.814 510.169 472.619 492.403L498.458 425.03L465.033 447.476Z" fill="black"/>
<path d="M232.099 539.4L262.549 569.85L347.809 489.514C318.42 478.291 261.278 510.151 232.099 539.4Z" fill="#263238"/>
<path d="M338.291 645.54C328.564 635.796 307.841 615.09 307.841 615.09L388.177 529.83C399.33 559.149 367.471 616.343 338.291 645.54Z" fill="#263238"/>
<path d="M454.835 453.618L488.052 389.569L424.003 422.82C403.43 433.49 384.434 446.958 367.557 462.84L258.372 565.622L312.016 619.266L414.798 510.081C430.688 493.2 444.162 474.198 454.835 453.618Z" fill="#5D5CD6"/>
<path opacity="0.6" d="M454.835 453.618L488.052 389.569L424.003 422.82C403.43 433.49 384.434 446.958 367.557 462.84L258.372 565.622L312.016 619.266L414.798 510.081C430.688 493.2 444.162 474.198 454.835 453.618Z" fill="white"/>
<path d="M386.628 513.439C399.024 513.439 409.074 503.39 409.074 490.993C409.074 478.597 399.024 468.547 386.628 468.547C374.231 468.547 364.182 478.597 364.182 490.993C364.182 503.39 374.231 513.439 386.628 513.439Z" fill="white"/>
<path d="M386.628 505.418C394.594 505.418 401.052 498.96 401.052 490.993C401.052 483.027 394.594 476.569 386.628 476.569C378.661 476.569 372.203 483.027 372.203 490.993C372.203 498.96 378.661 505.418 386.628 505.418Z" fill="#5D5CD6"/>
<path opacity="0.3" d="M330.164 599.987L277.634 547.456L320.647 506.984L370.637 556.991L330.164 599.987Z" fill="#5D5CD6"/>
<path d="M243.983 587.459C204.659 590.643 191.626 615.821 187.172 649.281C184.91 666.35 183.9 683.629 169.58 693.616C168.719 694.202 168.07 695.05 167.732 696.036C167.393 697.021 167.383 698.089 167.702 699.08C168.021 700.072 168.653 700.933 169.503 701.535C170.353 702.137 171.375 702.448 172.416 702.421C225.208 700.768 249.829 674.929 252.926 664.141C252.113 669.78 250.66 675.308 248.594 680.618C248.214 681.555 248.14 682.588 248.381 683.57C248.623 684.552 249.168 685.432 249.939 686.086C250.711 686.74 251.669 687.133 252.677 687.211C253.685 687.288 254.692 687.045 255.554 686.517C270.361 677.243 288.944 660.156 290.18 632.438C279.287 617.004 243.983 587.459 243.983 587.459Z" fill="#5D5CD6"/>
<path opacity="0.2" d="M243.983 587.459C204.659 590.643 191.626 615.821 187.172 649.281C184.91 666.35 183.9 683.629 169.58 693.616C168.719 694.202 168.07 695.05 167.732 696.036C167.393 697.021 167.383 698.089 167.702 699.08C168.021 700.072 168.653 700.933 169.503 701.535C170.353 702.137 171.375 702.448 172.416 702.421C225.208 700.768 249.829 674.929 252.926 664.141C252.113 669.78 250.66 675.308 248.594 680.618C248.214 681.555 248.14 682.588 248.381 683.57C248.623 684.552 249.168 685.432 249.939 686.086C250.711 686.74 251.669 687.133 252.677 687.211C253.685 687.288 254.692 687.045 255.554 686.517C270.361 677.243 288.944 660.156 290.18 632.438C279.287 617.004 243.983 587.459 243.983 587.459Z" fill="white"/>
<path d="M296.287 644.322L233.299 581.334L266.846 574.078L303.543 610.775L296.287 644.322Z" fill="#5D5CD6"/>
</svg>
