<svg width="272" height="125" viewBox="0 0 272 125" fill="none" xmlns="http://www.w3.org/2000/svg">
<path d="M271.5 0.391623L261.46 6.094L271.418 11.9383L271.5 0.391623ZM126.5 31.8917L126.277 32.8665L126.5 31.8917ZM62.0005 122.892L61.7966 121.913L62.0005 122.892ZM-61.9996 69.3917C-62.5845 70.2028 -62.5844 70.2028 -62.5844 70.2028C-62.5844 70.2028 -62.5844 70.2028 -62.5844 70.2028C-62.5843 70.2029 -62.5842 70.2029 -62.5842 70.203C-62.584 70.2031 -62.5838 70.2033 -62.5835 70.2035C-62.5829 70.2039 -62.582 70.2045 -62.5809 70.2054C-62.5786 70.207 -62.5753 70.2094 -62.5709 70.2125C-62.5622 70.2188 -62.5493 70.2281 -62.5322 70.2403C-62.498 70.2649 -62.4472 70.3013 -62.3802 70.3493C-62.246 70.4452 -62.0468 70.5872 -61.7855 70.7724C-61.2629 71.1427 -60.4919 71.6857 -59.4963 72.3777L-58.3548 70.7355C-59.3452 70.0471 -60.1112 69.5076 -60.6291 69.1406C-60.888 68.9571 -61.085 68.8167 -61.2169 68.7224C-61.2828 68.6752 -61.3326 68.6396 -61.3656 68.6158C-61.3822 68.6039 -61.3946 68.595 -61.4028 68.5891C-61.4069 68.5862 -61.4099 68.584 -61.4119 68.5826C-61.4129 68.5818 -61.4136 68.5813 -61.4141 68.581C-61.4143 68.5808 -61.4145 68.5807 -61.4146 68.5806C-61.4146 68.5806 -61.4146 68.5806 -61.4147 68.5805C-61.4147 68.5805 -61.4147 68.5805 -61.4147 68.5805C-61.4147 68.5805 -61.4147 68.5805 -61.9996 69.3917ZM-53.1654 76.6965C-51.2699 77.9677 -49.1268 79.3867 -46.7724 80.9175L-45.6822 79.2408C-48.0281 77.7155 -50.1632 76.3017 -52.0515 75.0354L-53.1654 76.6965ZM-40.319 85.0502C-38.2477 86.3565 -36.0691 87.711 -33.7998 89.0974L-32.7572 87.3908C-35.0179 86.0096 -37.1884 84.66 -39.2521 83.3585L-40.319 85.0502ZM-27.2508 93.0323C-25.0963 94.3048 -22.8821 95.5905 -20.6198 96.8777L-19.6307 95.1394C-21.883 93.8578 -24.0879 92.5776 -26.2337 91.3103L-27.2508 93.0323ZM-13.9309 100.607C-11.7082 101.82 -9.45229 103.025 -7.17306 104.211L-6.24972 102.437C-8.51652 101.257 -10.7608 100.059 -12.9727 98.8516L-13.9309 100.607ZM-0.335659 107.675C1.96129 108.806 4.27176 109.909 6.58605 110.975L7.42277 109.159C5.12525 108.1 2.83037 107.005 0.547723 105.881L-0.335659 107.675ZM13.6024 114.082C15.9816 115.091 18.355 116.051 20.712 116.95L21.4251 115.082C19.0929 114.192 16.7422 113.241 14.3835 112.241L13.6024 114.082ZM27.9642 119.538C30.4535 120.36 32.9124 121.1 35.3274 121.745L35.8432 119.813C33.4697 119.179 31.0481 118.45 28.5915 117.639L27.9642 119.538ZM42.8658 123.461C45.4998 123.947 48.0619 124.292 50.5315 124.472L50.677 122.477C48.2906 122.303 45.8019 121.969 43.2291 121.494L42.8658 123.461ZM58.3143 124.444C59.6514 124.321 60.9496 124.132 62.2043 123.871L61.7966 121.913C60.6225 122.157 59.3997 122.336 58.1316 122.452L58.3143 124.444ZM62.2043 123.871C63.5656 123.587 64.8675 123.244 66.1128 122.843L65.5003 120.939C64.3246 121.317 63.0912 121.643 61.7966 121.913L62.2043 123.871ZM73.4306 119.475C75.7713 118.016 77.833 116.297 79.6559 114.365L78.2015 112.993C76.49 114.806 74.5601 116.414 72.3725 117.778L73.4306 119.475ZM84.4715 107.947C85.8191 105.699 86.9782 103.297 87.9886 100.788L86.1333 100.041C85.1554 102.47 84.0412 104.774 82.7561 106.918L84.4715 107.947ZM90.5299 93.2724C91.2418 90.7661 91.8583 88.1966 92.4103 85.5991L90.454 85.1833C89.909 87.7479 89.3029 90.2725 88.606 92.7259L90.5299 93.2724ZM93.8842 77.869C94.3342 75.2774 94.7519 72.6851 95.1654 70.1313L93.1911 69.8117C92.7771 72.3688 92.3614 74.9488 91.9137 77.5268L93.8842 77.869ZM96.4576 62.4181C96.928 59.7808 97.428 57.2256 97.994 54.7883L96.0458 54.3359C95.4693 56.8185 94.9625 59.4101 94.4887 62.067L96.4576 62.4181ZM100.1 47.3632C100.999 44.8021 102.041 42.4897 103.283 40.4816L101.583 39.4295C100.245 41.5921 99.1454 44.0439 98.2131 46.701L100.1 47.3632ZM108.236 34.9959C110.131 33.6316 112.354 32.6767 115.002 32.2232L114.664 30.2519C111.727 30.7551 109.217 31.8248 107.067 33.3729L108.236 34.9959ZM122.49 32.1806C123.689 32.3357 124.95 32.5628 126.277 32.8665L126.724 30.9169C125.339 30.6001 124.014 30.3611 122.747 30.1971L122.49 32.1806ZM126.277 32.8665C127.602 33.1695 128.915 33.4618 130.216 33.7436L130.639 31.7889C129.345 31.5088 128.04 31.2182 126.724 30.9169L126.277 32.8665ZM137.937 35.3182C140.595 35.8264 143.204 36.2894 145.764 36.7089L146.087 34.7353C143.545 34.3186 140.954 33.8587 138.312 33.3538L137.937 35.3182ZM153.635 37.8849C156.319 38.2461 158.945 38.5579 161.516 38.823L161.721 36.8335C159.171 36.5706 156.565 36.2612 153.902 35.9028L153.635 37.8849ZM169.414 39.5047C172.12 39.6916 174.759 39.8247 177.333 39.9074L177.397 37.9084C174.848 37.8265 172.234 37.6947 169.552 37.5094L169.414 39.5047ZM185.27 40.0044C187.998 39.9817 190.646 39.9003 193.216 39.7648L193.111 37.7675C190.57 37.9015 187.952 37.9821 185.254 38.0044L185.27 40.0044ZM201.152 39.1545C203.88 38.8763 206.512 38.535 209.05 38.1371L208.74 36.1612C206.238 36.5534 203.642 36.8902 200.949 37.1648L201.152 39.1545ZM216.87 36.6762C219.551 36.091 222.113 35.4411 224.561 34.7367L224.008 32.8147C221.603 33.5069 219.082 34.1461 216.443 34.7221L216.87 36.6762ZM232.177 32.2476C234.776 31.2908 237.221 30.2738 239.522 29.2131L238.685 27.3968C236.432 28.4354 234.035 29.4322 231.486 30.3708L232.177 32.2476ZM246.648 25.547C249.103 24.1426 251.349 22.7002 253.398 21.2515L252.244 19.6184C250.246 21.0308 248.054 22.4388 245.655 23.811L246.648 25.547ZM259.678 16.307C261.918 14.3403 263.814 12.4313 265.401 10.6642L263.914 9.32755C262.376 11.0386 260.537 12.8916 258.358 14.8039L259.678 16.307Z" fill="#5D5CD6"/>
</svg>
