<svg width="288" height="329" viewBox="0 0 288 329" fill="none" xmlns="http://www.w3.org/2000/svg">
<path d="M-44.457 227.211L-43.0895 226.152L-44.6895 225.495L-132.912 189.281L-87.0439 77.3066L1.21481 113.433L2.81617 114.088L2.58463 112.374L-10.1787 17.8455L109.706 1.59882L122.562 96.1143L122.795 97.8289L124.164 96.7708L199.624 38.4577L273.64 134.185L198.238 192.574L196.87 193.633L198.47 194.29L286.693 230.504L240.825 342.478L152.567 306.352L150.965 305.697L151.197 307.412L163.96 401.939L44.0751 418.186L31.2194 323.671L30.9862 321.956L29.6171 323.014L-45.8433 381.327L-119.859 285.6L-44.457 227.211Z" stroke="#D0D0D0" stroke-width="2"/>
</svg>
