<svg width="106" height="87" viewBox="0 0 106 87" fill="none" xmlns="http://www.w3.org/2000/svg">
<circle cx="1" cy="1" r="1" fill="#5D5CD6" fill-opacity="0.45"/>
<circle cx="13" cy="1" r="1" fill="#5D5CD6" fill-opacity="0.45"/>
<circle cx="25" cy="1" r="1" fill="#5D5CD6" fill-opacity="0.45"/>
<circle cx="37" cy="1" r="1" fill="#5D5CD6" fill-opacity="0.45"/>
<circle cx="49" cy="1" r="1" fill="#5D5CD6" fill-opacity="0.45"/>
<circle cx="61" cy="1" r="1" fill="#5D5CD6" fill-opacity="0.45"/>
<circle cx="73" cy="1" r="1" fill="#5D5CD6" fill-opacity="0.45"/>
<circle cx="85" cy="1" r="1" fill="#5D5CD6" fill-opacity="0.45"/>
<circle cx="97" cy="1" r="1" fill="#5D5CD6" fill-opacity="0.45"/>
<circle cx="1" cy="15" r="1" fill="#5D5CD6" fill-opacity="0.45"/>
<circle cx="13" cy="15" r="1" fill="#5D5CD6" fill-opacity="0.45"/>
<circle cx="25" cy="15" r="1" fill="#5D5CD6" fill-opacity="0.45"/>
<circle cx="37" cy="15" r="1" fill="#5D5CD6" fill-opacity="0.45"/>
<circle cx="49" cy="15" r="1" fill="#5D5CD6" fill-opacity="0.45"/>
<circle cx="61" cy="15" r="1" fill="#5D5CD6" fill-opacity="0.45"/>
<circle cx="73" cy="15" r="1" fill="#5D5CD6" fill-opacity="0.45"/>
<circle cx="85" cy="15" r="1" fill="#5D5CD6" fill-opacity="0.45"/>
<circle cx="97" cy="15" r="1" fill="#5D5CD6" fill-opacity="0.45"/>
<circle cx="1" cy="29" r="1" fill="#5D5CD6" fill-opacity="0.45"/>
<circle cx="13" cy="29" r="1" fill="#5D5CD6" fill-opacity="0.45"/>
<circle cx="25" cy="29" r="1" fill="#5D5CD6" fill-opacity="0.45"/>
<circle cx="37" cy="29" r="1" fill="#5D5CD6" fill-opacity="0.45"/>
<circle cx="49" cy="29" r="1" fill="#5D5CD6" fill-opacity="0.45"/>
<circle cx="61" cy="29" r="1" fill="#5D5CD6" fill-opacity="0.45"/>
<circle cx="73" cy="29" r="1" fill="#5D5CD6" fill-opacity="0.45"/>
<circle cx="85" cy="29" r="1" fill="#5D5CD6" fill-opacity="0.45"/>
<circle cx="97" cy="29" r="1" fill="#5D5CD6" fill-opacity="0.45"/>
<circle cx="1" cy="43" r="1" fill="#5D5CD6" fill-opacity="0.45"/>
<circle cx="13" cy="43" r="1" fill="#5D5CD6" fill-opacity="0.45"/>
<circle cx="25" cy="43" r="1" fill="#5D5CD6" fill-opacity="0.45"/>
<circle cx="37" cy="43" r="1" fill="#5D5CD6" fill-opacity="0.45"/>
<circle cx="49" cy="43" r="1" fill="#5D5CD6" fill-opacity="0.45"/>
<circle cx="61" cy="43" r="1" fill="#5D5CD6" fill-opacity="0.45"/>
<circle cx="73" cy="43" r="1" fill="#5D5CD6" fill-opacity="0.45"/>
<circle cx="85" cy="43" r="1" fill="#5D5CD6" fill-opacity="0.45"/>
<circle cx="97" cy="43" r="1" fill="#5D5CD6" fill-opacity="0.45"/>
<circle cx="1" cy="57" r="1" fill="#5D5CD6" fill-opacity="0.45"/>
<circle cx="13" cy="57" r="1" fill="#5D5CD6" fill-opacity="0.45"/>
<circle cx="25" cy="57" r="1" fill="#5D5CD6" fill-opacity="0.45"/>
<circle cx="37" cy="57" r="1" fill="#5D5CD6" fill-opacity="0.45"/>
<circle cx="49" cy="57" r="1" fill="#5D5CD6" fill-opacity="0.45"/>
<circle cx="61" cy="57" r="1" fill="#5D5CD6" fill-opacity="0.45"/>
<circle cx="73" cy="57" r="1" fill="#5D5CD6" fill-opacity="0.45"/>
<circle cx="85" cy="57" r="1" fill="#5D5CD6" fill-opacity="0.45"/>
<circle cx="97" cy="57" r="1" fill="#5D5CD6" fill-opacity="0.45"/>
<circle cx="1" cy="71" r="1" fill="#5D5CD6" fill-opacity="0.45"/>
<circle cx="13" cy="71" r="1" fill="#5D5CD6" fill-opacity="0.45"/>
<circle cx="25" cy="71" r="1" fill="#5D5CD6" fill-opacity="0.45"/>
<circle cx="37" cy="71" r="1" fill="#5D5CD6" fill-opacity="0.45"/>
<circle cx="49" cy="71" r="1" fill="#5D5CD6" fill-opacity="0.45"/>
<circle cx="61" cy="71" r="1" fill="#5D5CD6" fill-opacity="0.45"/>
<circle cx="73" cy="71" r="1" fill="#5D5CD6" fill-opacity="0.45"/>
<circle cx="85" cy="71" r="1" fill="#5D5CD6" fill-opacity="0.45"/>
<circle cx="97" cy="71" r="1" fill="#5D5CD6" fill-opacity="0.45"/>
<circle cx="1" cy="85" r="1" fill="#5D5CD6" fill-opacity="0.45"/>
<circle cx="13" cy="85" r="1" fill="#5D5CD6" fill-opacity="0.45"/>
<circle cx="25" cy="85" r="1" fill="#5D5CD6" fill-opacity="0.45"/>
<circle cx="37" cy="85" r="1" fill="#5D5CD6" fill-opacity="0.45"/>
<circle cx="49" cy="85" r="1" fill="#5D5CD6" fill-opacity="0.45"/>
<circle cx="61" cy="85" r="1" fill="#5D5CD6" fill-opacity="0.45"/>
<circle cx="73" cy="85" r="1" fill="#5D5CD6" fill-opacity="0.45"/>
<circle cx="85" cy="85" r="1" fill="#5D5CD6" fill-opacity="0.45"/>
<circle cx="97" cy="85" r="1" fill="#5D5CD6" fill-opacity="0.45"/>
</svg>
