<svg width="146" height="146" viewBox="0 0 146 146" fill="none" xmlns="http://www.w3.org/2000/svg">
<rect x="29" y="26" width="76" height="76" rx="16" fill="#5B5AD1"/>
<g filter="url(#filter0_f_1_5065)">
<rect x="35" y="35" width="76" height="76" rx="16" fill="#5B5AD1" fill-opacity="0.15"/>
</g>
<g clip-path="url(#clip0_1_5065)">
<path d="M77.5519 43.0613L74.0996 43.7951L74.8335 47.2474C74.9802 47.9378 74.5027 48.5204 73.9273 48.6427C73.3519 48.765 72.6787 48.427 72.5319 47.7366L71.7981 44.2843L53.3859 48.1979L54.1197 51.6502C54.2665 52.3407 53.789 52.9233 53.2136 53.0456C52.6382 53.1679 51.965 52.8299 51.8182 52.1394L51.0844 48.6871L47.6321 49.4209C45.906 49.7878 44.9581 51.5529 45.3739 53.5092L46.2545 57.6519L83.0789 49.8246L82.1983 45.6819C81.7825 43.7256 79.3932 42.6699 77.5519 43.0613ZM46.7682 60.0685L51.2444 81.1275C51.6847 83.1988 53.244 84.3107 55.0853 83.9193L85.0051 77.5597C86.8463 77.1683 88.5997 75.232 88.1839 73.2757L83.7076 52.2168L46.7682 60.0685ZM61.1193 77.2244L58.3574 77.8114C57.8971 77.9092 57.3635 77.6619 57.2411 77.0865L56.6296 74.2096C56.5318 73.7493 56.7792 73.2156 57.3546 73.0933L60.2315 72.4818C60.6918 72.3839 61.2255 72.6313 61.3478 73.2067L61.9593 76.0836C61.9665 76.6834 61.6947 77.1021 61.1193 77.2244ZM58.9179 66.8675L56.156 67.4545C55.6957 67.5524 55.162 67.305 55.0397 66.7296L54.4282 63.8527C54.3304 63.3924 54.5778 62.8587 55.1532 62.7364L58.0301 62.1249C58.4904 62.0271 59.0241 62.2745 59.1464 62.8498L59.7579 65.7267C59.7651 66.3266 59.4932 66.7452 58.9179 66.8675ZM70.3254 75.2675L67.4485 75.879C66.9882 75.9769 66.4545 75.7295 66.3322 75.1541L65.7207 72.2772C65.6228 71.8169 65.8702 71.2832 66.4456 71.1609L69.3225 70.5494C69.7828 70.4516 70.3165 70.699 70.4388 71.2743L71.0503 74.1512C71.1726 74.7266 70.9007 75.1452 70.3254 75.2675ZM68.1239 64.9107L65.247 65.5222C64.7867 65.62 64.2531 65.3726 64.1308 64.7973L63.5192 61.9204C63.4214 61.46 63.6688 60.9264 64.2442 60.8041L67.1211 60.1926C67.5814 60.0947 68.1151 60.3421 68.2374 60.9175L68.8489 63.7944C68.9712 64.3698 68.6993 64.7884 68.1239 64.9107ZM79.5315 73.3107L76.6546 73.9222C76.1943 74.0201 75.6606 73.7727 75.5383 73.1973L74.9268 70.3204C74.8289 69.8601 75.0763 69.3264 75.6517 69.2041L78.5286 68.5926C78.9889 68.4948 79.5226 68.7421 79.6449 69.3175L80.2564 72.1944C80.3787 72.7698 80.1068 73.1884 79.5315 73.3107ZM77.33 62.9539L74.4531 63.5654C73.9928 63.6632 73.4592 63.4158 73.3369 62.8404L72.7253 59.9635C72.6275 59.5032 72.8749 58.9695 73.4503 58.8472L76.3272 58.2357C76.7875 58.1379 77.3212 58.3853 77.4435 58.9607L78.055 61.8376C78.1773 62.413 77.9054 62.8316 77.33 62.9539Z" fill="white"/>
</g>
<defs>
<filter id="filter0_f_1_5065" x="0" y="0" width="146" height="146" filterUnits="userSpaceOnUse" color-interpolation-filters="sRGB">
<feFlood flood-opacity="0" result="BackgroundImageFix"/>
<feBlend mode="normal" in="SourceGraphic" in2="BackgroundImageFix" result="shape"/>
<feGaussianBlur stdDeviation="17.5" result="effect1_foregroundBlur_1_5065"/>
</filter>
<clipPath id="clip0_1_5065">
<rect width="40" height="40" fill="white" transform="translate(43 48) rotate(-12)"/>
</clipPath>
</defs>
</svg>
