<svg width="156" height="156" viewBox="0 0 156 156" fill="none" xmlns="http://www.w3.org/2000/svg">
<rect x="34" y="33" width="76" height="76" rx="16" fill="#5B5AD1"/>
<g filter="url(#filter0_f_1_5095)">
<rect x="40" y="40" width="76" height="76" rx="16" fill="#5B5AD1" fill-opacity="0.15"/>
</g>
<g clip-path="url(#clip0_1_5095)">
<path d="M84.2565 76.7409C80.2042 78.1207 75.8466 75.6994 74.8779 71.5297L72 59.7875L77.9067 57.7763L83.8133 55.7651L88.699 66.8237C90.4761 70.7182 88.5015 75.2956 84.4491 76.6753L84.2565 76.7409Z" fill="#E6E7E8"/>
<path d="M88.699 66.8235L83.8133 55.765L81.3978 56.5875L85.9202 66.8235C87.6972 70.718 85.7227 75.2954 81.6703 76.6753L81.4776 76.7408C81.1642 76.8476 80.849 76.9313 80.5337 76.9937C81.7317 77.2298 83.0085 77.1659 84.2565 76.7408L84.4492 76.6753C88.5015 75.2954 90.476 70.718 88.699 66.8235Z" fill="white"/>
<path d="M59.7434 76.7408C63.7957 78.1206 68.1533 75.6993 69.122 71.5297L71.9999 59.7874L66.0933 57.7762L60.1867 55.765L55.3011 66.8235C53.524 70.7181 55.4985 75.2954 59.5509 76.6752L59.7434 76.7408Z" fill="#E6E7E8"/>
<path d="M69.4263 58.9111L66.3433 71.5298C65.6729 74.4153 63.3795 76.463 60.6875 76.9937C64.4496 77.7356 68.2284 75.377 69.1222 71.5298L72 59.7875L69.4263 58.9111Z" fill="white"/>
<path d="M74.878 71.5295C75.8467 75.6992 80.2044 78.1205 84.2566 76.7407L84.4493 76.6752C88.5015 75.2954 90.4761 70.718 88.6991 66.8236L88.6939 66.8115H73.7217L74.878 71.5295Z" fill="white"/>
<path d="M88.699 66.8236L88.6936 66.8115H85.9147L85.9201 66.8236C87.6972 70.718 85.7226 75.2954 81.6702 76.6752V76.6753L81.4775 76.7408C81.1642 76.8476 80.8489 76.9313 80.5337 76.9936C81.7317 77.2298 83.0085 77.1659 84.2564 76.7408L84.4491 76.6753V76.6752C88.5015 75.2954 90.4761 70.718 88.699 66.8236Z" fill="white"/>
<path d="M55.3063 66.8115L55.301 66.8235C53.524 70.7179 55.4985 75.2954 59.5509 76.6751L59.7436 76.7407C63.7958 78.1204 68.1535 75.6992 69.1222 71.5295L70.2785 66.8114H55.3063V66.8115Z" fill="white"/>
<path d="M67.4994 66.8115L66.3431 71.5296C65.6727 74.4151 63.3793 76.4629 60.6873 76.9935C64.4493 77.7355 68.2282 75.3768 69.1221 71.5296L70.2784 66.8115H67.4994Z" fill="white"/>
<path d="M93.7442 89.4444C93.6206 89.0812 93.2261 88.8872 92.8627 89.0106L89.6833 90.0932L85.1924 77.1326C85.406 77.0426 85.6158 76.9457 85.8194 76.8381C86.0636 76.7089 86.3002 76.5675 86.5287 76.4144C86.6429 76.3379 86.7549 76.2584 86.8649 76.1762C87.9642 75.3536 88.8444 74.2508 89.3981 72.9674C90.284 70.914 90.2595 68.5695 89.3346 66.5427L84.4488 55.4842C84.3033 55.1548 83.9303 54.9909 83.5893 55.1073L72 59.0536L60.4106 55.1073C60.0695 54.991 59.6967 55.1548 59.5512 55.4842L54.6715 66.5293C54.6714 66.5294 54.6714 66.5296 54.6713 66.5298L54.669 66.5352C54.2048 67.5524 53.9665 68.6472 53.9552 69.7444C53.9437 70.8416 54.159 71.941 54.602 72.9677C55.414 74.85 56.93 76.3418 58.8076 77.1328L54.3167 90.0933L51.1374 89.0108C50.7743 88.8873 50.3795 89.0813 50.2558 89.4446C50.1321 89.8078 50.3263 90.2025 50.6895 90.3261L54.5185 91.6298C54.5188 91.6299 54.5192 91.6301 54.5195 91.6302C54.5198 91.6303 54.52 91.6303 54.5203 91.6304L58.4333 92.9627C58.5074 92.9879 58.583 92.9999 58.6572 92.9999C58.9464 92.9999 59.2164 92.8179 59.3148 92.5289C59.4386 92.1657 59.2444 91.771 58.8811 91.6473L55.6321 90.5411L60.1242 77.5771C60.7645 77.7396 61.4192 77.8204 62.0725 77.8204C63.3246 77.8204 64.5715 77.5248 65.702 76.9436C65.7774 76.9048 65.8523 76.8649 65.9266 76.8235C66.4153 76.552 66.87 76.2313 67.2851 75.8692C68.5303 74.7826 69.4188 73.3226 69.7969 71.695L71.9999 62.7058L73.0465 66.9763C73.0466 66.9765 73.0466 66.9767 73.0466 66.9768L74.201 71.6867C74.7071 73.8651 76.1184 75.7373 78.0733 76.8235C79.2576 77.4815 80.5814 77.8176 81.9118 77.8201C81.917 77.8201 81.9222 77.8203 81.9274 77.8203C82.5806 77.8203 83.2353 77.7394 83.8757 77.577L88.3678 90.541L85.1189 91.6472C84.7558 91.7709 84.5615 92.1656 84.6852 92.5288C84.7837 92.8178 85.0536 92.9998 85.3428 92.9998C85.417 92.9998 85.4926 92.9878 85.5668 92.9626L89.4798 91.6302C89.48 91.6301 89.4804 91.6301 89.4805 91.6301C89.4809 91.63 89.4812 91.6298 89.4816 91.6296L93.3105 90.326C93.6738 90.2024 93.8679 89.8077 93.7442 89.4444ZM69.7334 66.1168H61.0749C60.6912 66.1168 60.3802 66.4277 60.3802 66.8115C60.3802 67.1953 60.6913 67.5062 61.0749 67.5062H69.3929L68.4453 71.3723C68.0801 72.9442 67.1432 74.323 65.8346 75.2433C65.6477 75.3748 65.4532 75.4969 65.2516 75.6088C64.244 76.1687 63.1138 76.4462 61.9816 76.4305C61.3022 76.421 60.6221 76.3059 59.9673 76.083H59.9673L59.9136 76.0648C59.9134 76.0647 59.9132 76.0646 59.9129 76.0645C59.9126 76.0645 59.9122 76.0644 59.9119 76.0643L59.7745 76.0175C59.5562 75.9433 59.3431 75.8577 59.1357 75.7616C58.8626 75.6351 58.6009 75.4886 58.3496 75.327C58.2754 75.2793 58.2023 75.23 58.1301 75.1795C57.7385 74.9046 57.3783 74.5881 57.0559 74.2353C56.5696 73.7033 56.1682 73.0911 55.8775 72.4172C55.8753 72.4123 55.8736 72.4072 55.8715 72.4022C55.83 72.3055 55.7909 72.2078 55.7543 72.1095C55.7409 72.0736 55.7293 72.0372 55.7166 72.0012C55.6927 71.9333 55.6688 71.8653 55.6471 71.7967C55.6337 71.7542 55.622 71.7112 55.6095 71.6684C55.591 71.6056 55.5726 71.5428 55.5561 71.4795C55.5443 71.4342 55.5339 71.3888 55.5231 71.3432C55.5086 71.2819 55.4941 71.2206 55.4813 71.159C55.4716 71.1122 55.4631 71.0652 55.4543 71.0183C55.4432 70.9575 55.4324 70.8967 55.4229 70.8356C55.4155 70.788 55.4089 70.7403 55.4026 70.6926C55.3945 70.6317 55.3871 70.5706 55.3808 70.5095C55.3758 70.4618 55.3713 70.4141 55.3674 70.3661C55.3623 70.3044 55.3583 70.2427 55.355 70.1809C55.3525 70.1337 55.3501 70.0865 55.3486 70.0392C55.3465 69.9762 55.346 69.9131 55.3457 69.8501C55.3455 69.804 55.3452 69.758 55.346 69.712C55.3472 69.6466 55.35 69.5814 55.3532 69.5162C55.3553 69.4725 55.3568 69.4289 55.3598 69.3852C55.3645 69.3154 55.3714 69.2457 55.3785 69.176C55.3823 69.137 55.3853 69.0982 55.3899 69.0594C55.3995 68.9773 55.4117 68.8955 55.4245 68.8138C55.4286 68.7875 55.4317 68.7611 55.4361 68.7349C55.4546 68.6259 55.4756 68.5173 55.4995 68.4091C55.5015 68.4003 55.504 68.3916 55.5059 68.3829C55.5281 68.2846 55.5523 68.1867 55.5791 68.0894C55.5882 68.0562 55.599 68.0235 55.6086 67.9905C55.6298 67.9178 55.6512 67.8452 55.675 67.7731C55.6881 67.7336 55.7026 67.6944 55.7165 67.655C55.7341 67.6053 55.752 67.5556 55.7708 67.5062H58.2962C58.6799 67.5062 58.9909 67.1953 58.9909 66.8115C58.9909 66.4277 58.6798 66.1168 58.2962 66.1168H56.3729L60.5652 56.6277L71.1739 60.2399L69.7334 66.1168ZM83.4349 56.6277L87.6273 66.1168H85.0229C84.6392 66.1168 84.3282 66.4277 84.3282 66.8115C84.3282 67.1953 84.6393 67.5062 85.0229 67.5062H88.2299C88.2484 67.5548 88.2658 67.6036 88.2831 67.6525C88.2978 67.6942 88.3132 67.7357 88.3271 67.7777C88.3497 67.8463 88.37 67.9155 88.3902 67.9847C88.4008 68.0208 88.4126 68.0567 88.4225 68.093C88.4491 68.1902 88.4733 68.288 88.4953 68.386C88.4973 68.3946 88.4998 68.403 88.5016 68.4117C88.5252 68.5185 88.5459 68.6259 88.5641 68.7336C88.5699 68.7679 88.574 68.8026 88.5793 68.837C88.5905 68.9105 88.6016 68.984 88.6103 69.0578C88.6153 69.1002 88.6186 69.1425 88.6227 69.1849C88.6291 69.2511 88.6358 69.3172 88.6402 69.3835C88.6433 69.4291 88.645 69.4749 88.6471 69.5205C88.6501 69.5837 88.6529 69.647 88.654 69.7103C88.6548 69.7576 88.6544 69.8047 88.6542 69.852C88.654 69.9139 88.6534 69.9758 88.6514 70.0377C88.6499 70.0856 88.6474 70.1336 88.6448 70.1814C88.6414 70.2426 88.6375 70.3039 88.6325 70.365C88.6285 70.413 88.6241 70.461 88.6191 70.5089C88.6127 70.57 88.6053 70.6311 88.5973 70.692C88.591 70.7396 88.5844 70.7871 88.577 70.8346C88.5674 70.896 88.5566 70.9572 88.5453 71.0182C88.5367 71.0649 88.5282 71.1115 88.5185 71.158C88.5056 71.2202 88.491 71.282 88.4763 71.3437C88.4656 71.3888 88.4554 71.4338 88.4438 71.4786C88.4271 71.5427 88.4084 71.6064 88.3896 71.6701C88.3774 71.712 88.3659 71.7539 88.3529 71.7957C88.3307 71.8658 88.3063 71.9353 88.2817 72.0049C88.2695 72.0395 88.2584 72.0743 88.2457 72.1088C88.2072 72.2123 88.1662 72.3153 88.1222 72.4172C88.0706 72.5366 88.0148 72.6538 87.9565 72.7694C87.4153 73.8425 86.5886 74.7408 85.5796 75.3716C85.446 75.4552 85.3104 75.5357 85.1707 75.6096C84.8686 75.7693 84.5527 75.906 84.2254 76.0175L84.0876 76.0644C84.0874 76.0645 84.0872 76.0645 84.0869 76.0645C84.0867 76.0646 84.0866 76.0646 84.0865 76.0647L84.0326 76.083C82.2867 76.6775 80.3606 76.5048 78.7484 75.6088C77.1361 74.713 75.972 73.1688 75.5527 71.3641L74.6072 67.5062H82.244C82.6277 67.5062 82.9387 67.1953 82.9387 66.8115C82.9387 66.4277 82.6276 66.1168 82.244 66.1168H74.2667L72.8264 60.2399L83.4349 56.6277Z" fill="white"/>
<path d="M71.9999 53.0377C71.6162 53.0377 71.3052 52.7266 71.3052 52.343V49.6947C71.3052 49.3109 71.6163 49 71.9999 49C72.3836 49 72.6946 49.3109 72.6946 49.6947V52.343C72.6946 52.7267 72.3836 53.0377 71.9999 53.0377Z" fill="white"/>
<path d="M75.2319 54.3618C75.0353 54.3618 74.8398 54.2788 74.7024 54.117C74.4538 53.8248 74.4893 53.3863 74.7816 53.1378L76.9874 51.262C77.2797 51.0136 77.7181 51.0488 77.9666 51.3414C78.2153 51.6336 78.1798 52.0721 77.8875 52.3206L75.6817 54.1964C75.551 54.3074 75.3911 54.3618 75.2319 54.3618Z" fill="white"/>
<path d="M68.7678 54.3619C68.6087 54.3619 68.4488 54.3075 68.3181 54.1964L66.1124 52.3207C65.8201 52.072 65.7846 51.6336 66.0332 51.3414C66.2818 51.0491 66.7203 51.0139 67.0125 51.2621L69.2182 53.1378C69.5105 53.3865 69.546 53.8249 69.2975 54.1171C69.16 54.2787 68.9645 54.3619 68.7678 54.3619Z" fill="white"/>
</g>
<defs>
<filter id="filter0_f_1_5095" x="0" y="0" width="156" height="156" filterUnits="userSpaceOnUse" color-interpolation-filters="sRGB">
<feFlood flood-opacity="0" result="BackgroundImageFix"/>
<feBlend mode="normal" in="SourceGraphic" in2="BackgroundImageFix" result="shape"/>
<feGaussianBlur stdDeviation="20" result="effect1_foregroundBlur_1_5095"/>
</filter>
<clipPath id="clip0_1_5095">
<rect width="44" height="44" fill="white" transform="translate(50 49)"/>
</clipPath>
</defs>
</svg>
