<svg width="156" height="156" viewBox="0 0 156 156" fill="none" xmlns="http://www.w3.org/2000/svg">
<g filter="url(#filter0_f_1_5076)">
<rect x="40" y="40" width="76" height="76" rx="16" fill="#5B5AD1" fill-opacity="0.18"/>
</g>
<rect x="32" y="31" width="76" height="76" rx="16" fill="#5B5AD1"/>
<g clip-path="url(#clip0_1_5076)">
<path d="M84.2845 47.1863L80.925 47.5394L78.785 50.121L84.5295 49.5172C85.1726 49.4496 85.7498 49.917 85.8174 50.5602L86.004 52.3357C86.2509 54.6848 85.6851 57.0733 84.4096 59.0623C83.3212 60.7613 81.775 62.0997 79.9387 62.9337L78.3528 63.654C77.7641 63.9218 77.5033 64.6166 77.7703 65.2065C77.9843 65.6778 78.472 65.9383 78.9603 65.887C79.082 65.8742 79.2041 65.8417 79.3228 65.789L80.9086 65.0675C83.1568 64.0466 85.0499 62.407 86.3838 60.3277C87.9438 57.8924 88.6372 54.9667 88.335 52.0907L88.1483 50.3152C87.9457 48.3873 86.2123 46.9837 84.2845 47.1863Z" fill="white"/>
<path d="M60.7223 65.5071L59.0214 65.1335C57.0516 64.6983 55.261 63.7106 53.8431 62.275C52.182 60.5947 51.1319 58.376 50.885 56.0269L50.6984 54.2514C50.6308 53.6083 51.0982 53.031 51.7414 52.9634L57.7641 52.3304L54.8559 50.2794L51.4964 50.6325C49.5685 50.8351 48.1649 52.5685 48.3675 54.4964L48.5541 56.2719C48.8564 59.1479 50.143 61.8655 52.1752 63.9232C53.9122 65.6797 56.1049 66.8899 58.5163 67.4224L60.2173 67.7971C60.3444 67.824 60.4706 67.8304 60.5923 67.8176C61.0806 67.7662 61.5035 67.41 61.6148 66.9046C61.7533 66.272 61.3537 65.6466 60.7223 65.5071Z" fill="white"/>
<path d="M73.8556 71.2836L74.0368 73.0084C74.1054 73.6609 74.672 74.12 75.3248 74.0514C77.2596 73.848 78.9853 75.2454 79.1886 77.1802L79.4336 79.5111C79.5022 80.1637 79.0435 80.7305 78.3907 80.7991L64.2498 82.2854C63.597 82.354 63.0305 81.8949 62.9619 81.2424L62.7169 78.9115C62.5135 76.9766 63.9109 75.251 65.8458 75.0476C66.4986 74.979 66.9573 74.4122 66.8887 73.7597L66.7074 72.0349C62.2273 71.1151 58.6557 67.6256 57.6651 63.1342L54.8528 50.2798L80.928 47.5392L80.8498 60.6974C80.8146 65.2966 78.0465 69.4524 73.8556 71.2836Z" fill="white"/>
<path d="M78.3907 80.799L71.3202 81.5422L67.8904 48.9094L80.928 47.5391L80.8497 60.6974C80.8145 65.2966 78.0465 69.4524 73.8555 71.2835L74.0368 73.0083C74.1054 73.6609 74.6719 74.1199 75.3248 74.0513C77.2596 73.8479 78.9853 75.2453 79.1886 77.1802L79.4336 79.5111C79.5022 80.1636 79.0435 80.7304 78.3907 80.799Z" fill="white"/>
<path d="M74.5947 57.0892C74.4082 56.6611 74.0037 56.3974 73.5535 56.3741L70.9036 56.2755L69.4956 54.0901C69.2442 53.7161 68.8048 53.5736 68.3854 53.6177C67.966 53.6618 67.5658 53.8925 67.3977 54.3106L66.4749 56.741L63.9033 57.3881C63.4678 57.5047 63.127 57.8468 63.0336 58.3043C62.9612 58.7363 63.1267 59.1899 63.4848 59.4589L65.5382 61.0578L65.36 63.6216C65.334 64.0487 65.5438 64.4744 65.9462 64.715C66.3228 64.9344 66.8172 64.9297 67.1679 64.6808L69.3948 63.2211L71.8765 64.1859C72.2946 64.354 72.7558 64.2582 73.0789 63.9653C73.4222 63.6463 73.5389 63.1863 73.4247 62.774L72.7173 60.3032L74.3934 58.3123C74.6878 57.9751 74.7556 57.4967 74.5947 57.0892Z" fill="#5B5AD1"/>
<path d="M81.7646 79.2661L82.5061 86.3211L61.3725 88.5423L60.631 81.4874C60.5624 80.8345 61.0212 80.268 61.674 80.1994L80.4767 78.2232C81.1295 78.1545 81.696 78.6133 81.7646 79.2661Z" fill="white"/>
<path d="M71.8763 64.1859L69.3946 63.2212L68.3853 53.6177C68.8047 53.5736 69.2441 53.7161 69.4954 54.0902L70.9034 56.2755L73.5534 56.3741C74.0035 56.3974 74.4081 56.6611 74.5945 57.0892C74.7552 57.4967 74.6876 57.9751 74.3932 58.3123L72.7171 60.3032L73.4245 62.7743C73.5387 63.1863 73.422 63.6463 73.0784 63.9653C72.7557 64.2583 72.2944 64.354 71.8763 64.1859Z" fill="#5B5AD1"/>
<path d="M81.7645 79.2661L82.506 86.3211L71.9392 87.4317L71.0752 79.2113L80.4765 78.2232C81.1294 78.1546 81.6959 78.6133 81.7645 79.2661Z" fill="white"/>
<path d="M84.8469 86.1692C84.9154 86.8217 84.4567 87.3885 83.8039 87.4572L60.3394 89.9234C59.6866 89.992 59.12 89.533 59.0514 88.8804C58.9828 88.2276 59.4416 87.6611 60.0944 87.5925L83.5589 85.1263C84.2117 85.0576 84.7782 85.5164 84.8469 86.1692Z" fill="white"/>
<path d="M84.8469 86.1692C84.9154 86.8218 84.4567 87.3886 83.8039 87.4572L72.0716 88.6903L71.8267 86.3594L83.5589 85.1263C84.2117 85.0576 84.7782 85.5164 84.8469 86.1692Z" fill="white"/>
</g>
<defs>
<filter id="filter0_f_1_5076" x="0" y="0" width="156" height="156" filterUnits="userSpaceOnUse" color-interpolation-filters="sRGB">
<feFlood flood-opacity="0" result="BackgroundImageFix"/>
<feBlend mode="normal" in="SourceGraphic" in2="BackgroundImageFix" result="shape"/>
<feGaussianBlur stdDeviation="20" result="effect1_foregroundBlur_1_5076"/>
</filter>
<clipPath id="clip0_1_5076">
<rect width="40" height="40" fill="white" transform="translate(48 51) rotate(-6)"/>
</clipPath>
</defs>
</svg>
