<svg width="110" height="110" viewBox="0 0 110 110" fill="none" xmlns="http://www.w3.org/2000/svg">
<path d="M44.1913 25.7623C46.9422 24.6087 48.0958 21.3254 46.8534 18.6633L42.5053 9.52334C41.263 6.95083 38.2459 5.79636 35.5838 6.95083C28.0411 10.1454 21.5632 14.3161 16.4165 19.3741C10.1161 25.3186 5.85668 32.1514 3.5495 39.6941C1.24233 47.3264 0 57.7078 0 70.9297V98.1722C0 101.101 2.39591 103.496 5.32425 103.496H40.1981C43.1265 103.496 45.5224 101.101 45.5224 98.1722V63.2983C45.5224 60.3691 43.1265 57.9741 40.1981 57.9741H23.5155C23.6929 49.0107 25.8226 41.8238 29.7271 36.4099C32.9216 32.0636 37.7135 28.5141 44.1913 25.7623Z" fill="#E3E2F8"/>
<path d="M106.84 25.7623C109.591 24.6087 110.744 21.3254 109.502 18.6633L105.154 9.61294C103.912 7.03955 100.895 5.88596 98.2326 7.03955C90.7786 10.2341 84.3886 14.4048 79.154 19.3741C72.8527 25.4082 68.5055 32.241 66.1974 39.7837C63.8903 47.2368 62.7375 57.62 62.7375 70.9306V98.1731C62.7375 101.101 65.1335 103.497 68.0618 103.497H102.936C105.864 103.497 108.26 101.101 108.26 98.1731V63.2992C108.26 60.37 105.864 57.9749 102.936 57.9749H86.1643C86.3418 49.0115 88.4723 41.8247 92.3759 36.4108C95.5705 32.0636 100.362 28.514 106.84 25.7623Z" fill="#E3E2F8"/>
</svg>
