<svg width="459" height="314" viewBox="0 0 459 314" fill="none" xmlns="http://www.w3.org/2000/svg">
<path d="M326.889 174L318.157 181.556L329.066 185.34L326.889 174ZM190.847 233.245L190.819 234.245L190.847 233.245ZM145.387 335.101L144.995 334.181L145.387 335.101ZM13.3189 306.881C12.9039 307.791 12.904 307.791 12.904 307.791C12.904 307.791 12.904 307.791 12.9041 307.791C12.9041 307.791 12.9042 307.791 12.9043 307.791C12.9045 307.791 12.9047 307.791 12.9051 307.791C12.9057 307.792 12.9067 307.792 12.908 307.793C12.9105 307.794 12.9142 307.795 12.9191 307.798C12.9289 307.802 12.9434 307.809 12.9625 307.817C13.0008 307.835 13.0578 307.861 13.1329 307.894C13.2832 307.962 13.5064 308.063 13.7988 308.193C14.3838 308.454 15.246 308.836 16.3577 309.32L17.1561 307.486C16.0502 307.005 15.1935 306.625 14.6138 306.367C14.324 306.237 14.1034 306.138 13.9556 306.072C13.8817 306.038 13.826 306.013 13.7889 305.996C13.7704 305.988 13.7565 305.981 13.7473 305.977C13.7427 305.975 13.7393 305.974 13.7371 305.973C13.7359 305.972 13.7351 305.972 13.7346 305.971C13.7343 305.971 13.7342 305.971 13.734 305.971C13.734 305.971 13.734 305.971 13.7339 305.971C13.7339 305.971 13.7339 305.971 13.7339 305.971C13.7339 305.971 13.7339 305.971 13.3189 306.881ZM23.4109 312.317C25.5185 313.193 27.8976 314.166 30.5059 315.207L31.2472 313.349C28.6483 312.312 26.278 311.343 24.1786 310.471L23.4109 312.317ZM37.6429 317.998C39.9296 318.874 42.331 319.776 44.8276 320.692L45.5164 318.814C43.0292 317.902 40.6368 317.003 38.3583 316.13L37.6429 317.998ZM52.0196 323.27C54.3814 324.097 56.8042 324.925 59.2745 325.745L59.9046 323.847C57.4452 323.03 55.0325 322.206 52.6803 321.383L52.0196 323.27ZM66.5635 328.094C68.9805 328.85 71.4285 329.59 73.8957 330.307L74.4543 328.387C72.0005 327.673 69.5652 326.937 67.1599 326.185L66.5635 328.094ZM81.2784 332.368C83.7522 333.027 86.2337 333.658 88.7118 334.25L89.1772 332.305C86.7171 331.717 84.2522 331.091 81.7939 330.435L81.2784 332.368ZM96.2003 335.925C98.7309 336.45 101.246 336.927 103.733 337.348L104.067 335.376C101.606 334.959 99.115 334.487 96.6062 333.967L96.2003 335.925ZM111.352 338.467C113.954 338.787 116.51 339.032 119.004 339.192L119.132 337.196C116.681 337.039 114.163 336.798 111.595 336.482L111.352 338.467ZM126.733 339.401C129.411 339.363 131.991 339.199 134.448 338.893L134.201 336.909C131.826 337.205 129.32 337.364 126.704 337.401L126.733 339.401ZM142.075 337.344C143.362 336.962 144.599 336.523 145.778 336.021L144.995 334.181C143.892 334.65 142.727 335.065 141.507 335.427L142.075 337.344ZM145.778 336.021C147.058 335.477 148.267 334.886 149.41 334.249L148.437 332.502C147.358 333.103 146.212 333.663 144.995 334.181L145.778 336.021ZM155.928 329.515C157.938 327.627 159.624 325.537 161.034 323.287L159.339 322.225C158.015 324.338 156.437 326.293 154.558 328.058L155.928 329.515ZM164.502 316.051C165.384 313.582 166.051 311.001 166.551 308.342L164.585 307.972C164.101 310.546 163.459 313.024 162.618 315.378L164.502 316.051ZM167.574 300.475C167.782 297.878 167.884 295.237 167.917 292.582L165.917 292.557C165.884 295.179 165.784 297.773 165.58 300.315L167.574 300.475ZM167.851 284.713C167.786 282.083 167.688 279.459 167.595 276.874L165.596 276.947C165.69 279.535 165.787 282.147 165.852 284.763L167.851 284.713ZM167.354 269.057C167.299 266.379 167.29 263.775 167.368 261.274L165.369 261.211C165.289 263.759 165.299 266.4 165.354 269.098L167.354 269.057ZM167.982 253.581C168.363 250.893 168.933 248.422 169.758 246.209L167.884 245.51C166.995 247.893 166.397 250.512 166.002 253.3L167.982 253.581ZM173.542 239.861C175.134 238.153 177.128 236.781 179.636 235.819L178.919 233.952C176.137 235.02 173.885 236.559 172.079 238.498L173.542 239.861ZM186.971 234.313C188.177 234.231 189.458 234.207 190.819 234.245L190.875 232.246C189.456 232.206 188.11 232.231 186.834 232.318L186.971 234.313ZM190.819 234.245C192.177 234.283 193.522 234.313 194.853 234.335L194.886 232.335C193.563 232.314 192.226 232.284 190.875 232.246L190.819 234.245ZM202.733 234.37C205.439 234.348 208.088 234.292 210.681 234.203L210.612 232.204C208.037 232.293 205.406 232.348 202.717 232.37L202.733 234.37ZM218.63 233.817C221.332 233.646 223.969 233.439 226.542 233.196L226.354 231.205C223.802 231.446 221.186 231.652 218.504 231.821L218.63 233.817ZM234.421 232.32C237.111 231.974 239.726 231.589 242.266 231.167L241.938 229.194C239.422 229.612 236.832 229.994 234.166 230.336L234.421 232.32ZM250.069 229.71C252.739 229.154 255.32 228.556 257.815 227.921L257.321 225.983C254.856 226.611 252.304 227.202 249.662 227.751L250.069 229.71ZM265.478 225.771C268.099 224.964 270.613 224.115 273.024 223.229L272.334 221.351C269.958 222.225 267.478 223.063 264.89 223.859L265.478 225.771ZM280.407 220.267C282.923 219.168 285.309 218.03 287.572 216.861L286.653 215.084C284.429 216.233 282.083 217.353 279.607 218.434L280.407 220.267ZM294.554 212.93C296.915 211.484 299.115 210.008 301.163 208.518L299.987 206.901C297.981 208.36 295.825 209.806 293.509 211.225L294.554 212.93ZM307.435 203.529C309.568 201.672 311.488 199.819 313.215 197.997L311.763 196.621C310.08 198.397 308.206 200.206 306.122 202.021L307.435 203.529ZM318.406 191.92C320.219 189.553 321.705 187.31 322.916 185.267L321.196 184.247C320.023 186.226 318.581 188.403 316.818 190.704L318.406 191.92Z" fill="#5B5AD1"/>
<g clip-path="url(#clip0_553_189)">
<path d="M388.46 103.263L369.264 94.7312L357.538 121.121L388.46 103.263Z" fill="#5B5AD1"/>
<path d="M458.956 6.62939L318 76.4028L357.723 93.5776L357.71 120.412L372.052 101.088L422.924 134.371L458.956 6.62939Z" fill="#5B5AD1"/>
<path d="M459 6.62939L372.691 102.589L357.688 121.13L357.591 94.9603L459 6.62939Z" fill="#5150C1"/>
</g>
<defs>
<clipPath id="clip0_553_189">
<rect width="141" height="141" fill="white" transform="translate(318)"/>
</clipPath>
</defs>
</svg>
