<svg width="141" height="141" viewBox="0 0 141 141" fill="none" xmlns="http://www.w3.org/2000/svg">
<g clip-path="url(#clip0_87_3772)">
<path d="M40.6192 119.919L51.5178 95.3912L69.3599 103.321L40.6192 119.919Z" fill="#5D5CD6" stroke="black"/>
<path d="M40.223 93.5779L40.2232 93.2491L39.9215 93.1187L1.189 76.3721L140.169 7.57672L104.628 133.579L54.3261 100.669L53.9317 100.411L53.6508 100.79L40.2107 118.898L40.223 93.5779Z" fill="#5D5CD6" stroke="black"/>
<path d="M135.141 12.3959L54.3195 102.255L54.3108 102.265L54.3026 102.275L40.1828 119.723L40.0917 95.1872L135.141 12.3959Z" fill="#5150C1" stroke="black"/>
<line x1="135.484" y1="49.1247" x2="118.484" y2="115.125" stroke="black"/>
<line x1="135.489" y1="71.1038" x2="128.489" y2="104.104" stroke="black"/>
<line x1="94.8507" y1="25.0866" x2="32.7924" y2="53.2605" stroke="black"/>
<line x1="103.526" y1="121.842" x2="108.526" y2="106.842" stroke="black"/>
<line x1="62.3" y1="99.6" x2="70.3" y2="105.6" stroke="black"/>
<path d="M109.525 101.842L119 71" stroke="black"/>
<line x1="53.7764" y1="53.5528" x2="71.7764" y2="44.5528" stroke="black"/>
</g>
<defs>
<clipPath id="clip0_87_3772">
<rect width="141" height="141" fill="white"/>
</clipPath>
</defs>
</svg>
