<svg width="111" height="111" viewBox="0 0 111 111" fill="none" xmlns="http://www.w3.org/2000/svg">
<g clip-path="url(#clip0_1_5124)">
<path d="M66.2174 84.4513C63.4721 85.6182 62.3345 88.9071 63.5897 91.5631L67.9822 100.682C69.237 103.248 72.2597 104.388 74.9162 103.221C82.4433 99.9895 88.9008 95.7875 94.0229 90.7045C100.294 84.7294 104.52 77.876 106.791 70.3222C109.061 62.6787 110.253 52.2914 110.189 39.0697L110.056 11.8276C110.042 8.89925 107.635 6.515 104.706 6.52922L69.8329 6.69864C66.9045 6.71287 64.5203 9.1204 64.5345 12.0487L64.7039 46.9222C64.7182 49.8514 67.1257 52.2347 70.054 52.2205L86.7365 52.1394C86.6025 61.1036 84.5078 68.3007 80.6297 73.7335C77.4563 78.0953 72.6818 81.6681 66.2174 84.4513Z" fill="#E3E2F8"/>
<path d="M3.56945 84.7556C0.824219 85.9225 -0.312519 89.2114 0.941839 91.8675L5.3339 100.897C6.58871 103.464 9.61136 104.603 12.2679 103.436C19.7062 100.206 26.0759 96.0039 31.2863 91.0092C37.5582 84.9445 41.8722 78.0907 44.1436 70.5369C46.4145 63.0727 47.5167 52.684 47.4521 39.3735L47.3197 12.1314C47.3055 9.20312 44.898 6.81887 41.9697 6.8331L7.09621 7.00252C4.16791 7.01675 1.78366 9.42427 1.79789 12.3526L1.96731 47.226C1.98154 50.1552 4.38906 52.5386 7.31737 52.5244L24.0886 52.4429C23.9546 61.407 21.859 68.6042 17.9818 74.0369C14.8084 78.3997 10.0338 81.9724 3.56945 84.7556Z" fill="#E3E2F8"/>
</g>
<defs>
<clipPath id="clip0_1_5124">
<rect width="110" height="110" fill="white" transform="translate(110.533 109.999) rotate(179.722)"/>
</clipPath>
</defs>
</svg>
