<svg width="252" height="250" viewBox="0 0 252 250" fill="none" xmlns="http://www.w3.org/2000/svg">
<path d="M139.653 22.4954L139.839 21.0777L130.286 19.819L130.976 14.5842L140.202 15.7998L140.386 14.4039L131.16 13.1883L131.838 8.04075L141.391 9.29945L141.578 7.8817L130.476 6.41897L128.55 21.0327L139.653 22.4954Z" fill="black"/>
<path d="M145.847 22.7332L152.843 18.1869L152.969 18.2262L156.138 25.9445L158.07 26.5475L154.427 17.6901L154.46 17.5851L162.461 12.4767L160.529 11.8738L153.593 16.3006L153.488 16.2679L150.238 8.66241L148.327 8.06601L151.988 16.7908L151.949 16.9168L143.936 22.1368L145.847 22.7332Z" fill="black"/>
<path d="M163.468 27.8753L165.602 23.6048L170.266 25.9354C173.12 27.3613 175.943 26.731 177.359 23.8971C178.765 21.0828 177.574 18.4464 174.721 17.0205L168.659 13.9916L162.071 27.1771L163.468 27.8753ZM173.963 18.2406C176.286 19.401 177.044 20.9849 175.942 23.189C174.821 25.4325 173.109 25.7576 170.787 24.5972L166.241 22.3256L169.417 15.969L173.963 18.2406Z" fill="black"/>
<path d="M186.122 40.5045L186.946 39.3359L179.305 33.9469L186.977 23.0701L185.7 22.1698L177.205 34.2152L186.122 40.5045Z" fill="black"/>
<path d="M195.226 47.7391C198.341 50.8773 202.619 50.9395 205.882 47.7001C209.145 44.4606 209.114 40.1825 205.999 37.0443C202.914 33.9374 198.636 33.8752 195.373 37.1146C192.11 40.354 192.141 44.6322 195.226 47.7391ZM196.303 46.6696C193.684 44.0311 193.694 41.1065 196.536 38.2856C199.377 35.4646 202.302 35.4752 204.921 38.1138C207.556 40.768 207.561 43.7081 204.72 46.5291C201.878 49.3501 198.938 49.3238 196.303 46.6696Z" fill="black"/>
<path d="M204.996 56.874L209.91 53.3817L211.745 55.9639C212.88 57.5598 212.895 58.4933 212.324 59.8168L210.362 64.4233L211.408 65.8937L213.478 61.0214C213.884 60.1119 214.085 59.294 213.74 58.3521L213.829 58.2883C215.463 60.4736 217.777 61.0698 219.803 59.6295C222.008 58.0618 222.071 55.4533 220.286 52.9429L216.106 47.0613L204.092 55.6009L204.996 56.874ZM215.845 49.1629L219.108 53.7534C220.459 55.6542 220.42 57.1937 218.716 58.4045C217.013 59.6154 215.546 59.1465 214.195 57.2457L210.932 52.6552L215.845 49.1629Z" fill="black"/>
<path d="M218.666 77.9613L219.943 77.3174L215.604 68.7136L220.318 66.336L224.509 74.6451L225.766 74.0111L221.576 65.702L226.211 63.364L230.551 71.9677L231.827 71.3238L226.785 61.3254L213.624 67.9629L218.666 77.9613Z" fill="black"/>
<path d="M226.191 96.7633L239.16 93.7726L240.52 99.6679L241.913 99.3466L238.839 86.0125L237.445 86.3338L238.809 92.2505L225.84 95.2412L226.191 96.7633Z" fill="black"/>
<path d="M229.62 116.467L231.046 116.357L230.303 106.749L235.567 106.342L236.284 115.621L237.688 115.512L236.971 106.234L242.148 105.834L242.89 115.441L244.316 115.331L243.453 104.166L228.757 105.302L229.62 116.467Z" fill="black"/>
<path d="M229.876 128.933C229.493 132.742 231.33 135.801 234.657 136.136L234.92 136.163L235.09 134.477L234.827 134.451C232.331 134.2 231.061 132.325 231.384 129.107C231.752 125.452 234.014 123.623 237.998 124.024C241.982 124.424 243.835 126.667 243.467 130.323C243.144 133.54 241.525 135.124 239.03 134.873L238.767 134.847L238.597 136.532L238.86 136.559C242.187 136.894 244.599 134.24 244.98 130.453C245.411 126.162 242.738 122.842 238.163 122.382C233.588 121.922 230.308 124.643 229.876 128.933Z" fill="black"/>
<path d="M229.329 141.511L235.792 143.315L233.242 152.448L226.779 150.644L226.359 152.148L240.557 156.111L240.977 154.607L234.62 152.832L237.169 143.699L243.526 145.474L243.946 143.97L229.749 140.006L229.329 141.511Z" fill="black"/>
<path d="M217.279 174.631L218.528 175.326L223.214 166.906L227.828 169.473L223.303 177.605L224.533 178.29L229.058 170.158L233.595 172.682L228.909 181.103L230.159 181.798L235.604 172.013L222.724 164.846L217.279 174.631Z" fill="black"/>
<path d="M214.325 180.944L222.017 187.21L223.955 188.732L223.886 188.817L220.791 188.68L208.267 188.38L207.183 189.711L218.611 199.02L219.597 197.809L211.802 191.459L209.898 189.965L209.982 189.863L213.018 190.037L225.656 190.372L226.739 189.042L215.311 179.732L214.325 180.944Z" fill="black"/>
<path d="M198.983 198.915L207.831 208.857L203.312 212.879L204.263 213.948L214.485 204.85L213.534 203.782L208.998 207.819L200.149 197.876L198.983 198.915Z" fill="black"/>
<path d="M191.462 206.313L195.022 212L186.985 217.031L183.425 211.344L182.101 212.173L189.922 224.667L191.246 223.838L187.744 218.244L195.781 213.212L199.283 218.807L200.607 217.978L192.786 205.484L191.462 206.313Z" fill="black"/>
<path d="M171.307 218.202C167.504 219.711 165.967 222.759 167.46 226.521L170.649 234.558L172.1 233.982L168.936 226.007C167.695 222.878 168.685 220.899 171.875 219.634C175.065 218.368 177.142 219.13 178.384 222.258L181.548 230.234L183 229.657L179.811 221.621C178.318 217.858 175.111 216.693 171.307 218.202Z" fill="black"/>
<path d="M154.76 224.383C150.763 225.257 149.445 227.571 149.896 229.635C150.384 231.87 152.279 232.604 154.966 232.535L158.128 232.474C160.354 232.461 161.408 232.748 161.765 234.382C162.108 235.951 160.997 237.049 158.139 237.674C155.001 238.36 153.467 237.524 153.011 235.439L152.955 235.181L151.407 235.52L151.435 235.649C152.009 238.271 154.284 240.025 158.346 239.138C162.472 238.236 163.717 235.892 163.289 233.936C162.768 231.55 160.682 230.97 158.24 231.031L155.062 231.118C152.861 231.148 151.767 230.779 151.415 229.168C151.058 227.534 152.195 226.452 155.075 225.823C158.45 225.085 159.983 225.921 160.434 227.984L160.495 228.264L162.043 227.925L162.015 227.796C161.413 225.045 158.995 223.457 154.76 224.383Z" fill="black"/>
<path d="M142.905 227.024L145.055 241.607L146.6 241.379L144.451 226.796L142.905 227.024Z" fill="black"/>
<path d="M136.068 228.608L133.972 232.887L125.879 232.668L124.017 228.282L122.257 228.235L128.545 243.15L130.722 243.209L137.784 228.654L136.068 228.608ZM130.616 239.795L129.773 241.687L129.641 241.683L128.879 239.748L126.479 234.093L133.296 234.277L130.616 239.795Z" fill="black"/>
<path d="M112.306 227.397C108.287 226.631 106.165 228.242 105.77 230.316C105.341 232.564 106.795 233.983 109.293 234.975L112.225 236.161C114.278 237.023 115.134 237.701 114.82 239.344C114.52 240.921 113.066 241.495 110.192 240.947C107.037 240.345 105.955 238.974 106.355 236.878L106.404 236.619L104.848 236.322L104.823 236.452C104.32 239.088 105.724 241.595 109.808 242.374C113.957 243.166 116.022 241.499 116.397 239.533C116.855 237.134 115.164 235.781 112.895 234.878L109.938 233.709C107.902 232.873 107.041 232.104 107.35 230.483C107.664 228.841 109.134 228.293 112.03 228.845C115.423 229.492 116.505 230.863 116.109 232.938L116.056 233.219L117.612 233.516L117.637 233.386C118.164 230.62 116.563 228.209 112.306 227.397Z" fill="black"/>
<path d="M95.3317 223.899L90.7964 236.412L85.1085 234.351L84.6212 235.695L97.4863 240.358L97.9736 239.014L92.265 236.945L96.8002 224.431L95.3317 223.899Z" fill="black"/>
<path d="M81.1288 218.191C77.5531 216.201 75.0332 217.065 74.0062 218.91C72.8937 220.91 73.8284 222.714 75.8892 224.44L78.3003 226.486C79.9788 227.949 80.5787 228.862 79.7657 230.323C78.9848 231.726 77.4248 231.815 74.868 230.392C72.0613 228.83 71.4641 227.189 72.5017 225.324L72.6301 225.094L71.246 224.323L71.1818 224.439C69.8767 226.784 70.4218 229.605 74.0552 231.627C77.7462 233.681 80.2298 232.746 81.2033 230.997C82.3907 228.863 81.2103 227.048 79.3395 225.478L76.8985 223.44C75.2285 222.008 74.6522 221.007 75.4545 219.565C76.2675 218.104 77.836 218.046 80.412 219.479C83.4302 221.158 84.0274 222.8 83.0005 224.645L82.8614 224.895L84.2455 225.666L84.3097 225.55C85.679 223.09 84.9159 220.298 81.1288 218.191Z" fill="black"/>
<path d="M60.9174 205.618C57.8611 202.734 54.9643 202.663 52.7298 205.031L51.3258 206.519L49.5015 204.798L48.5806 205.774L50.4048 207.495L48.6837 209.319L49.8038 210.376L51.5249 208.552L55.3334 212.145C56.9336 213.655 57.3484 215.075 56.1406 216.355C54.9327 217.635 53.7313 217.53 51.9871 215.884L49.3948 213.439L48.3984 214.495L50.8787 216.835C53.183 219.009 55.4499 219.363 57.1257 217.587C58.2278 216.419 58.3994 214.826 57.2817 213.318L57.3874 213.206C59.1483 214.353 60.9333 214.192 62.3223 212.72C64.2095 210.72 63.5898 208.139 60.9174 205.618ZM59.9041 206.628C62.1924 208.787 62.4695 210.288 61.0956 211.744C59.7217 213.2 58.1426 212.951 56.5264 211.426L52.4459 207.576L53.8953 206.04C55.6919 204.136 57.3918 204.257 59.9041 206.628Z" fill="black"/>
<path d="M44.2195 189.812L32.6237 198.911L33.5881 200.14L45.1838 191.04L44.2195 189.812Z" fill="black"/>
<path d="M39.6535 184.964L30.9305 189.693L28.7852 190.905L28.7328 190.809L30.0377 187.999L35.0825 176.532L34.2648 175.023L21.3061 182.047L22.0504 183.42L30.8894 178.629L32.996 177.437L33.0589 177.553L31.7419 180.294L26.6213 191.853L27.4391 193.362L40.3978 186.338L39.6535 184.964Z" fill="black"/>
<path d="M28.677 163.947C27.312 159.741 23.7224 157.946 19.4327 159.338C15.1429 160.73 13.2919 164.291 14.6569 168.498L16.6331 174.587L30.6533 170.037L28.677 163.947ZM16.0171 168.056C14.8626 164.499 16.1336 162.143 19.942 160.907C23.7505 159.671 26.1624 160.832 27.3169 164.389L28.8042 168.972L17.5043 172.639L16.0171 168.056Z" fill="black"/>
<path d="M23.533 146.394C22.983 142.339 20.3945 140.115 16.3832 140.659L7.81568 141.821L8.02566 143.369L16.5278 142.216C19.8632 141.763 21.5457 143.2 22.007 146.601C22.4684 150.002 21.2296 151.835 17.8941 152.288L9.39201 153.441L9.60199 154.989L18.1695 153.827C22.1808 153.282 24.0831 150.449 23.533 146.394Z" fill="black"/>
<path d="M21.4409 128.05C21.5672 123.96 19.6432 122.118 17.5322 122.052C15.2453 121.982 14.0715 123.64 13.4842 126.263L12.7728 129.345C12.2438 131.508 11.7081 132.46 10.0369 132.408C8.43167 132.358 7.63682 131.013 7.72715 128.089C7.82631 124.878 9.01052 123.594 11.1435 123.66L11.4074 123.668L11.4563 122.085L11.3243 122.081C8.64162 121.998 6.38562 123.777 6.25725 127.933C6.12685 132.155 8.09691 133.933 10.098 133.995C12.5388 134.07 13.6094 132.188 14.1452 129.806L14.8354 126.701C15.3417 124.56 15.966 123.589 17.6152 123.64C19.2864 123.691 20.0586 125.058 19.9676 128.004C19.861 131.457 18.6767 132.741 16.5658 132.676L16.2799 132.667L16.231 134.25L16.3629 134.254C19.1776 134.341 21.3071 132.382 21.4409 128.05Z" fill="black"/>
<path d="M22.1826 110.841L9.10832 108.348L10.2418 102.405L8.83717 102.137L6.27334 115.579L7.67802 115.847L8.81567 109.882L21.89 112.376L22.1826 110.841Z" fill="black"/>
<path d="M24.0829 99.1567L18.4234 97.0815L19.514 94.1071C20.1881 92.2688 20.9489 91.7276 22.3631 91.4495L27.2715 90.4609L27.8926 88.7671L22.7039 89.817C21.7242 89.9967 20.9358 90.2935 20.3547 91.1114L20.2515 91.0735C21.1286 88.4896 20.3114 86.245 17.9774 85.3892C15.4368 84.4576 13.2508 85.8821 12.1904 88.7738L9.70618 95.5487L23.5452 100.623L24.0829 99.1567ZM11.5865 94.5745L13.5254 89.2868C14.3283 87.0973 15.6199 86.2587 17.5822 86.9783C19.5444 87.6978 19.9878 89.1726 19.1849 91.362L17.246 96.6497L11.5865 94.5745Z" fill="black"/>
<path d="M31.921 79.1375L27.3551 76.5746L22.2225 66.3017L21.2856 67.9708L24.5524 74.4213L25.5441 76.3402L25.4794 76.4553L23.3141 76.6275L16.0953 77.2177L15.1585 78.8868L26.5798 77.9559L31.1457 80.5188L31.921 79.1375Z" fill="black"/>
<path d="M42.0932 62.0361L38.6089 58.7725L42.1733 54.9671C44.354 52.6389 44.5553 49.7528 42.2431 47.5872C39.947 45.4365 37.0803 45.826 34.8996 48.1543L30.2675 53.0997L41.0254 63.1761L42.0932 62.0361ZM35.8531 49.2282C37.6277 47.3335 39.362 47.0588 41.1603 48.7433C42.9908 50.4577 42.814 52.1912 41.0394 54.0859L37.5652 57.795L32.3789 52.9373L35.8531 49.2282Z" fill="black"/>
<path d="M54.0242 49.8457L50.3201 45.09L52.8195 43.1433C54.3642 41.9402 55.2961 41.8836 56.6433 42.3959L61.3313 44.1543L62.7545 43.0458L57.7963 41.1911C56.8699 40.8251 56.0439 40.6597 55.118 41.0463L55.0504 40.9595C57.1621 39.2311 57.6564 36.8941 56.1288 34.9328C54.466 32.798 51.8573 32.85 49.4274 34.7426L43.7345 39.1767L52.7919 50.8055L54.0242 49.8457ZM45.8455 39.345L50.2887 35.8843C52.1285 34.4513 53.6683 34.4232 54.9525 36.0721C56.2368 37.7209 55.8326 39.207 53.9928 40.6399L49.5496 44.1007L45.8455 39.345Z" fill="black"/>
<path d="M71.9601 36.7273C75.8784 34.6778 77.2014 30.6092 75.0703 26.5349C72.9392 22.4606 68.8428 21.2267 64.9244 23.2762C61.045 25.3053 59.7221 29.3739 61.8532 33.4482C63.9842 37.5225 68.0807 38.7564 71.9601 36.7273ZM71.2565 35.3822C67.962 37.1054 65.171 36.2314 63.3152 32.6835C61.4595 29.1355 62.3334 26.3445 65.628 24.6213C68.942 22.8879 71.7525 23.7517 73.6082 27.2997C75.464 30.8476 74.5705 33.6488 71.2565 35.3822Z" fill="black"/>
<path d="M87.1311 29.1461C91.0137 27.8537 92.079 25.4122 91.412 23.4083C90.6893 21.2374 88.7276 20.7079 86.0629 21.0617L82.9252 21.457C80.7127 21.7066 79.6345 21.5322 79.1064 19.9458C78.5991 18.422 79.5875 17.2119 82.3637 16.2877C85.4113 15.2732 87.025 15.9417 87.699 17.9664L87.7824 18.2169L89.2853 17.7166L89.2437 17.5914C88.3959 15.0448 85.9476 13.5411 82.0025 14.8544C77.9947 16.1886 77.0059 18.651 77.6382 20.5505C78.4095 22.8675 80.5452 23.2231 82.9663 22.9041L86.118 22.4809C88.3026 22.2174 89.4296 22.4683 89.9507 24.0338C90.4788 25.6202 89.4627 26.8164 86.6656 27.7476C83.3884 28.8386 81.7746 28.17 81.1075 26.1662L81.0172 25.8948L79.5143 26.3951L79.556 26.5204C80.4454 29.1922 83.019 30.515 87.1311 29.1461Z" fill="black"/>
<path d="M127.75 59.5808C127.75 59.0285 127.302 58.5808 126.75 58.5808C126.198 58.5808 125.75 59.0285 125.75 59.5808L127.75 59.5808ZM125.75 59.5808L125.75 188.581L127.75 188.581L127.75 59.5808L125.75 59.5808Z" fill="black"/>
<path d="M93.75 139.581C103.424 147.238 123.369 168.159 125.75 190.581" stroke="black" stroke-width="2" stroke-linecap="round"/>
<path d="M158.75 139.581C149.076 147.238 129.131 168.159 126.75 190.581" stroke="black" stroke-width="2" stroke-linecap="round"/>
<circle cx="108.75" cy="15.5808" r="7" fill="black"/>
</svg>
