<svg width="303" height="103" viewBox="0 0 303 103" fill="none" xmlns="http://www.w3.org/2000/svg">
<path fill-rule="evenodd" clip-rule="evenodd" d="M150.464 102.656C158.509 102.374 166.851 101.873 169.001 101.543C171.152 101.211 178.624 100.311 185.607 99.5421C192.59 98.772 199.121 97.8929 200.122 97.587C201.121 97.2821 204.203 96.684 206.97 96.2593C222.77 93.8338 236.093 90.4991 254.618 84.3342C273.511 78.0474 291.574 66.8251 298.388 57.1413C301.548 52.6494 302.077 51.1159 302.18 46.1451C302.288 40.9077 301.95 39.9335 298.553 35.7075C289.338 24.247 261.578 13.9245 221.625 7.1047C196.418 2.80193 162.646 -0.283671 145.279 0.130047C137.505 0.315019 128.998 0.418428 126.375 0.360899C123.752 0.303378 121.022 0.768459 120.306 1.39413C119.591 2.01981 118.555 2.21151 118.004 1.81987C117.453 1.42823 116.986 1.85663 116.967 2.77199C116.936 4.24085 119.116 4.40165 135.696 4.14837C156.006 3.83737 190.949 6.20926 209.371 9.14838C215.531 10.1317 223.849 11.4607 227.856 12.1017C237.265 13.6085 246.782 16.1416 271.443 23.704C277.539 25.574 288.778 32.8724 292.148 37.1504C297.078 43.4089 296.245 49.381 289.289 57.6416C281.359 67.0602 260.996 77.89 238.534 84.6364C235.298 85.6072 231.547 86.7634 230.198 87.2046C222.478 89.731 198.06 94.2851 179.333 96.6917C144.751 101.136 87.4762 100.012 65.9651 94.4686C63.7757 93.9038 59.3053 92.7198 56.0301 91.8369C52.096 90.7754 50.2039 90.6216 50.4522 91.383C51.1714 93.5903 58.3332 95.4769 83.2849 100.031C92.538 101.72 132.546 103.284 150.464 102.656ZM83.1251 84.2204C83.1463 83.198 71.3704 79.5407 67.8337 79.4717C63.5091 79.3875 44.7188 73.7396 30.836 68.3517C19.5022 63.9528 16.2753 61.9602 11.9634 56.6999C2.41853 45.0558 10.9045 31.7898 34.7377 21.095C47.5591 15.3411 57.0486 12.6243 75.4009 9.45052C83.6955 8.01567 88.6495 5.56164 87.0081 3.70043C86.2827 2.87783 67.7472 5.57761 59.9414 7.64272C57.7428 8.22483 53.2986 9.39988 50.0653 10.2551C21.0535 17.9273 0.396715 32.5351 0.126803 45.5707C0.0387751 49.822 2.53032 55.4217 6.24583 59.3212C10.5612 63.8512 20.3015 69.5388 27.6471 71.8181C61.1674 82.2223 83.0651 87.1174 83.1251 84.2204ZM98.7133 5.50653C99.9953 4.15462 97.2095 1.89592 94.2121 1.85742L91.165 1.81789L93.5566 3.9624C96.0582 6.20558 97.6096 6.66934 98.7133 5.50653ZM108.679 4.2316C109.036 3.62635 110.1 3.41811 111.044 3.76969C111.993 4.12242 113.326 3.69055 114.024 2.80425C115.122 1.41104 114.762 1.1883 111.309 1.11679C108.324 1.055 107.055 1.56532 106.241 3.15397C105.382 4.82846 105.456 5.27984 106.592 5.30335C107.383 5.31973 108.321 4.83791 108.679 4.2316Z" fill="#5D5CD6"/>
</svg>
