<svg width="421" height="574" viewBox="0 0 421 574" fill="none" xmlns="http://www.w3.org/2000/svg">
<g opacity="0.02">
<g clip-path="url(#clip0_1120_306)">
<rect x="-173" y="-107" width="1154" height="1014" rx="400" fill="white"/>
<path d="M379.351 99.3203C399.955 129.494 454.575 175.003 508.226 115.65" stroke="black" stroke-width="37" stroke-linecap="round" stroke-linejoin="round"/>
<path d="M375.779 365.436C421.431 365.081 510.31 382.973 500.614 457.378C490.918 531.783 452.673 541.864 434.762 537.605" stroke="black" stroke-width="37" stroke-linecap="square" stroke-linejoin="round"/>
<path d="M355.647 588.48C379.54 610.545 441.359 646.215 497.5 612.374" stroke="black" stroke-width="37" stroke-linecap="round" stroke-linejoin="round"/>
<path d="M-241.089 643.1C-233.903 609.564 -187.703 529.384 -23.8969 484.669" stroke="black" stroke-width="37" stroke-linecap="round" stroke-linejoin="round"/>
<path d="M75.9761 401.461L212.931 341.469V457.194L352.714 401.461L289.287 545.585" stroke="black" stroke-width="37" stroke-linecap="round" stroke-linejoin="round"/>
<path d="M-254.242 115.519C-206.214 98.338 -89.8622 81.6329 -8.68274 152.258" stroke="black" stroke-width="37" stroke-linecap="round" stroke-linejoin="round"/>
<path d="M-34.0398 379.57L16.6637 425.793" stroke="black" stroke-width="37" stroke-linecap="round" stroke-linejoin="round"/>
<path d="M28.1666 358.832L-44.5976 434.308" stroke="black" stroke-width="37" stroke-linecap="round" stroke-linejoin="round"/>
<path d="M-67.1782 -0.320909L72.6049 -25.8799" stroke="black" stroke-width="37" stroke-linecap="round" stroke-linejoin="round"/>
<path d="M-59.2156 53.2346L82.1836 23.7708" stroke="black" stroke-width="37" stroke-linecap="round" stroke-linejoin="round"/>
<path d="M242.91 243.247L260.282 343.708" stroke="black" stroke-width="37" stroke-linecap="round" stroke-linejoin="round"/>
<path d="M297.103 243.629L305.183 324.921" stroke="black" stroke-width="37" stroke-linecap="round" stroke-linejoin="round"/>
<path d="M185.146 65.2524C190.532 93.4146 221.182 156.626 300.689 184.173" stroke="black" stroke-width="37" stroke-linecap="round" stroke-linejoin="round"/>
<path d="M115.038 103.481L153.822 -1.23975L270.981 37.4537" stroke="black" stroke-width="37" stroke-linecap="round" stroke-linejoin="round"/>
<rect x="385.566" y="197.745" width="116.519" height="97.8946" rx="48.9473" stroke="black" stroke-width="37" stroke-linejoin="round"/>
<rect x="27.7945" width="104.809" height="104.809" rx="52.4045" transform="matrix(0.751204 -0.66007 0.751204 0.66007 24.5558 557.479)" stroke="black" stroke-width="37" stroke-linejoin="round"/>
<path d="M-72.3665 272.393C-85.254 262.281 -80.5964 243.514 -64.0071 238.712C-47.598 233.962 -31.6982 246.438 -35.2209 261.3C-38.7823 276.325 -59.4789 282.506 -72.3665 272.393Z" stroke="black" stroke-width="37" stroke-linejoin="round"/>
<ellipse cx="300.685" cy="99.4821" rx="16.5639" ry="14.5544" fill="black"/>
<ellipse cx="405.847" cy="459.911" rx="16.5639" ry="14.5544" fill="black"/>
<path d="M175.765 224.937C175.765 250.971 150.917 276.014 115.082 276.014C79.2469 276.014 54.3984 250.971 54.3984 224.937C54.3984 198.903 79.2469 173.86 115.082 173.86C150.917 173.86 175.765 198.903 175.765 224.937Z" stroke="black" stroke-width="37" stroke-linejoin="round"/>
<path d="M403.999 -25.9153C403.999 -3.21454 382.226 19.1271 350.184 19.1271C318.142 19.1271 296.368 -3.21454 296.368 -25.9153C296.368 -48.6161 318.142 -70.9578 350.184 -70.9578C382.226 -70.9578 403.999 -48.6161 403.999 -25.9153Z" stroke="black" stroke-width="37" stroke-linejoin="round"/>
</g>
</g>
<defs>
<clipPath id="clip0_1120_306">
<rect x="-173" y="-107" width="1154" height="1014" rx="400" fill="white"/>
</clipPath>
</defs>
</svg>
