<svg width="421" height="574" viewBox="0 0 421 574" fill="none" xmlns="http://www.w3.org/2000/svg">
<g opacity="0.02">
<g clip-path="url(#clip0_1042_2982)">
<rect x="-16" y="-411" width="1472" height="1293" rx="400" fill="white"/>
<path d="M-102.852 545.488C-93.6853 502.725 -34.7548 400.484 174.191 343.465" stroke="black" stroke-width="37" stroke-linecap="round" stroke-linejoin="round"/>
<path d="M301.585 237.363L476.28 160.864V308.431L654.582 237.363L573.676 421.143" stroke="black" stroke-width="37" stroke-linecap="round" stroke-linejoin="round"/>
<path d="M161.252 209.449L225.928 268.39" stroke="black" stroke-width="37" stroke-linecap="round" stroke-linejoin="round"/>
<path d="M240.601 183.004L147.785 279.248" stroke="black" stroke-width="37" stroke-linecap="round" stroke-linejoin="round"/>
<path d="M457.395 545.432L371.43 644.734" stroke="black" stroke-width="37" stroke-linecap="round" stroke-linejoin="round"/>
<path d="M301.657 586.937L317.128 714.039L457.395 694.117" stroke="black" stroke-width="37" stroke-linecap="round" stroke-linejoin="round"/>
<rect x="27.7985" width="143.861" height="143.861" rx="56.9997" transform="matrix(0.751311 -0.659949 0.751311 0.659949 234.088 431.26)" stroke="black" stroke-width="37" stroke-linejoin="round"/>
<path d="M132.194 588.188C106.865 577.591 105.836 544.574 130.372 529.744C153.419 515.814 182.792 528.102 185.002 552.599C187.356 578.68 157.523 598.784 132.194 588.188Z" stroke="black" stroke-width="37" stroke-linejoin="round"/>
<path d="M108.733 76.3551C89.1968 61.0309 96.2581 32.5922 121.406 25.3145C146.28 18.1161 170.381 37.0214 165.041 59.5425C159.642 82.3116 128.268 91.6792 108.733 76.3551Z" stroke="black" stroke-width="37" stroke-linejoin="round"/>
<ellipse cx="93.9708" cy="456.129" rx="21.1283" ry="18.559" fill="black"/>
<path d="M433.97 12.2686C433.97 48.87 399.358 82.4898 351.466 82.4898C303.575 82.4898 268.963 48.87 268.963 12.2686C268.963 -24.3328 303.575 -57.9526 351.466 -57.9526C399.358 -57.9526 433.97 -24.3328 433.97 12.2686Z" stroke="black" stroke-width="37" stroke-linejoin="round"/>
<path d="M88.2717 231.11C88.2717 275.461 46.5078 315.364 -10.2069 315.364C-66.9216 315.364 -108.686 275.461 -108.686 231.11C-108.686 186.759 -66.9216 146.856 -10.2069 146.856C46.5078 146.856 88.2717 186.759 88.2717 231.11Z" stroke="black" stroke-width="37" stroke-linejoin="round"/>
</g>
</g>
<defs>
<clipPath id="clip0_1042_2982">
<rect x="-16" y="-411" width="1472" height="1293" rx="400" fill="white"/>
</clipPath>
</defs>
</svg>
