<svg width="34" height="34" viewBox="0 0 34 34" fill="none" xmlns="http://www.w3.org/2000/svg">
<path d="M14.3868 2.83806C15.0159 0.0530405 18.9841 0.0530405 19.6132 2.83806C20.1731 5.31677 23.0176 6.49498 25.1662 5.13818C27.5803 3.61371 30.3863 6.41967 28.8618 8.83381C27.505 10.9824 28.6832 13.8269 31.1619 14.3868C33.947 15.0159 33.947 18.9841 31.1619 19.6132C28.6832 20.1731 27.505 23.0176 28.8618 25.1662C30.3863 27.5803 27.5803 30.3863 25.1662 28.8618C23.0176 27.505 20.1731 28.6832 19.6132 31.1619C18.9841 33.947 15.0159 33.947 14.3868 31.1619C13.8269 28.6832 10.9824 27.505 8.83381 28.8618C6.41967 30.3863 3.61371 27.5803 5.13818 25.1662C6.49498 23.0176 5.31676 20.1731 2.83806 19.6132C0.0530396 18.9841 0.0530415 15.0159 2.83806 14.3868C5.31677 13.8269 6.49498 10.9824 5.13818 8.83381C3.61371 6.41967 6.41967 3.61371 8.83381 5.13818C10.9824 6.49498 13.8269 5.31676 14.3868 2.83806Z" stroke="#121212"/>
</svg>
