<svg width="42" height="42" viewBox="0 0 42 42" fill="none" xmlns="http://www.w3.org/2000/svg">
<path d="M17.7175 3.31153C18.8451 0.264372 23.1549 0.264375 24.2825 3.31154L27.4553 11.886C27.9111 13.1177 28.8823 14.0889 30.114 14.5447L38.6885 17.7175C41.7356 18.8451 41.7356 23.1549 38.6885 24.2825L30.114 27.4553C28.8823 27.9111 27.9111 28.8823 27.4553 30.114L24.2825 38.6885C23.1549 41.7356 18.8451 41.7356 17.7175 38.6885L14.5447 30.114C14.0889 28.8823 13.1177 27.9111 11.886 27.4553L3.31153 24.2825C0.264372 23.1549 0.264375 18.8451 3.31154 17.7175L11.886 14.5447C13.1177 14.0889 14.0889 13.1177 14.5447 11.886L17.7175 3.31153Z" stroke="#121212" stroke-linejoin="round"/>
</svg>
