<svg width="1736" height="1736" viewBox="0 0 1736 1736" fill="none" xmlns="http://www.w3.org/2000/svg">
<circle cx="868" cy="868" r="868" fill="#5D5CD6"/>
<path fill-rule="evenodd" clip-rule="evenodd" d="M988.273 395.912C982.61 397.496 982.413 399.226 982.748 444.428C982.923 467.531 983.491 486.864 984.014 487.387C984.537 487.913 995.192 488.676 1007.7 489.081C1024.38 489.624 1031.78 490.321 1035.5 491.714C1038.3 492.756 1045.06 494.123 1050.52 494.749C1060.89 495.941 1066.07 497.132 1069.95 499.222C1071.22 499.904 1075.83 501.037 1080.19 501.738C1084.55 502.436 1089.72 504.004 1091.67 505.218C1093.63 506.432 1097.54 507.789 1100.37 508.227C1103.2 508.668 1108.69 510.522 1112.56 512.343C1116.44 514.167 1120.24 515.661 1121.01 515.661C1121.79 515.661 1124.13 516.965 1126.21 518.563C1128.29 520.16 1130.57 521.468 1131.26 521.468C1131.96 521.468 1136.06 523.292 1140.39 525.525C1144.72 527.759 1148.83 529.586 1149.53 529.59C1150.22 529.593 1151.7 530.602 1152.81 531.836C1153.91 533.066 1156.82 534.413 1159.27 534.829C1161.72 535.244 1164.36 536.358 1165.14 537.302C1165.92 538.247 1168.42 539.802 1170.7 540.759C1172.97 541.714 1176.13 543.691 1177.72 545.148C1180.19 547.42 1193.43 556.678 1199.49 560.372C1200.54 561.012 1202.99 562.843 1204.95 564.44C1206.91 566.034 1210.48 568.91 1212.89 570.825C1227.74 582.634 1259.01 612.339 1265.53 620.821C1269.03 625.385 1278.28 637.071 1279.68 638.701C1280.46 639.623 1282.15 642.074 1283.42 644.145C1284.69 646.219 1288.28 651.737 1291.38 656.408C1294.49 661.076 1298.18 666.728 1299.59 668.964C1300.99 671.201 1303.77 675.599 1305.78 678.745C1307.78 681.887 1309.41 685.295 1309.41 686.315C1309.41 687.334 1310.71 690.09 1312.3 692.44C1313.89 694.79 1315.19 697.192 1315.19 697.777C1315.19 698.358 1316.57 700.87 1318.26 703.354C1319.95 705.837 1321.99 709.963 1322.79 712.517C1323.59 715.072 1325.33 719.357 1326.65 722.041C1327.97 724.726 1329.05 727.537 1329.05 728.293C1329.05 729.046 1330.11 731.387 1331.41 733.49C1332.7 735.597 1334.33 740.625 1335.03 744.663C1335.72 748.702 1337.28 753.973 1338.48 756.382C1339.69 758.787 1341.12 764.276 1341.65 768.574C1342.2 772.875 1343.72 778.485 1345.05 781.039C1346.37 783.594 1348.29 790.911 1349.3 797.299C1350.32 803.687 1351.9 812.475 1352.81 816.828C1354.77 826.189 1355.13 909.88 1353.25 918.664C1352.63 921.537 1350.89 931.207 1349.37 940.15C1347.84 949.093 1345.73 958.455 1344.66 960.955C1343.6 963.454 1342.22 968.671 1341.6 972.543C1340.98 976.416 1339.51 981.161 1338.33 983.093C1337.16 985.024 1335.84 989.741 1335.4 993.575C1334.97 997.408 1333.44 1002.89 1332.01 1005.77C1330.57 1008.64 1329.03 1012.53 1328.57 1014.4C1328.12 1016.27 1326.48 1019.32 1324.94 1021.17C1323.39 1023.02 1322.12 1025.49 1322.12 1026.67C1322.12 1029.19 1314.55 1044.81 1311.69 1048.16C1310.61 1049.44 1309.36 1052.05 1308.91 1053.97C1308.48 1055.88 1306.92 1059.28 1305.46 1061.52C1304 1063.75 1301.4 1067.93 1299.67 1070.81C1297.94 1073.68 1293.84 1080.16 1290.55 1085.21C1287.27 1090.26 1284.06 1095.26 1283.42 1096.31C1274.48 1111.17 1224.17 1162.31 1205.4 1175.61C1203.84 1176.72 1200.74 1178.94 1198.51 1180.54C1196.29 1182.14 1192.65 1184.36 1190.43 1185.49C1188.2 1186.61 1183.51 1189.68 1180 1192.31C1176.49 1194.93 1171.46 1198.19 1168.82 1199.55C1166.18 1200.9 1163.71 1202.5 1163.34 1203.1C1162.97 1203.71 1160.73 1204.82 1158.35 1205.59C1155.98 1206.35 1153 1207.91 1151.73 1209.05C1150.46 1210.19 1147.27 1211.7 1144.64 1212.4C1142.01 1213.1 1139.24 1214.43 1138.48 1215.35C1137.72 1216.27 1135.25 1217.64 1132.99 1218.39C1130.73 1219.14 1127.16 1220.93 1125.04 1222.37C1122.93 1223.82 1118.71 1225.37 1115.67 1225.82C1112.63 1226.27 1108.58 1227.58 1106.67 1228.74C1104.77 1229.89 1101.39 1231.2 1099.16 1231.64C1096.94 1232.09 1092.52 1233.66 1089.35 1235.13C1086.17 1236.6 1079.75 1238.4 1075.08 1239.12C1070.41 1239.84 1065.19 1241.15 1063.48 1242.04C1060.13 1243.78 1045.28 1246.18 1037.82 1246.18C1035.31 1246.18 1030.28 1247.26 1026.64 1248.58C1021.52 1250.45 1016.13 1251.13 1002.7 1251.64C993.171 1251.99 984.724 1252.8 983.93 1253.44C982.09 1254.91 981.835 1333.73 983.656 1338.55L984.828 1341.65L1014.03 1341.24C1039.47 1340.89 1043.64 1340.57 1046.32 1338.8C1048.28 1337.51 1053.74 1336.3 1061.29 1335.5C1067.83 1334.8 1075.4 1333.25 1078.14 1332.05C1080.86 1330.86 1086.32 1329.3 1090.27 1328.6C1094.21 1327.89 1098.59 1326.55 1100.01 1325.63C1101.43 1324.71 1106.37 1323.21 1110.99 1322.3C1115.6 1321.4 1121.44 1319.57 1123.96 1318.26C1126.47 1316.94 1130.12 1315.86 1132.06 1315.86C1134.01 1315.86 1137.4 1314.63 1139.62 1313.13C1141.83 1311.63 1146.34 1309.75 1149.65 1308.96C1152.95 1308.17 1156.24 1306.81 1156.96 1305.94C1157.68 1305.07 1161.02 1303.55 1164.38 1302.57C1167.74 1301.59 1171.11 1300.03 1171.87 1299.11C1172.63 1298.19 1174.91 1297.09 1176.93 1296.67C1178.95 1296.25 1182.45 1294.71 1184.69 1293.25C1186.94 1291.8 1190.4 1290.25 1192.38 1289.81C1194.35 1289.37 1197.97 1287.49 1200.42 1285.63C1202.87 1283.77 1205.45 1282.23 1206.17 1282.21C1206.89 1282.2 1208.18 1281.33 1209.04 1280.28C1209.9 1279.23 1212.7 1277.41 1215.25 1276.22C1217.8 1275.04 1222.22 1272.23 1225.08 1269.97C1227.94 1267.72 1232.75 1264.78 1235.77 1263.43C1238.79 1262.07 1241.26 1260.53 1241.26 1259.99C1241.26 1259.45 1242.77 1258.23 1244.61 1257.27C1246.46 1256.31 1248.67 1254.86 1249.52 1254.05C1250.38 1253.23 1254.19 1250.23 1258.01 1247.37C1266.65 1240.9 1277.85 1231.62 1281.79 1227.68C1283.43 1226.04 1290.71 1219.34 1297.96 1212.8C1311.58 1200.51 1322.31 1189.14 1334.27 1174.31C1338.07 1169.59 1343.32 1163.32 1345.93 1160.37C1350.05 1155.73 1354.42 1149.64 1358.48 1142.93C1361.33 1138.21 1368.87 1127.07 1369.56 1126.55C1370.29 1126.01 1372.34 1122.44 1378.39 1111.25C1379.79 1108.65 1381.7 1105.68 1382.63 1104.64C1383.55 1103.59 1386.73 1098.04 1389.69 1092.29C1392.65 1086.54 1395.78 1080.53 1396.65 1078.94C1399.4 1073.83 1403.85 1063.4 1405.32 1058.61C1406.1 1056.06 1407.4 1053.18 1408.2 1052.23C1409 1051.27 1410.53 1047.35 1411.61 1043.52C1412.68 1039.68 1414.25 1035.47 1415.09 1034.16C1415.93 1032.85 1417.39 1028.93 1418.35 1025.45C1419.3 1021.97 1421.12 1016.25 1422.39 1012.74C1428.82 994.951 1434.14 973.767 1440.75 939.569L1444 922.728L1443.98 869.885C1443.96 823.304 1443.72 816.354 1442 811.234C1440.92 808.04 1439.22 800.201 1438.23 793.813C1437.24 787.428 1435.42 778.543 1434.21 774.07C1432.99 769.6 1431.49 762.212 1430.89 757.654C1430.28 753.094 1428.97 748.124 1427.98 746.605C1427 745.085 1425.58 740.976 1424.84 737.47C1424.1 733.967 1422.81 729.728 1421.95 728.05C1421.1 726.375 1419.4 721.408 1418.18 717.016C1416.95 712.624 1414.02 704.59 1411.67 699.16C1409.32 693.732 1406.49 686.415 1405.38 682.9C1404.28 679.388 1402.76 675.466 1402.02 674.191C1401.28 672.912 1399.66 669.516 1398.42 666.64C1397.18 663.767 1395.4 660.109 1394.46 658.512C1393.52 656.915 1390.56 651.013 1387.86 645.394C1385.17 639.779 1382.49 634.887 1381.91 634.523C1381.32 634.163 1379.82 631.702 1378.57 629.057C1374.64 620.743 1364.76 604.649 1362.44 602.763C1362.05 602.445 1360.91 600.614 1359.92 598.699C1358.92 596.784 1355.47 591.947 1352.25 587.951C1349.02 583.955 1346.38 580.261 1346.38 579.739C1346.38 579.219 1345.21 577.713 1343.78 576.392C1342.35 575.071 1339.36 571.786 1337.14 569.091C1318.37 546.359 1267.81 497.077 1263.26 497.077C1262.46 497.077 1260.08 495.324 1250.5 487.686C1245.16 483.43 1239.55 479.687 1235.96 477.99C1234.01 477.064 1231.71 475.458 1230.85 474.422C1229.99 473.383 1227.7 471.712 1225.75 470.709C1223.79 469.702 1221.94 468.501 1221.62 468.037C1221.3 467.573 1218.86 466.086 1216.21 464.729C1213.55 463.376 1211.09 461.798 1210.74 461.227C1210.2 460.35 1190.47 450.362 1157.5 434.261C1153.69 432.401 1149.85 430.876 1148.98 430.876C1148.1 430.879 1145.7 429.83 1143.64 428.555C1141.58 427.276 1137.36 425.89 1134.26 425.477C1131.16 425.065 1126.28 423.52 1123.42 422.049C1120.57 420.576 1115.02 418.859 1111.1 418.235C1107.19 417.612 1102.4 416.278 1100.46 415.272C1098.53 414.265 1093.41 412.694 1089.1 411.779C1084.79 410.863 1079.21 409.25 1076.72 408.198C1074.22 407.143 1066.94 405.78 1060.54 405.166C1054.14 404.556 1045.53 403.079 1041.4 401.885C1036.73 400.534 1028.21 399.463 1018.88 399.051C1010.62 398.684 1001 397.6 997.504 396.642C994.011 395.685 991.15 394.948 991.15 395.003C991.15 395.061 989.855 395.467 988.273 395.912ZM728.337 398.343C724.207 398.84 716.297 399.31 710.763 399.385C703.927 399.476 698.922 400.219 695.167 401.7C692 402.946 683.931 404.378 676.275 405.05C667.057 405.858 661.503 406.945 658.368 408.549C655.869 409.825 650.36 411.412 646.127 412.071C641.891 412.733 637.212 414.067 635.73 415.041C634.245 416.015 629.118 417.622 624.332 418.612C619.551 419.602 613.593 421.462 611.094 422.741C608.595 424.023 605.176 425.072 603.5 425.072C601.824 425.072 598.008 426.377 595.018 427.974C592.031 429.571 588.909 430.879 588.079 430.879C587.249 430.879 583.765 432.366 580.343 434.187C576.917 436.004 572.319 437.842 570.126 438.267C567.934 438.695 565.073 440.033 563.772 441.244C562.471 442.454 559.219 444.029 556.546 444.743C553.872 445.454 551.364 446.564 550.97 447.204C550.573 447.846 547.302 449.839 543.698 451.634C531.832 457.546 529.097 459.107 525.794 461.847C523.999 463.337 521.92 464.567 521.174 464.58C519.769 464.603 512.401 469.196 505.378 474.429C498.808 479.327 491.02 484.258 489.822 484.28C489.211 484.293 487.652 485.339 486.357 486.608C482.017 490.867 472.899 498.239 471.976 498.239C471.472 498.239 469.554 499.54 467.714 501.134C465.873 502.728 462.809 505.318 460.901 506.896C456.361 510.649 432.813 532.907 423.956 541.818C416.927 548.888 412.487 553.812 401.984 566.17C398.81 569.906 395.051 574.194 393.637 575.697C392.223 577.197 390.45 579.589 389.698 581.014C388.946 582.436 385.898 586.474 382.927 589.99C377.067 596.92 373.793 601.89 370.264 609.223C369.011 611.82 366.931 614.904 365.637 616.082C364.345 617.26 363.286 618.844 363.286 619.604C363.286 620.364 362.292 621.889 361.081 622.993C359.867 624.097 358.223 626.661 357.429 628.69C356.631 630.719 355.107 633.426 354.042 634.702C352.98 635.981 351.417 638.853 350.574 641.09C349.731 643.327 348.385 645.94 347.581 646.897C346.78 647.855 345.033 650.991 343.7 653.867C342.366 656.739 340.558 660.398 339.677 661.995C335.85 668.925 330.939 679.569 330.939 680.929C330.939 681.744 329.909 684.438 328.653 686.915C327.397 689.392 325.793 693.294 325.085 695.582C324.382 697.868 322.602 702.354 321.133 705.548C317.688 713.043 313.891 724.505 311.757 733.87C310.827 737.947 308.783 744.008 307.217 747.338C305.651 750.665 304.369 755.265 304.369 757.56C304.369 759.855 303.107 765.815 301.563 770.804C299.9 776.186 298.254 785.607 297.524 793.952C296.846 801.694 295.522 809.881 294.579 812.143C289.823 823.586 289.801 915.587 294.55 929.12C295.519 931.879 297.056 941.241 297.966 949.921C298.877 958.598 300.369 967.531 301.286 969.764C302.203 972.001 303.581 977.75 304.35 982.541C305.118 987.332 306.484 992.416 307.382 993.841C308.279 995.266 309.777 999.752 310.714 1003.81C311.65 1007.87 313.426 1013.5 314.656 1016.32C315.886 1019.14 317.275 1023.53 317.743 1026.08C318.211 1028.63 319.813 1033.02 321.301 1035.84C322.79 1038.65 324.007 1041.66 324.007 1042.52C324.007 1043.38 325.567 1047.41 327.472 1051.46C329.38 1055.52 330.939 1059.19 330.939 1059.62C330.939 1061.2 340.158 1079.95 341.275 1080.64C341.908 1081.03 343.012 1083.56 343.722 1086.24C344.433 1088.93 345.689 1091.92 346.509 1092.87C347.332 1093.83 349.492 1097.43 351.313 1100.87C353.131 1104.31 355.349 1108.49 356.241 1110.16C357.132 1111.83 359.082 1114.68 360.574 1116.48C362.066 1118.29 363.286 1120.47 363.286 1121.33C363.286 1122.19 364.513 1124.37 366.011 1126.17C367.509 1127.98 369.608 1131.02 370.677 1132.94C371.742 1134.86 374.174 1138.52 376.076 1141.07C379.382 1145.51 381.813 1148.89 388.164 1157.91C391.354 1162.44 394.771 1166.72 399.097 1171.62C414.186 1188.7 421.683 1196.87 428.657 1203.79C440.988 1216.03 462.393 1235.33 466.012 1237.47C469.225 1239.36 476.451 1245.02 486.893 1253.82C492.295 1258.38 498.013 1262.5 499.602 1262.98C501.19 1263.48 503.447 1264.72 504.616 1265.75C506.641 1267.55 512.001 1270.83 522.055 1276.43C524.558 1277.83 527.289 1279.66 528.129 1280.5C528.965 1281.34 530.818 1282.38 532.242 1282.82C533.669 1283.25 535.891 1284.58 537.179 1285.76C538.468 1286.94 541.832 1288.73 544.654 1289.73C547.479 1290.73 550.844 1292.51 552.132 1293.69C553.42 1294.87 556.372 1296.17 558.69 1296.59C561.008 1297 564.127 1298.3 565.622 1299.48C567.114 1300.66 570.039 1302 572.119 1302.45C574.201 1302.91 577.32 1304.47 579.051 1305.92C580.782 1307.37 584.279 1308.93 586.82 1309.39C589.364 1309.85 593.193 1311.25 595.334 1312.5C597.472 1313.76 601.769 1315.33 604.879 1316C607.991 1316.68 611.294 1317.99 612.224 1318.92C613.151 1319.85 617.171 1321.18 621.159 1321.88C625.146 1322.57 630.748 1324.3 633.609 1325.72C636.467 1327.14 641.927 1328.62 645.737 1329.01C649.55 1329.4 655.714 1330.77 659.43 1332.06C663.15 1333.35 670.169 1334.91 675.026 1335.53C679.885 1336.14 685.939 1337.39 688.48 1338.29C696.307 1341.09 748.547 1343.35 752.237 1341.06C753.442 1340.31 753.212 1257.13 751.992 1253.44C751.64 1252.37 747.3 1251.98 735.567 1251.98C723.248 1251.98 717.789 1251.47 711.56 1249.71C707.127 1248.46 698.299 1246.83 691.948 1246.09C685.594 1245.35 676.756 1243.53 672.307 1242.05C667.861 1240.56 661.726 1239.02 658.678 1238.62C655.63 1238.22 650.431 1236.62 647.125 1235.07C643.822 1233.53 640.076 1232.25 638.807 1232.24C637.535 1232.23 633.896 1231.01 630.719 1229.53C627.542 1228.05 622.499 1226.22 619.512 1225.47C616.525 1224.72 611.64 1222.8 608.656 1221.2C605.67 1219.61 602.605 1218.31 601.847 1218.31C601.085 1218.31 599.532 1217.27 598.395 1216C597.255 1214.74 594.537 1213.37 592.357 1212.96C590.174 1212.54 586.997 1211.04 585.296 1209.62C583.594 1208.19 580.291 1206.4 577.96 1205.64C575.628 1204.87 573.091 1203.49 572.322 1202.55C571.55 1201.62 568.78 1199.8 566.165 1198.51C560.588 1195.76 554.153 1191.87 550.288 1188.91C548.777 1187.75 544.906 1185.14 541.68 1183.1C538.455 1181.07 532.736 1176.76 528.971 1173.54C525.207 1170.32 520.828 1166.86 519.24 1165.86C512.02 1161.29 472.467 1122.12 471.278 1118.36C470.888 1117.12 470.093 1116.1 469.519 1116.1C468.941 1116.1 467.701 1114.66 466.758 1112.91C465.815 1111.15 462.554 1106.98 459.509 1103.65C456.461 1100.31 452.151 1094.95 449.926 1091.73C447.704 1088.52 444.453 1083.99 442.706 1081.67C440.959 1079.35 439.529 1076.92 439.529 1076.27C439.529 1075.62 438.231 1073.38 436.642 1071.28C435.054 1069.19 433.753 1066.96 433.753 1066.33C433.753 1065.7 432.548 1063.7 431.076 1061.9C427.866 1057.97 420.521 1044.68 419.303 1040.61C418.826 1039.01 417.46 1036.32 416.275 1034.62C415.087 1032.93 414.115 1030.84 414.111 1029.98C414.108 1029.12 412.552 1025.28 410.65 1021.45C408.748 1017.62 407.192 1013.78 407.189 1012.93C407.186 1012.08 405.623 1007.81 403.718 1003.45C401.813 999.08 400.253 994.649 400.253 993.597C400.253 992.549 398.981 988.978 397.428 985.664C395.875 982.35 394.089 976.419 393.466 972.481C392.84 968.547 391.471 962.798 390.425 959.708C389.375 956.615 388.061 948.061 387.502 940.699C386.944 933.333 385.73 925.494 384.81 923.274C379.747 911.094 379.488 828.601 384.474 816.451C385.388 814.221 386.769 806.648 387.544 799.62C388.319 792.595 389.685 785.064 390.576 782.886C391.471 780.708 392.762 775.219 393.447 770.691C394.128 766.162 395.629 760.287 396.779 757.632C397.928 754.98 399.695 749.958 400.702 746.468C401.709 742.982 403.317 738.619 404.273 736.775C405.232 734.932 406.017 732.581 406.02 731.552C406.026 730.523 407.55 726.82 409.407 723.317C411.267 719.818 413.143 715.036 413.582 712.693C414.018 710.349 415.261 707.259 416.346 705.827C417.427 704.395 419.029 701.396 419.904 699.16C421.735 694.472 427.763 683.51 432.677 675.934C434.544 673.058 437.188 668.354 438.557 665.481C441.298 659.723 443.975 655.652 449.629 648.64C451.689 646.086 454.404 642.687 455.667 641.09C458.608 637.37 469.58 623.723 477.316 614.164C486.431 602.903 507.842 581.982 515.407 576.944C519.104 574.483 524.47 570.435 527.334 567.949C533.605 562.502 539.401 558.243 544.079 555.643C545.984 554.581 548.719 552.634 550.156 551.313C553.559 548.183 569.503 538.192 574.692 535.939C576.917 534.972 580.036 533.375 581.621 532.388C583.21 531.401 586.064 529.979 587.959 529.226C589.858 528.47 596.71 525.159 603.187 521.867C609.661 518.576 616.687 515.505 618.798 515.047C620.907 514.589 624.969 512.97 627.823 511.454C630.677 509.934 634.055 508.685 635.33 508.681C636.609 508.675 640.461 507.354 643.896 505.747C647.332 504.14 653.37 502.365 657.315 501.803C661.264 501.241 666.195 499.894 668.274 498.813C670.353 497.732 676.366 496.148 681.632 495.288C686.898 494.431 693.972 492.87 697.353 491.815C701.677 490.471 710.433 489.653 726.862 489.069C739.712 488.608 750.629 487.828 751.123 487.335C752.437 486.014 752.825 401.602 751.527 399.58C750.232 397.567 739.496 396.996 728.337 398.343ZM596.438 615.676C594.204 616.514 592.845 618.322 591.531 622.191C590.533 625.132 589.002 628.369 588.127 629.381C587.252 630.391 585.883 633.309 585.089 635.864C584.291 638.418 582.942 641.32 582.086 642.311C581.227 643.301 579.745 646.339 578.79 649.062C577.834 651.789 576 655.36 574.715 657.002C573.433 658.642 572.38 660.625 572.38 661.411C572.38 662.193 571.105 664.725 569.545 667.036C567.982 669.347 566.116 673.47 565.393 676.2C564.67 678.927 563.414 681.942 562.6 682.9C561.786 683.857 560.456 686.733 559.646 689.288C558.832 691.843 556.991 695.501 555.551 697.42C554.115 699.335 552.574 702.867 552.132 705.269C551.69 707.668 550.363 710.862 549.187 712.365C548.012 713.868 546.556 717.312 545.952 720.016C545.345 722.72 543.831 726.057 542.581 727.433C541.332 728.809 539.94 732.536 539.485 735.714C539.033 738.892 537.409 743.852 535.881 746.738C534.354 749.623 533.098 753.035 533.092 754.317C533.085 755.6 531.874 759.261 530.402 762.455C528.93 765.649 527.063 771.655 526.259 775.797C525.452 779.942 524.028 784.821 523.092 786.639C522.155 788.457 520.893 793.167 520.286 797.104C519.679 801.045 518.177 806.878 516.954 810.072C515.73 813.267 513.938 821.434 512.969 828.218C512.001 835.006 510.677 841.965 510.025 843.683C503.141 861.883 507.422 932.584 516.479 950.255C517.364 951.979 518.83 956.605 519.743 960.532C520.654 964.46 522.146 968.534 523.059 969.589C523.97 970.644 526.96 976.211 529.698 981.96C532.439 987.709 535.884 993.889 537.357 995.694C538.829 997.502 540.034 999.521 540.034 1000.19C540.034 1000.85 541.464 1003.13 543.211 1005.26C544.958 1007.38 547.689 1010.8 549.278 1012.86C560.679 1027.64 586.994 1051.17 601.094 1059.2C602.783 1060.16 607.3 1063.37 611.139 1066.34C614.979 1069.31 619.912 1072.57 622.108 1073.58C624.303 1074.6 629.218 1077.28 633.031 1079.53C636.841 1081.79 642.224 1084.67 644.991 1085.94C647.758 1087.21 651.335 1089.29 652.943 1090.56C654.551 1091.83 656.737 1092.87 657.8 1092.87C658.862 1092.87 661.49 1094.18 663.644 1095.78C665.797 1097.38 668.329 1098.68 669.268 1098.68C670.805 1098.68 685.855 1105.42 690.214 1108.06C691.167 1108.64 694.547 1110.49 697.724 1112.18C700.898 1113.87 703.782 1115.68 704.124 1116.22C704.466 1116.75 706.917 1117.97 709.568 1118.9C712.219 1119.84 715.964 1121.79 717.895 1123.22C720.262 1124.98 723.11 1125.85 726.658 1125.9L731.915 1125.97L735.818 1118.42C752.68 1085.82 749.996 1053.21 728.418 1028.42C722.603 1021.73 715.867 1016.32 712.335 1015.48C710.653 1015.08 708.234 1013.84 706.965 1012.73C705.693 1011.61 702.574 1010.04 700.033 1009.23C697.492 1008.42 694.218 1006.82 692.758 1005.68C691.299 1004.54 688.606 1003.28 686.775 1002.87C684.941 1002.47 682.778 1001.33 681.964 1000.35C681.151 999.362 677.867 997.282 674.664 995.727C671.461 994.172 666.424 991.481 663.466 989.751C660.509 988.021 656.35 985.635 654.225 984.443C652.097 983.255 649.317 981.285 648.048 980.064C646.776 978.844 641.817 974.796 637.025 971.069C621.42 958.932 605.718 939.754 602.841 929.315C602.079 926.549 600.675 923.413 599.722 922.345C598.77 921.281 597.136 917.074 596.09 913C595.047 908.926 593.313 904.242 592.238 902.593C589.416 898.256 589.4 850.249 592.222 844.916C593.235 842.998 594.892 837.375 595.906 832.419C596.92 827.459 598.615 821.726 599.667 819.674C600.723 817.623 602.283 812.942 603.135 809.271C603.987 805.603 605.734 800.629 607.016 798.224C608.298 795.819 609.351 793.056 609.354 792.089C609.354 791.122 610.913 787.194 612.815 783.36C614.714 779.53 616.273 775.842 616.276 775.167C616.276 774.492 617.552 772.207 619.108 770.087C620.661 767.967 622.256 764.767 622.647 762.975C623.038 761.18 624.126 759.073 625.062 758.294C625.999 757.512 627.813 754.421 629.095 751.428C633.244 741.729 644.074 739.992 654.794 747.306C656.947 748.776 660.728 750.63 663.198 751.428C665.668 752.227 668.493 753.584 669.478 754.444C670.463 755.304 673.556 756.82 676.353 757.81C679.149 758.803 682.242 760.297 683.227 761.134C684.208 761.972 686.833 763.348 689.058 764.195C691.283 765.042 694.14 766.633 695.413 767.727C696.685 768.824 699.804 770.366 702.345 771.152C704.886 771.94 708.17 773.349 709.645 774.281C711.121 775.212 714.25 776.657 716.6 777.491C718.954 778.322 722.887 780.377 725.344 782.055C727.804 783.73 730.497 785.103 731.334 785.103C732.17 785.103 734.769 786.412 737.11 788.009C739.451 789.602 742.334 790.911 743.516 790.911C744.698 790.911 746.742 791.992 748.056 793.313C749.37 794.634 752.592 796.478 755.217 797.409C757.842 798.341 760.797 799.805 761.782 800.665C762.766 801.525 765.65 802.886 768.191 803.681C770.732 804.479 773.851 806.063 775.123 807.203C776.392 808.339 779.376 809.8 781.749 810.446C784.119 811.088 787.438 812.708 789.124 814.039C790.809 815.37 792.879 816.461 793.725 816.461C795.649 816.461 813.857 825.712 815.926 827.741C816.766 828.562 818.067 829.237 818.816 829.237C820.03 829.234 832.71 835.093 840.395 839.203C841.983 840.053 845.451 841.855 848.099 843.209C850.75 844.559 853.178 846.344 853.494 847.175C855.467 852.34 874.549 851.619 883.003 846.062C885.302 844.549 888.614 842.965 890.368 842.533C892.121 842.105 893.806 841.349 894.113 840.849C894.807 839.719 912.724 830.896 916.638 829.76C918.226 829.296 920.996 827.683 922.792 826.173C924.587 824.664 926.728 823.43 927.545 823.43C928.365 823.43 930.389 822.359 932.046 821.047C933.705 819.736 937.544 817.834 940.579 816.821C943.615 815.808 946.876 814.318 947.828 813.513C948.781 812.705 951.764 811.39 954.454 810.592C957.143 809.79 960.214 808.17 961.273 806.992C962.336 805.814 963.776 804.846 964.47 804.843C966.129 804.836 983.597 795.939 985.9 793.926C986.881 793.069 989.765 791.712 992.306 790.911C994.847 790.109 997.708 788.801 998.66 788.002C999.613 787.204 1002.73 785.435 1005.59 784.071C1008.45 782.705 1012.09 780.857 1013.68 779.965C1020.97 775.858 1030.8 771.398 1034.18 770.648C1036.23 770.197 1038.22 769.318 1038.61 768.694C1038.99 768.068 1041.98 766.273 1045.26 764.702C1048.54 763.131 1052.52 761.069 1054.11 760.128C1055.7 759.183 1058.82 757.632 1061.04 756.68C1063.27 755.733 1065.87 754.467 1066.82 753.869C1080.24 745.478 1095.37 741.203 1101.3 744.131C1107.63 747.257 1127.05 786.376 1132.6 807.17C1133.71 811.322 1135.43 816.308 1136.43 818.253C1137.43 820.197 1138.84 825.16 1139.56 829.286C1140.28 833.412 1141.88 839.794 1143.12 843.468C1146.12 852.372 1146.49 895.15 1143.62 902.044C1142.66 904.359 1141.08 909.679 1140.12 913.863C1139.15 918.047 1137.61 922.303 1136.7 923.319C1135.79 924.335 1134.25 927.409 1133.29 930.152C1132.32 932.892 1130.36 936.622 1128.92 938.443C1127.49 940.261 1124.49 944.231 1122.27 947.266C1114.3 958.143 1090.56 980.259 1083.82 983.09C1081.55 984.044 1079.38 985.313 1079.02 985.904C1078.05 987.478 1061.44 996.477 1059.5 996.477C1058.6 996.477 1057.15 997.334 1056.29 998.379C1055.43 999.424 1052.37 1001.29 1049.5 1002.53C1046.64 1003.76 1043.51 1005.47 1042.56 1006.32C1041.6 1007.17 1039 1008.36 1036.78 1008.97C1034.56 1009.58 1030.72 1011.46 1028.25 1013.15C1025.77 1014.84 1023.12 1016.22 1022.34 1016.22C1021.14 1016.22 1013.98 1021.17 1011.03 1024.04C1010.52 1024.53 1007.76 1028.58 1004.9 1033.04C1002.03 1037.5 999.044 1041.94 998.257 1042.91C997.472 1043.88 996.135 1046.77 995.289 1049.32C994.446 1051.88 992.91 1054.94 991.873 1056.12C988.641 1059.82 989.132 1096.88 992.474 1101.6C993.84 1103.52 995.531 1107.24 996.232 1109.86C996.936 1112.49 998.441 1115.88 999.574 1117.4C1000.71 1118.92 1002.29 1121.68 1003.08 1123.52C1004.84 1127.59 1014.23 1127.33 1019.44 1123.06C1021.03 1121.75 1024.16 1119.86 1026.38 1118.86C1028.61 1117.85 1031.21 1116.37 1032.16 1115.55C1033.12 1114.74 1036.58 1113.2 1039.86 1112.13C1043.14 1111.05 1046.11 1109.42 1046.46 1108.49C1046.82 1107.57 1047.8 1106.81 1048.65 1106.81C1049.5 1106.81 1053.81 1104.98 1058.22 1102.75C1062.63 1100.51 1067.07 1098.69 1068.08 1098.68C1069.09 1098.68 1070.85 1097.66 1071.97 1096.4C1073.1 1095.15 1076.55 1093.29 1079.65 1092.25C1082.74 1091.22 1085.6 1089.85 1085.99 1089.2C1086.39 1088.56 1088.86 1087.01 1091.49 1085.75C1094.12 1084.49 1099.39 1081.7 1103.21 1079.54C1107.02 1077.38 1112.29 1074.58 1114.92 1073.31C1117.55 1072.04 1120.06 1070.43 1120.49 1069.72C1120.92 1069.02 1123.18 1067.39 1125.53 1066.1C1130.05 1063.59 1136.02 1059.53 1140.75 1055.73C1142.34 1054.46 1144.27 1053.41 1145.03 1053.4C1151.61 1053.33 1194.49 1005.52 1204.42 987.186C1205.63 984.95 1207.08 982.337 1207.65 981.379C1212.84 972.527 1218.07 958.491 1222.79 940.731C1224.57 934.025 1226.61 926.708 1227.32 924.472C1228.75 919.969 1229.25 859.364 1227.92 851.743C1227.49 849.266 1226.44 844.887 1225.6 842.011C1224.75 839.138 1223.47 832.081 1222.74 826.332C1222.01 820.583 1220.17 812.134 1218.63 807.557C1217.1 802.976 1215.84 798.221 1215.84 796.987C1215.84 794.02 1209.53 772.509 1205.96 763.306C1204.41 759.3 1203.13 755.119 1203.13 754.012C1203.13 752.909 1201.66 748.867 1199.86 745.037C1198.06 741.203 1196.25 736.324 1195.83 734.195C1195.41 732.065 1194.09 728.93 1192.89 727.225C1191.69 725.524 1190.33 722.301 1189.85 720.064C1189.38 717.831 1187.81 713.91 1186.36 711.355C1184.92 708.8 1183.35 705.402 1182.89 703.805C1182.42 702.208 1181.1 699.565 1179.95 697.929C1178.81 696.293 1177.52 693.417 1177.09 691.541C1176.28 687.986 1171.45 676.8 1166.84 667.802C1165.37 664.929 1163.83 661.154 1163.42 659.411C1163.01 657.671 1161.38 654.334 1159.8 651.99C1158.22 649.65 1156.93 646.975 1156.93 646.044C1156.93 645.112 1155.87 642.869 1154.59 641.058C1153.31 639.243 1151.53 635.766 1150.63 633.329C1143.59 614.079 1137.01 610.629 1124.13 619.435C1121.66 621.126 1118.75 622.509 1117.67 622.509C1116.58 622.509 1114.77 623.532 1113.65 624.782C1112.52 626.035 1109.1 627.891 1106.05 628.911C1102.99 629.93 1099.9 631.488 1099.17 632.368C1098.44 633.251 1096.35 634.302 1094.52 634.708C1092.68 635.114 1089.89 636.464 1088.32 637.711C1086.74 638.957 1083.23 640.765 1080.52 641.726C1077.81 642.687 1074.79 644.177 1073.81 645.041C1072.82 645.901 1070.1 647.222 1067.75 647.978C1065.41 648.735 1062.29 650.273 1060.83 651.396C1059.36 652.523 1056.33 654.146 1054.11 655.006C1051.88 655.866 1049.29 657.2 1048.33 657.973C1047.38 658.742 1043.91 660.255 1040.63 661.329C1037.34 662.404 1034.03 664.04 1033.26 664.962C1032.5 665.887 1031.27 666.64 1030.52 666.64C1029.78 666.64 1024.25 669.23 1018.24 672.392C1012.24 675.554 1005.51 679.014 1003.28 680.082C1001.06 681.147 998.457 682.491 997.504 683.062C996.552 683.633 992.651 685.675 988.841 687.6C985.028 689.522 978.528 692.963 974.399 695.248C970.269 697.533 964.631 700.098 961.871 700.945C959.11 701.789 955.991 703.237 954.941 704.159C953.889 705.08 950.947 706.502 948.406 707.317C945.865 708.132 941.974 710.024 939.763 711.527C937.551 713.03 935.291 714.257 934.742 714.257C934.196 714.257 932.22 715.351 930.357 716.685C928.494 718.019 925.142 719.616 922.911 720.236C920.677 720.856 916.983 722.639 914.697 724.197C912.411 725.758 909.644 727.034 908.546 727.034C907.448 727.034 905.207 728.099 903.564 729.397C901.917 730.699 898.859 732.338 896.764 733.042C894.668 733.747 891.301 735.558 889.279 737.068C887.255 738.574 885.117 739.811 884.527 739.811C883.939 739.811 881.491 741.378 879.092 743.294C874.117 747.27 865.25 748.095 860.032 745.069C858.444 744.147 854.437 742.015 851.127 740.327C847.818 738.639 844.505 736.529 843.766 735.633C843.026 734.734 841.573 734 840.54 733.993C839.507 733.99 837.359 733.26 835.771 732.37C827.114 727.524 818.487 722.934 814.399 721.003C811.858 719.802 808.739 718.217 807.47 717.481C799.624 712.936 775.491 701.51 771.417 700.409C768.743 699.689 766.228 698.562 765.824 697.907C765.421 697.251 762.172 695.303 758.601 693.583C755.033 691.859 751.075 689.928 749.806 689.288C743.206 685.961 728.479 678.339 725.447 676.677C723.542 675.635 720.162 674.005 717.94 673.058C715.716 672.11 713.116 670.847 712.164 670.25C708.825 668.163 692.917 660.833 691.728 660.833C691.066 660.833 689.197 659.784 687.576 658.502C685.952 657.217 683.059 655.853 681.147 655.467C679.233 655.084 676.585 653.756 675.264 652.52C673.944 651.283 670.686 649.497 668.022 648.553C665.358 647.608 662.375 646.131 661.39 645.271C660.405 644.411 657.625 643.07 655.213 642.291C652.798 641.512 649.941 639.947 648.859 638.814C647.777 637.682 644.813 636.085 642.272 635.27C639.731 634.452 636.457 632.851 634.997 631.712C633.538 630.569 630.881 629.313 629.089 628.917C627.3 628.524 624.714 627.148 623.341 625.866C621.969 624.58 619.17 622.951 617.119 622.24C615.069 621.532 611.572 619.766 609.347 618.315C604.243 614.988 600.371 614.196 596.438 615.676Z" fill="white"/>
</svg>
