<svg width="187" height="129" viewBox="0 0 187 129" fill="none" xmlns="http://www.w3.org/2000/svg">
<path d="M182.436 127.975C182.97 128.117 183.518 127.8 183.66 127.266L185.974 118.568C186.116 118.035 185.798 117.487 185.265 117.345C184.731 117.203 184.183 117.521 184.041 118.054L181.984 125.785L174.253 123.728C173.719 123.586 173.172 123.904 173.03 124.437C172.888 124.971 173.205 125.519 173.739 125.661L182.436 127.975ZM-7.07471 54.4879L-6.08875 54.3209L-6.09034 54.3115L-6.0921 54.3022L-7.07471 54.4879ZM182.693 127.009C183.558 126.507 183.558 126.507 183.558 126.507C183.558 126.507 183.558 126.507 183.558 126.507C183.558 126.507 183.558 126.507 183.558 126.507C183.558 126.506 183.558 126.506 183.558 126.506C183.557 126.505 183.557 126.504 183.556 126.503C183.554 126.5 183.552 126.496 183.549 126.491C183.543 126.48 183.534 126.465 183.522 126.445C183.499 126.406 183.465 126.347 183.419 126.271C183.329 126.118 183.194 125.893 183.017 125.601C182.662 125.017 182.136 124.166 181.448 123.092L179.764 124.17C180.442 125.23 180.96 126.068 181.307 126.639C181.481 126.925 181.612 127.144 181.699 127.291C181.743 127.365 181.775 127.42 181.797 127.457C181.808 127.475 181.816 127.489 181.821 127.498C181.824 127.502 181.825 127.506 181.827 127.508C181.827 127.509 181.828 127.509 181.828 127.51C181.828 127.51 181.828 127.51 181.828 127.51C181.828 127.51 181.828 127.51 181.828 127.51C181.828 127.51 181.828 127.51 181.828 127.51C181.828 127.51 181.828 127.51 182.693 127.009ZM176.911 116.358C175.507 114.369 173.896 112.166 172.096 109.824L170.51 111.043C172.293 113.361 173.887 115.542 175.277 117.511L176.911 116.358ZM167.02 103.499C165.344 101.498 163.556 99.4501 161.665 97.3915L160.192 98.7444C162.061 100.779 163.829 102.804 165.487 104.784L167.02 103.499ZM156.028 91.5517C154.125 89.6787 152.14 87.8257 150.081 86.0215L148.763 87.5258C150.791 89.3026 152.747 91.1291 154.626 92.9774L156.028 91.5517ZM143.791 80.8644C141.637 79.2191 139.416 77.6468 137.134 76.1745L136.049 77.8551C138.283 79.2963 140.461 80.8378 142.577 82.4539L143.791 80.8644ZM130.086 72.0726C127.658 70.8131 125.172 69.6834 122.633 68.7121L121.919 70.5801C124.381 71.5222 126.798 72.6202 129.165 73.848L130.086 72.0726ZM114.812 66.2888C112.155 65.6611 109.451 65.2236 106.708 65.0057L106.55 66.9994C109.186 67.2088 111.788 67.6296 114.352 68.2352L114.812 66.2888ZM98.4865 65.0297C95.8175 65.2607 93.1207 65.715 90.4021 66.4165L90.9018 68.3531C93.5123 67.6794 96.0995 67.2438 98.6589 67.0223L98.4865 65.0297ZM82.6146 69.0994C80.2096 70.1399 77.7939 71.3855 75.3711 72.8511L76.4063 74.5624C78.7546 73.1418 81.0899 71.9382 83.4088 70.9349L82.6146 69.0994ZM68.6576 77.4755C67.5868 78.3047 66.5153 79.1792 65.4434 80.1003L66.7468 81.6172C67.7937 80.7177 68.8389 79.8647 69.8821 79.0568L68.6576 77.4755ZM65.4434 80.1003C64.3104 81.0738 63.1949 82.0003 62.0965 82.8813L63.3478 84.4415C64.4645 83.5459 65.5974 82.6049 66.7468 81.6172L65.4434 80.1003ZM55.2868 87.9201C52.7462 89.6362 50.3092 91.0915 47.9724 92.3092L48.8966 94.0829C51.307 92.8269 53.809 91.3318 56.4063 89.5775L55.2868 87.9201ZM40.245 95.6219C37.3396 96.5833 34.6181 97.1444 32.0698 97.3672L32.244 99.3596C34.9603 99.1221 37.8342 98.5263 40.8733 97.5207L40.245 95.6219ZM23.8203 96.8606C21.0394 96.2385 18.4995 95.1713 16.1793 93.7697L15.1451 95.4816C17.6362 96.9864 20.3765 98.1396 23.3837 98.8123L23.8203 96.8606ZM9.71645 88.5246C7.78314 86.5081 6.06026 84.2607 4.52987 81.9024L2.85218 82.9911C4.43865 85.4358 6.23783 87.7862 8.27277 89.9087L9.71645 88.5246ZM0.43469 74.4808C-0.842916 71.7653 -1.90109 69.0792 -2.76687 66.5938L-4.65556 67.2517C-3.77096 69.7912 -2.68718 72.5433 -1.37502 75.3322L0.43469 74.4808ZM-5.19698 58.4175C-5.51204 57.1431 -5.73582 56.1141 -5.88045 55.4059C-5.95275 55.0519 -6.00526 54.7781 -6.03947 54.5941C-6.05657 54.5021 -6.06911 54.4325 -6.07726 54.3866C-6.08133 54.3636 -6.08431 54.3466 -6.08623 54.3356C-6.08718 54.3301 -6.08786 54.3261 -6.08828 54.3236C-6.0885 54.3224 -6.08864 54.3216 -6.08871 54.3211C-6.08876 54.3209 -6.08878 54.3207 -6.08879 54.3207C-6.08879 54.3207 -6.08878 54.3207 -6.08878 54.3207C-6.08878 54.3207 -6.08877 54.3208 -6.08876 54.3208C-6.08876 54.3208 -6.08875 54.3209 -7.07471 54.4879C-8.06066 54.6549 -8.06065 54.655 -8.06064 54.6551C-8.06063 54.6551 -8.06062 54.6552 -8.0606 54.6552C-8.06059 54.6554 -8.06056 54.6555 -8.06053 54.6557C-8.06047 54.656 -8.06039 54.6565 -8.0603 54.657C-8.06012 54.6581 -8.05986 54.6596 -8.05955 54.6615C-8.05891 54.6652 -8.058 54.6704 -8.05682 54.6772C-8.05447 54.6908 -8.05103 54.7105 -8.04649 54.7361C-8.03741 54.7873 -8.02389 54.8622 -8.00577 54.9597C-7.96951 55.1547 -7.91477 55.44 -7.84 55.8061C-7.69049 56.5382 -7.46079 57.594 -7.13853 58.8975L-5.19698 58.4175ZM-7.07471 54.4879C-6.0921 54.3022 -6.09211 54.3022 -6.09211 54.3021C-6.09211 54.3021 -6.09212 54.3021 -6.09213 54.3021C-6.09214 54.302 -6.09216 54.3019 -6.09218 54.3018C-6.09222 54.3016 -6.09228 54.3013 -6.09235 54.3009C-6.0925 54.3001 -6.09272 54.299 -6.09299 54.2975C-6.09354 54.2946 -6.09435 54.2903 -6.09541 54.2848C-6.09753 54.2736 -6.10066 54.2572 -6.10481 54.2356C-6.11311 54.1924 -6.12545 54.1284 -6.14177 54.0445C-6.17445 53.8768 -6.22311 53.6296 -6.28742 53.3098C-6.41603 52.6702 -6.60726 51.7403 -6.85829 50.5757L-8.8134 50.9971C-8.56447 52.1519 -8.37512 53.0728 -8.24817 53.7041C-8.18469 54.0198 -8.1368 54.263 -8.10488 54.4269C-8.08891 54.5089 -8.07694 54.571 -8.069 54.6124C-8.06503 54.6331 -8.06206 54.6486 -8.06011 54.6589C-8.05914 54.664 -8.05841 54.6678 -8.05795 54.6702C-8.05772 54.6715 -8.05754 54.6724 -8.05744 54.6729C-8.05738 54.6732 -8.05735 54.6734 -8.05733 54.6735C-8.05731 54.6736 -8.05731 54.6736 -8.05731 54.6736C-8.0573 54.6736 -8.05731 54.6736 -8.0573 54.6736C-8.05731 54.6736 -8.05732 54.6736 -7.07471 54.4879ZM-8.57557 43.1484C-9.13473 40.8802 -9.78298 38.3808 -10.5147 35.7639L-12.4408 36.3024C-11.7155 38.8967 -11.0724 41.3759 -10.5174 43.6271L-8.57557 43.1484ZM-12.7036 28.4497C-13.4804 26.0291 -14.3192 23.5946 -15.2163 21.2256L-17.0867 21.9339C-16.2038 24.2654 -15.3762 26.6669 -14.6079 29.0608L-12.7036 28.4497ZM-18.1924 14.1515C-19.3632 11.6707 -20.6131 9.37224 -21.9383 7.38504L-23.6022 8.49462C-22.3465 10.3778 -21.1433 12.5849 -20.0011 15.0051L-18.1924 14.1515ZM-27.3541 1.56607C-28.5968 0.744996 -29.9237 0.212099 -31.3248 0.0835335L-31.5075 2.07516C-30.502 2.16743 -29.4863 2.55442 -28.4566 3.23475L-27.3541 1.56607Z" fill="#0DBA67"/>
</svg>
