<svg width="295" height="132" viewBox="0 0 295 132" fill="none" xmlns="http://www.w3.org/2000/svg">
<path d="M54.1406 91.9404V108H7.3584V37.4775H25.4053V91.9404H54.1406ZM132.776 72.7119C132.776 79.945 131.146 86.3366 127.888 91.8867C124.629 97.4368 120.082 101.752 114.245 104.831C108.409 107.91 101.749 109.45 94.2648 109.45C86.8527 109.45 80.2463 107.928 74.4455 104.885C68.6805 101.841 64.1509 97.5443 60.8566 91.9941C57.5982 86.444 55.9689 80.0524 55.9689 72.8193C55.9689 65.6221 57.5803 59.2305 60.8029 53.6445C64.0614 48.0228 68.591 43.6722 74.3918 40.5928C80.2284 37.5133 86.8885 35.9736 94.3723 35.9736C101.784 35.9736 108.409 37.5133 114.245 40.5928C120.082 43.6722 124.629 47.987 127.888 53.5371C131.146 59.0514 132.776 65.443 132.776 72.7119ZM113.869 72.7119C113.869 66.6247 112.079 61.737 108.498 58.0488C104.953 54.3249 100.28 52.4629 94.4797 52.4629C88.6073 52.4629 83.8628 54.3428 80.2463 58.1025C76.6298 61.8265 74.8215 66.7321 74.8215 72.8193C74.8215 78.9066 76.6118 83.7764 80.1926 87.4287C83.7733 91.0811 88.4999 92.9072 94.3723 92.9072C100.173 92.9072 104.864 91.0632 108.445 87.375C112.061 83.6868 113.869 78.7992 113.869 72.7119ZM210.175 68.5225V76.6328C210.175 83.0781 208.618 88.8073 205.502 93.8203C202.387 98.7975 198.072 102.647 192.558 105.368C187.079 108.09 180.849 109.45 173.867 109.45C166.526 109.45 160.081 107.946 154.531 104.938C149.016 101.931 144.737 97.7054 141.694 92.2627C138.65 86.7842 137.128 80.4463 137.128 73.249C137.128 65.9801 138.704 59.5348 141.855 53.9131C145.042 48.2555 149.464 43.8512 155.121 40.7002C160.815 37.5492 167.332 35.9736 174.672 35.9736C180.831 35.9736 186.363 37.0658 191.269 39.25C196.175 41.4342 200.167 44.4958 203.246 48.4346C206.326 52.3734 208.277 56.8672 209.101 61.916H190.195C189.156 58.9082 187.223 56.5807 184.394 54.9336C181.565 53.2865 178.217 52.4629 174.35 52.4629C168.478 52.4629 163.894 54.3428 160.6 58.1025C157.306 61.8265 155.659 66.8037 155.659 73.0342C155.659 79.3363 157.324 84.224 160.654 87.6973C163.984 91.1706 168.478 92.9072 174.135 92.9072C178.181 92.9072 181.708 92.0837 184.716 90.4365C187.76 88.7894 189.765 86.5335 190.732 83.6689H174.028V68.5225H210.175ZM291.335 72.7119C291.335 79.945 289.705 86.3366 286.447 91.8867C283.188 97.4368 278.641 101.752 272.804 104.831C266.968 107.91 260.308 109.45 252.824 109.45C245.412 109.45 238.805 107.928 233.004 104.885C227.24 101.841 222.71 97.5443 219.416 91.9941C216.157 86.444 214.528 80.0524 214.528 72.8193C214.528 65.6221 216.139 59.2305 219.362 53.6445C222.62 48.0228 227.15 43.6722 232.951 40.5928C238.787 37.5133 245.448 35.9736 252.931 35.9736C260.343 35.9736 266.968 37.5133 272.804 40.5928C278.641 43.6722 283.188 47.987 286.447 53.5371C289.705 59.0514 291.335 65.443 291.335 72.7119ZM272.428 72.7119C272.428 66.6247 270.638 61.737 267.057 58.0488C263.512 54.3249 258.839 52.4629 253.039 52.4629C247.166 52.4629 242.422 54.3428 238.805 58.1025C235.189 61.8265 233.38 66.7321 233.38 72.8193C233.38 78.9066 235.171 83.7764 238.752 87.4287C242.332 91.0811 247.059 92.9072 252.931 92.9072C258.732 92.9072 263.423 91.0632 267.004 87.375C270.62 83.6868 272.428 78.7992 272.428 72.7119Z" fill="#FAFAFA"/>
<path d="M29.625 94.9922V102H9.21094V71.2266H17.0859V94.9922H29.625ZM63.9384 86.6016C63.9384 89.7578 63.2275 92.5469 61.8056 94.9688C60.3838 97.3906 58.3994 99.2734 55.8525 100.617C53.3056 101.961 50.3994 102.633 47.1338 102.633C43.8994 102.633 41.0166 101.969 38.4853 100.641C35.9697 99.3125 33.9931 97.4375 32.5556 95.0156C31.1338 92.5938 30.4228 89.8047 30.4228 86.6484C30.4228 83.5078 31.1259 80.7188 32.5322 78.2812C33.9541 75.8281 35.9306 73.9297 38.4619 72.5859C41.0088 71.2422 43.915 70.5703 47.1806 70.5703C50.415 70.5703 53.3056 71.2422 55.8525 72.5859C58.3994 73.9297 60.3838 75.8125 61.8056 78.2344C63.2275 80.6406 63.9384 83.4297 63.9384 86.6016ZM55.6884 86.6016C55.6884 83.9453 54.9072 81.8125 53.3447 80.2031C51.7978 78.5781 49.7588 77.7656 47.2275 77.7656C44.665 77.7656 42.5947 78.5859 41.0166 80.2266C39.4384 81.8516 38.6494 83.9922 38.6494 86.6484C38.6494 89.3047 39.4306 91.4297 40.9931 93.0234C42.5556 94.6172 44.6181 95.4141 47.1806 95.4141C49.7119 95.4141 51.7588 94.6094 53.3213 93C54.8994 91.3906 55.6884 89.2578 55.6884 86.6016ZM97.7128 84.7734V88.3125C97.7128 91.125 97.0331 93.625 95.6738 95.8125C94.3144 97.9844 92.4316 99.6641 90.0253 100.852C87.6347 102.039 84.9159 102.633 81.8691 102.633C78.6659 102.633 75.8534 101.977 73.4316 100.664C71.0253 99.3516 69.1581 97.5078 67.83 95.1328C66.5019 92.7422 65.8378 89.9766 65.8378 86.8359C65.8378 83.6641 66.5253 80.8516 67.9003 78.3984C69.2909 75.9297 71.2206 74.0078 73.6894 72.6328C76.1738 71.2578 79.0175 70.5703 82.2206 70.5703C84.9081 70.5703 87.3222 71.0469 89.4628 72C91.6034 72.9531 93.3456 74.2891 94.6894 76.0078C96.0331 77.7266 96.8847 79.6875 97.2441 81.8906H88.9941C88.5409 80.5781 87.6972 79.5625 86.4628 78.8438C85.2284 78.125 83.7675 77.7656 82.08 77.7656C79.5175 77.7656 77.5175 78.5859 76.08 80.2266C74.6425 81.8516 73.9238 84.0234 73.9238 86.7422C73.9238 89.4922 74.6503 91.625 76.1034 93.1406C77.5566 94.6562 79.5175 95.4141 81.9863 95.4141C83.7519 95.4141 85.2909 95.0547 86.6034 94.3359C87.9316 93.6172 88.8066 92.6328 89.2284 91.3828H81.9394V84.7734H97.7128ZM133.128 86.6016C133.128 89.7578 132.417 92.5469 130.995 94.9688C129.573 97.3906 127.589 99.2734 125.042 100.617C122.495 101.961 119.589 102.633 116.323 102.633C113.089 102.633 110.206 101.969 107.675 100.641C105.159 99.3125 103.183 97.4375 101.745 95.0156C100.323 92.5938 99.6122 89.8047 99.6122 86.6484C99.6122 83.5078 100.315 80.7188 101.722 78.2812C103.143 75.8281 105.12 73.9297 107.651 72.5859C110.198 71.2422 113.104 70.5703 116.37 70.5703C119.604 70.5703 122.495 71.2422 125.042 72.5859C127.589 73.9297 129.573 75.8125 130.995 78.2344C132.417 80.6406 133.128 83.4297 133.128 86.6016ZM124.878 86.6016C124.878 83.9453 124.097 81.8125 122.534 80.2031C120.987 78.5781 118.948 77.7656 116.417 77.7656C113.854 77.7656 111.784 78.5859 110.206 80.2266C108.628 81.8516 107.839 83.9922 107.839 86.6484C107.839 89.3047 108.62 91.4297 110.183 93.0234C111.745 94.6172 113.808 95.4141 116.37 95.4141C118.901 95.4141 120.948 94.6094 122.511 93C124.089 91.3906 124.878 89.2578 124.878 86.6016Z" fill="black"/>
</svg>
