<svg width="285" height="75" viewBox="0 0 285 75" fill="none" xmlns="http://www.w3.org/2000/svg">
<path d="M47.1406 56.9404V73H0.358398V2.47754H18.4053V56.9404H47.1406ZM125.776 37.7119C125.776 44.945 124.146 51.3366 120.888 56.8867C117.629 62.4368 113.082 66.7516 107.245 69.8311C101.409 72.9105 94.7486 74.4502 87.2648 74.4502C79.8527 74.4502 73.2463 72.9284 67.4455 69.8848C61.6805 66.8411 57.1509 62.5443 53.8566 56.9941C50.5982 51.444 48.9689 45.0524 48.9689 37.8193C48.9689 30.6221 50.5803 24.2305 53.8029 18.6445C57.0614 13.0228 61.591 8.6722 67.3918 5.59277C73.2284 2.51335 79.8885 0.973633 87.3723 0.973633C94.7844 0.973633 101.409 2.51335 107.245 5.59277C113.082 8.6722 117.629 12.987 120.888 18.5371C124.146 24.0514 125.776 30.443 125.776 37.7119ZM106.869 37.7119C106.869 31.6247 105.079 26.737 101.498 23.0488C97.9533 19.3249 93.2805 17.4629 87.4797 17.4629C81.6073 17.4629 76.8628 19.3428 73.2463 23.1025C69.6298 26.8265 67.8215 31.7321 67.8215 37.8193C67.8215 43.9066 69.6118 48.7764 73.1926 52.4287C76.7733 56.0811 81.4999 57.9072 87.3723 57.9072C93.173 57.9072 97.8638 56.0632 101.445 52.375C105.061 48.6868 106.869 43.7992 106.869 37.7119ZM203.175 33.5225V41.6328C203.175 48.0781 201.618 53.8073 198.502 58.8203C195.387 63.7975 191.072 67.6468 185.558 70.3682C180.079 73.0895 173.849 74.4502 166.867 74.4502C159.526 74.4502 153.081 72.9463 147.531 69.9385C142.016 66.9307 137.737 62.7054 134.694 57.2627C131.65 51.7842 130.128 45.4463 130.128 38.249C130.128 30.9801 131.704 24.5348 134.855 18.9131C138.042 13.2555 142.464 8.85124 148.121 5.7002C153.815 2.54915 160.332 0.973633 167.672 0.973633C173.831 0.973633 179.363 2.06576 184.269 4.25C189.175 6.43424 193.167 9.49577 196.246 13.4346C199.326 17.3734 201.277 21.8672 202.101 26.916H183.195C182.156 23.9082 180.223 21.5807 177.394 19.9336C174.565 18.2865 171.217 17.4629 167.35 17.4629C161.478 17.4629 156.894 19.3428 153.6 23.1025C150.306 26.8265 148.659 31.8037 148.659 38.0342C148.659 44.3363 150.324 49.224 153.654 52.6973C156.984 56.1706 161.478 57.9072 167.135 57.9072C171.181 57.9072 174.708 57.0837 177.716 55.4365C180.76 53.7894 182.765 51.5335 183.732 48.6689H167.028V33.5225H203.175ZM284.335 37.7119C284.335 44.945 282.705 51.3366 279.447 56.8867C276.188 62.4368 271.641 66.7516 265.804 69.8311C259.968 72.9105 253.308 74.4502 245.824 74.4502C238.412 74.4502 231.805 72.9284 226.004 69.8848C220.24 66.8411 215.71 62.5443 212.416 56.9941C209.157 51.444 207.528 45.0524 207.528 37.8193C207.528 30.6221 209.139 24.2305 212.362 18.6445C215.62 13.0228 220.15 8.6722 225.951 5.59277C231.787 2.51335 238.448 0.973633 245.931 0.973633C253.343 0.973633 259.968 2.51335 265.804 5.59277C271.641 8.6722 276.188 12.987 279.447 18.5371C282.705 24.0514 284.335 30.443 284.335 37.7119ZM265.428 37.7119C265.428 31.6247 263.638 26.737 260.057 23.0488C256.512 19.3249 251.839 17.4629 246.039 17.4629C240.166 17.4629 235.422 19.3428 231.805 23.1025C228.189 26.8265 226.38 31.7321 226.38 37.8193C226.38 43.9066 228.171 48.7764 231.752 52.4287C235.332 56.0811 240.059 57.9072 245.931 57.9072C251.732 57.9072 256.423 56.0632 260.004 52.375C263.62 48.6868 265.428 43.7992 265.428 37.7119Z" fill="#FAFAFA"/>
</svg>
