<svg width="976" height="123" viewBox="0 0 976 123" fill="none" xmlns="http://www.w3.org/2000/svg">
<path fill-rule="evenodd" clip-rule="evenodd" d="M87.6883 4.11458C86.9761 4.31364 86.9513 4.53105 86.9935 10.2111C87.0154 13.1142 87.0869 15.5437 87.1527 15.6094C87.2185 15.6754 88.5584 15.7713 90.1311 15.8223C92.2296 15.8904 93.1595 15.9781 93.6281 16.1531C93.9793 16.284 94.8292 16.4558 95.5166 16.5345C96.8209 16.6842 97.4718 16.8339 97.9603 17.0966C98.1199 17.1822 98.6989 17.3246 99.2475 17.4127C99.7961 17.5004 100.446 17.6974 100.692 17.85C100.937 18.0025 101.43 18.173 101.786 18.2281C102.141 18.2836 102.831 18.5165 103.319 18.7453C103.806 18.9746 104.284 19.1622 104.382 19.1622C104.479 19.1622 104.773 19.3262 105.035 19.5269C105.297 19.7276 105.583 19.8919 105.67 19.8919C105.758 19.8919 106.274 20.1212 106.819 20.4018C107.363 20.6825 107.88 20.9121 107.967 20.9125C108.055 20.9129 108.24 21.0398 108.38 21.1948C108.519 21.3494 108.885 21.5187 109.193 21.5709C109.501 21.6231 109.833 21.763 109.931 21.8817C110.029 22.0004 110.343 22.1958 110.63 22.3161C110.916 22.4361 111.313 22.6845 111.513 22.8676C111.823 23.1531 113.488 24.3165 114.25 24.7807C114.382 24.861 114.691 25.0911 114.938 25.2918C115.184 25.4921 115.633 25.8535 115.936 26.0941C117.803 27.5781 121.736 31.3108 122.555 32.3767C122.996 32.9502 124.16 34.4187 124.335 34.6234C124.434 34.7393 124.646 35.0473 124.806 35.3075C124.966 35.5682 125.416 36.2616 125.807 36.8486C126.198 37.4351 126.662 38.1453 126.839 38.4263C127.015 38.7074 127.365 39.2601 127.617 39.6554C127.869 40.0502 128.075 40.4785 128.075 40.6066C128.075 40.7347 128.238 41.081 128.438 41.3763C128.638 41.6716 128.801 41.9735 128.801 42.0469C128.801 42.1199 128.975 42.4356 129.187 42.7477C129.4 43.0597 129.656 43.5782 129.757 43.8992C129.858 44.2202 130.076 44.7587 130.242 45.096C130.408 45.4333 130.544 45.7866 130.544 45.8816C130.544 45.9763 130.678 46.2704 130.84 46.5347C131.003 46.7994 131.208 47.4313 131.296 47.9387C131.383 48.4461 131.579 49.1086 131.73 49.4112C131.882 49.7135 132.061 50.4033 132.129 50.9433C132.197 51.4838 132.389 52.1887 132.556 52.5097C132.722 52.8307 132.963 53.7501 133.091 54.5529C133.219 55.3556 133.418 56.4598 133.533 57.0068C133.779 58.1832 133.824 68.6999 133.587 69.8036C133.51 70.1646 133.29 71.3798 133.099 72.5036C132.907 73.6273 132.641 74.8037 132.507 75.1178C132.374 75.4319 132.2 76.0874 132.122 76.5741C132.044 77.0607 131.859 77.657 131.711 77.8997C131.564 78.1424 131.398 78.7351 131.343 79.2169C131.289 79.6986 131.096 80.388 130.916 80.7494C130.735 81.1104 130.541 81.5986 130.484 81.834C130.427 82.0694 130.221 82.452 130.027 82.6845C129.832 82.9166 129.673 83.2278 129.673 83.3759C129.673 83.6928 128.72 85.6548 128.361 86.0762C128.225 86.2365 128.067 86.5649 128.012 86.806C127.957 87.0466 127.761 87.4733 127.578 87.7543C127.394 88.0354 127.066 88.5608 126.849 88.9218C126.632 89.2832 126.116 90.0977 125.703 90.732C125.29 91.3663 124.886 91.9941 124.806 92.1267C123.681 93.9945 117.355 100.42 114.994 102.091C114.797 102.231 114.408 102.509 114.128 102.711C113.848 102.912 113.39 103.192 113.111 103.333C112.831 103.474 112.241 103.86 111.8 104.19C111.359 104.52 110.726 104.929 110.393 105.099C110.061 105.27 109.751 105.471 109.705 105.546C109.658 105.622 109.376 105.763 109.077 105.858C108.779 105.954 108.404 106.15 108.244 106.294C108.084 106.437 107.683 106.627 107.353 106.715C107.023 106.803 106.674 106.97 106.578 107.085C106.483 107.201 106.172 107.373 105.888 107.467C105.604 107.561 105.154 107.787 104.888 107.968C104.622 108.149 104.092 108.344 103.709 108.4C103.327 108.457 102.818 108.622 102.578 108.767C102.338 108.912 101.913 109.076 101.634 109.133C101.354 109.189 100.798 109.386 100.399 109.571C99.9995 109.756 99.1923 109.981 98.6051 110.072C98.0183 110.162 97.3618 110.328 97.1466 110.44C96.7255 110.658 94.8576 110.959 93.9196 110.959C93.6041 110.959 92.9715 111.095 92.5138 111.261C91.8694 111.495 91.1909 111.582 89.5029 111.645C88.3043 111.689 87.242 111.791 87.1421 111.871C86.9107 112.056 86.8786 121.961 87.1076 122.567L87.255 122.956L90.9278 122.904C94.1263 122.86 94.6509 122.82 94.9888 122.598C95.2353 122.436 95.9219 122.284 96.8708 122.183C97.6927 122.095 98.6457 121.9 98.9892 121.75C99.3324 121.6 100.019 121.404 100.515 121.316C101.01 121.227 101.562 121.059 101.741 120.943C101.919 120.828 102.541 120.639 103.121 120.525C103.701 120.411 104.435 120.182 104.752 120.016C105.068 119.851 105.527 119.715 105.771 119.715C106.016 119.715 106.443 119.561 106.721 119.372C107 119.183 107.567 118.948 107.983 118.849C108.398 118.749 108.812 118.578 108.903 118.469C108.993 118.359 109.413 118.169 109.835 118.045C110.258 117.922 110.682 117.726 110.777 117.61C110.873 117.494 111.16 117.356 111.414 117.303C111.668 117.251 112.107 117.058 112.39 116.875C112.673 116.692 113.107 116.497 113.356 116.442C113.604 116.387 114.06 116.151 114.367 115.917C114.675 115.683 115 115.489 115.091 115.487C115.181 115.485 115.343 115.376 115.452 115.244C115.56 115.113 115.912 114.884 116.232 114.734C116.553 114.586 117.11 114.232 117.469 113.949C117.829 113.667 118.434 113.296 118.813 113.126C119.193 112.956 119.503 112.762 119.503 112.694C119.503 112.627 119.693 112.473 119.925 112.353C120.157 112.232 120.435 112.05 120.543 111.948C120.65 111.845 121.13 111.468 121.61 111.109C122.697 110.296 124.105 109.13 124.6 108.635C124.807 108.428 125.722 107.587 126.634 106.765C128.348 105.221 129.696 103.792 131.201 101.928C131.678 101.335 132.339 100.547 132.667 100.176C133.185 99.593 133.735 98.8286 134.245 97.985C134.604 97.3919 135.551 95.9924 135.638 95.9271C135.73 95.8586 135.988 95.4099 136.749 94.0034C136.925 93.6771 137.165 93.3035 137.282 93.1729C137.398 93.042 137.798 92.3441 138.171 91.6217C138.543 90.8993 138.936 90.1442 139.045 89.9436C139.391 89.3019 139.951 87.9917 140.136 87.3897C140.234 87.0686 140.397 86.7072 140.498 86.5869C140.598 86.4666 140.791 85.9738 140.926 85.4925C141.062 85.0108 141.259 84.4817 141.364 84.3165C141.469 84.1517 141.654 83.6594 141.774 83.2221C141.894 82.7852 142.123 82.0665 142.283 81.6247C143.092 79.3898 143.759 76.7278 144.591 72.4305L145 70.3143L144.997 63.6741C144.995 57.8206 144.965 56.9473 144.748 56.304C144.613 55.9026 144.399 54.9175 144.274 54.1148C144.149 53.3124 143.921 52.196 143.768 51.6339C143.615 51.0722 143.427 50.1438 143.351 49.5711C143.275 48.998 143.11 48.3735 142.986 48.1826C142.862 47.9917 142.684 47.4753 142.591 47.0348C142.498 46.5946 142.335 46.0619 142.227 45.851C142.121 45.6406 141.907 45.0165 141.753 44.4646C141.598 43.9127 141.23 42.9031 140.934 42.2207C140.638 41.5387 140.282 40.6192 140.144 40.1775C140.004 39.7361 139.814 39.2434 139.721 39.0831C139.628 38.9224 139.424 38.4957 139.268 38.1343C139.112 37.7733 138.888 37.3136 138.77 37.1129C138.652 36.9122 138.279 36.1706 137.94 35.4645C137.602 34.7589 137.265 34.1442 137.191 34.0985C137.118 34.0532 136.929 33.744 136.772 33.4116C136.277 32.3669 135.035 30.3445 134.743 30.1075C134.693 30.0676 134.551 29.8375 134.426 29.5968C134.301 29.3562 133.867 28.7484 133.461 28.2463C133.055 27.7441 132.724 27.2799 132.724 27.2143C132.724 27.149 132.577 26.9597 132.397 26.7937C132.217 26.6277 131.841 26.2149 131.562 25.8763C129.202 23.0198 122.843 16.8269 122.27 16.8269C122.17 16.8269 121.87 16.6067 120.665 15.6469C119.994 15.1121 119.288 14.6418 118.838 14.4285C118.592 14.3122 118.303 14.1103 118.195 13.9802C118.087 13.8496 117.798 13.6396 117.553 13.5135C117.307 13.3871 117.073 13.2362 117.034 13.1778C116.993 13.1195 116.687 12.9327 116.353 12.7622C116.019 12.5921 115.709 12.3938 115.665 12.322C115.597 12.2119 113.117 10.9568 108.971 8.93357C108.491 8.69984 108.008 8.50813 107.898 8.50813C107.788 8.50854 107.486 8.37678 107.227 8.21648C106.968 8.05576 106.437 7.88158 106.047 7.82978C105.658 7.77798 105.044 7.58381 104.685 7.39903C104.325 7.21384 103.628 6.99806 103.135 6.91974C102.643 6.84143 102.04 6.67378 101.797 6.54733C101.553 6.42088 100.911 6.22345 100.368 6.10842C99.8257 5.99339 99.1249 5.79066 98.811 5.6585C98.4967 5.52593 97.5814 5.35461 96.777 5.27752C95.9722 5.20083 94.8893 5.01524 94.3699 4.86513C93.7828 4.69544 92.7112 4.56083 91.5369 4.50902C90.4982 4.46293 89.2885 4.32669 88.8492 4.20636C88.4098 4.08603 88.0501 3.99343 88.0501 4.00037C88.0501 4.00771 87.8872 4.0587 87.6883 4.11458ZM54.999 4.4201C54.4797 4.48251 53.4849 4.54166 52.7889 4.55104C51.9292 4.56246 51.2999 4.65587 50.8276 4.84187C50.4293 4.99851 49.4145 5.1784 48.4518 5.26283C47.2925 5.3644 46.5941 5.50105 46.1998 5.70256C45.8855 5.86286 45.1927 6.06233 44.6604 6.14513C44.1277 6.22834 43.5393 6.39599 43.3529 6.51836C43.1661 6.64074 42.5213 6.84265 41.9195 6.96706C41.3182 7.09147 40.569 7.3252 40.2547 7.48592C39.9404 7.64704 39.5104 7.77879 39.2996 7.77879C39.0889 7.77879 38.6089 7.94277 38.2329 8.14346C37.8573 8.34415 37.4647 8.50854 37.3603 8.50854C37.256 8.50854 36.8178 8.69536 36.3874 8.92419C35.9566 9.15262 35.3783 9.38349 35.1026 9.43693C34.8269 9.49077 34.4672 9.65883 34.3035 9.81098C34.1399 9.96313 33.731 10.161 33.3948 10.2507C33.0585 10.34 32.743 10.4795 32.6935 10.5599C32.6436 10.6407 32.2322 10.8911 31.7791 11.1167C30.2868 11.8595 29.9429 12.0557 29.5275 12.4C29.3017 12.5872 29.0402 12.7418 28.9464 12.7434C28.7698 12.7463 27.8431 13.3234 26.96 13.981C26.1336 14.5965 25.1542 15.2161 25.0036 15.219C24.9268 15.2206 24.7307 15.352 24.5679 15.5115C24.0221 16.0466 22.8754 16.973 22.7593 16.973C22.696 16.973 22.4548 17.1365 22.2233 17.3368C21.9919 17.5371 21.6065 17.8626 21.3665 18.0609C20.7956 18.5324 17.8342 21.3294 16.7204 22.4491C15.8364 23.3375 15.2781 23.9563 13.9572 25.5092C13.5581 25.9787 13.0854 26.5176 12.9075 26.7064C12.7297 26.8949 12.5068 27.1955 12.4122 27.3746C12.3175 27.5532 11.9342 28.0607 11.5607 28.5024C10.8237 29.3733 10.4119 29.9978 9.9681 30.9193C9.81055 31.2456 9.54905 31.6331 9.38622 31.7812C9.2238 31.9292 9.09061 32.1283 9.09061 32.2237C9.09061 32.3192 8.96554 32.5109 8.81327 32.6496C8.66059 32.7883 8.45391 33.1105 8.35402 33.3655C8.25373 33.6204 8.06207 33.9606 7.92807 34.1209C7.79447 34.2816 7.59794 34.6426 7.49196 34.9237C7.38598 35.2047 7.21666 35.5331 7.11555 35.6534C7.01485 35.7737 6.79517 36.1678 6.62747 36.5292C6.45977 36.8902 6.23237 37.3499 6.12152 37.5506C5.64034 38.4215 5.02273 39.759 5.02273 39.9299C5.02273 40.0323 4.8932 40.3708 4.73524 40.6821C4.57729 40.9933 4.37547 41.4836 4.28655 41.7712C4.19803 42.0583 3.97429 42.6221 3.78953 43.0234C3.35627 43.9653 2.87875 45.4056 2.61034 46.5824C2.4934 47.0947 2.23636 47.8563 2.03943 48.2748C1.84249 48.6929 1.68128 49.2709 1.68128 49.5593C1.68128 49.8477 1.52252 50.5966 1.32842 51.2236C1.1193 51.8999 0.912212 53.0836 0.820443 54.1323C0.735171 55.1052 0.568687 56.1339 0.450119 56.4182C-0.148004 57.8561 -0.150848 69.417 0.446462 71.1175C0.56828 71.4642 0.761563 72.6406 0.876072 73.7314C0.99058 74.8217 1.17818 75.9443 1.2935 76.2249C1.40882 76.5059 1.58221 77.2283 1.67885 77.8304C1.77549 78.4325 1.94725 79.0713 2.06014 79.2503C2.17302 79.4294 2.36143 79.9931 2.47919 80.5034C2.59694 81.0137 2.82027 81.721 2.97498 82.0755C3.12969 82.4295 3.30429 82.9814 3.36317 83.302C3.42205 83.6222 3.62346 84.1741 3.81065 84.5278C3.99784 84.8815 4.15092 85.2596 4.15092 85.3677C4.15092 85.4758 4.34705 85.9816 4.58662 86.491C4.8266 87.0009 5.02273 87.4619 5.02273 87.5161C5.02273 87.7144 6.18202 90.0704 6.32252 90.1577C6.4021 90.2071 6.54098 90.524 6.63031 90.8617C6.71964 91.1995 6.8776 91.5744 6.98074 91.6947C7.08428 91.815 7.35593 92.2674 7.58495 92.6994C7.81356 93.1317 8.09252 93.6571 8.20459 93.8672C8.31666 94.0769 8.56192 94.4346 8.74952 94.6614C8.93712 94.8882 9.09061 95.1623 9.09061 95.2704C9.09061 95.3785 9.24491 95.6526 9.43332 95.8794C9.62173 96.1062 9.88567 96.4888 10.0201 96.7299C10.1541 96.9705 10.4598 97.4303 10.699 97.7513C11.1148 98.3093 11.4206 98.7343 12.2193 99.8675C12.6205 100.436 13.0501 100.975 13.5942 101.59C15.4917 103.737 16.4346 104.762 17.3116 105.632C18.8624 107.171 21.5541 109.596 22.0093 109.864C22.4133 110.103 23.3221 110.814 24.6353 111.92C25.3146 112.492 26.0338 113.01 26.2335 113.071C26.4333 113.133 26.7171 113.289 26.8641 113.419C27.1187 113.644 27.7928 114.056 29.0573 114.761C29.3719 114.936 29.7155 115.166 29.8211 115.272C29.9262 115.377 30.1593 115.509 30.3384 115.563C30.5178 115.618 30.7972 115.784 30.9592 115.933C31.1212 116.081 31.5444 116.306 31.8992 116.432C32.2545 116.558 32.6777 116.782 32.8397 116.929C33.0017 117.077 33.3728 117.241 33.6644 117.293C33.9559 117.345 34.3482 117.509 34.5362 117.657C34.7238 117.805 35.0917 117.973 35.3532 118.031C35.6151 118.088 36.0073 118.284 36.225 118.466C36.4426 118.649 36.8824 118.845 37.202 118.902C37.5219 118.96 38.0035 119.136 38.2727 119.294C38.5415 119.451 39.082 119.649 39.473 119.733C39.8645 119.818 40.2799 119.983 40.3968 120.1C40.5133 120.217 41.0189 120.384 41.5204 120.471C42.0219 120.558 42.7264 120.776 43.0861 120.955C43.4455 121.133 44.1321 121.319 44.6113 121.368C45.0908 121.416 45.866 121.588 46.3334 121.751C46.8011 121.913 47.6839 122.109 48.2946 122.186C48.9057 122.264 49.6671 122.421 49.9867 122.534C50.971 122.885 57.5406 123.169 58.0047 122.882C58.1561 122.787 58.1273 112.336 57.9738 111.871C57.9296 111.737 57.3838 111.689 55.9082 111.689C54.3591 111.689 53.6724 111.624 52.8892 111.403C52.3316 111.246 51.2215 111.041 50.4228 110.948C49.6236 110.855 48.5123 110.627 47.9527 110.44C47.3936 110.253 46.6221 110.059 46.2388 110.009C45.8554 109.959 45.2017 109.758 44.7859 109.564C44.3705 109.37 43.8995 109.209 43.7399 109.208C43.5799 109.206 43.1223 109.053 42.7227 108.867C42.3231 108.681 41.6889 108.451 41.3133 108.357C40.9377 108.263 40.3233 108.022 39.9481 107.821C39.5725 107.621 39.1872 107.457 39.0917 107.457C38.9959 107.457 38.8006 107.326 38.6577 107.167C38.5143 107.008 38.1724 106.836 37.8983 106.784C37.6238 106.733 37.2243 106.544 37.0103 106.365C36.7963 106.186 36.3809 105.961 36.0877 105.865C35.7946 105.769 35.4754 105.594 35.3788 105.477C35.2817 105.36 34.9333 105.131 34.6044 104.969C33.9031 104.624 33.0939 104.135 32.6078 103.763C32.4178 103.617 31.9309 103.289 31.5253 103.033C31.1196 102.777 30.4005 102.236 29.927 101.831C29.4536 101.426 28.903 100.992 28.7032 100.866C27.7952 100.292 22.821 95.3703 22.6716 94.8976C22.6225 94.7413 22.5226 94.6137 22.4503 94.6137C22.3776 94.6137 22.2217 94.433 22.1031 94.2123C21.9845 93.9916 21.5744 93.4679 21.1915 93.0485C20.8082 92.6292 20.2661 91.9553 19.9863 91.5515C19.707 91.1477 19.2981 90.5787 19.0784 90.2874C18.8587 89.9958 18.6788 89.6907 18.6788 89.6087C18.6788 89.5271 18.5156 89.2448 18.3158 88.9817C18.116 88.7186 17.9524 88.4384 17.9524 88.3593C17.9524 88.2797 17.8009 88.0288 17.6158 87.8021C17.2122 87.3085 16.2884 85.6393 16.1353 85.1274C16.0752 84.9267 15.9034 84.5882 15.7544 84.3752C15.605 84.1623 15.4828 83.8996 15.4824 83.7915C15.482 83.6834 15.2862 83.2009 15.0471 82.7196C14.8079 82.2378 14.6122 81.7561 14.6118 81.6492C14.6114 81.5423 14.4148 81.0059 14.1753 80.4573C13.9357 79.9087 13.7396 79.3519 13.7396 79.2197C13.7396 79.088 13.5796 78.6393 13.3843 78.2228C13.1889 77.8063 12.9644 77.0611 12.886 76.5663C12.8073 76.0719 12.6351 75.3495 12.5035 74.9612C12.3716 74.5725 12.2063 73.4976 12.136 72.5725C12.0658 71.647 11.9131 70.6619 11.7974 70.3829C11.1607 68.8524 11.1282 58.4863 11.7552 56.9595C11.8701 56.6793 12.0439 55.7276 12.1413 54.8445C12.2388 53.9618 12.4105 53.0155 12.5226 52.7418C12.6351 52.4681 12.7975 51.7783 12.8836 51.2093C12.9693 50.6403 13.1581 49.9019 13.3026 49.5683C13.4472 49.235 13.6693 48.604 13.796 48.1655C13.9227 47.7274 14.1249 47.1792 14.2451 46.9475C14.3657 46.7158 14.4644 46.4205 14.4648 46.2912C14.4656 46.1619 14.6573 45.6964 14.8907 45.2563C15.1246 44.8166 15.3605 44.2157 15.4158 43.9212C15.4706 43.6267 15.6269 43.2384 15.7633 43.0585C15.8994 42.8786 16.1008 42.5017 16.2108 42.2207C16.4411 41.6317 17.1992 40.2542 17.8172 39.3021C18.0519 38.9407 18.3844 38.3497 18.5566 37.9887C18.9014 37.265 19.238 36.7535 19.949 35.8725C20.208 35.5514 20.5495 35.1244 20.7083 34.9237C21.0782 34.4562 22.458 32.7414 23.4309 31.5401C24.5772 30.1251 27.2698 27.4961 28.2212 26.863C28.6861 26.5539 29.361 26.0452 29.7212 25.7327C30.5097 25.0483 31.2386 24.5131 31.827 24.1864C32.0665 24.053 32.4105 23.8082 32.5912 23.6422C33.0192 23.249 35.0243 21.9935 35.6768 21.7104C35.9566 21.5888 36.3488 21.3881 36.5482 21.2641C36.748 21.1401 37.1069 20.9615 37.3453 20.8668C37.584 20.7718 38.4457 20.3557 39.2603 19.9421C40.0744 19.5285 40.958 19.1426 41.2235 19.0851C41.4887 19.0276 41.9995 18.8241 42.3585 18.6336C42.7174 18.4427 43.1422 18.2856 43.3026 18.2852C43.4634 18.2844 43.9478 18.1184 44.3798 17.9165C44.8119 17.7145 45.5712 17.4914 46.0674 17.4209C46.564 17.3503 47.1841 17.181 47.4455 17.0452C47.7071 16.9093 48.4631 16.7103 49.1254 16.6022C49.7877 16.4945 50.6774 16.2983 51.1025 16.1657C51.6462 15.9969 52.7474 15.8941 54.8135 15.8206C56.4296 15.7627 57.8025 15.6648 57.8646 15.6028C58.0299 15.4368 58.0786 4.82964 57.9153 4.57551C57.7525 4.32261 56.4024 4.25082 54.999 4.4201ZM38.4116 31.7302C38.1306 31.8354 37.9597 32.0626 37.7944 32.5488C37.6689 32.9184 37.4764 33.3251 37.3664 33.4524C37.2564 33.5792 37.0842 33.9459 36.9843 34.2669C36.884 34.588 36.7143 34.9526 36.6067 35.077C36.4987 35.2015 36.3123 35.5832 36.1921 35.9255C36.0719 36.2681 35.8413 36.7168 35.6796 36.9232C35.5184 37.1292 35.3861 37.3784 35.3861 37.4771C35.3861 37.5755 35.2257 37.8936 35.0295 38.1841C34.833 38.4745 34.5983 38.9925 34.5074 39.3356C34.4164 39.6782 34.2584 40.0572 34.1561 40.1775C34.0538 40.2978 33.8865 40.6592 33.7846 40.9802C33.6822 41.3013 33.4508 41.761 33.2697 42.002C33.089 42.2427 32.8953 42.6865 32.8397 42.9884C32.784 43.2898 32.6172 43.6912 32.4693 43.88C32.3215 44.0689 32.1384 44.5017 32.0625 44.8415C31.9861 45.1813 31.7957 45.6006 31.6386 45.7735C31.4814 45.9465 31.3064 46.4148 31.2492 46.8141C31.1923 47.2134 30.9881 47.8367 30.796 48.1993C30.6039 48.562 30.446 48.9907 30.4452 49.1518C30.4443 49.3129 30.2921 49.773 30.1069 50.1744C29.9218 50.5758 29.687 51.3304 29.5859 51.8509C29.4844 52.3718 29.3054 52.9849 29.1876 53.2133C29.0698 53.4417 28.9111 54.0336 28.8347 54.5284C28.7584 55.0236 28.5696 55.7566 28.4157 56.158C28.2618 56.5594 28.0364 57.5857 27.9146 58.4382C27.7928 59.2911 27.6263 60.1657 27.5443 60.3814C26.6786 62.6686 27.217 71.5527 28.356 73.7734C28.4673 73.99 28.6516 74.5712 28.7665 75.0648C28.881 75.5584 29.0686 76.0703 29.1835 76.2029C29.298 76.3354 29.6741 77.035 30.0184 77.7574C30.3631 78.4798 30.7964 79.2564 30.9816 79.4832C31.1667 79.7104 31.3182 79.9641 31.3182 80.0478C31.3182 80.1314 31.4981 80.4182 31.7177 80.6853C31.9374 80.9521 32.2809 81.382 32.4807 81.6406C33.9145 83.497 37.2239 86.4539 38.9971 87.4631C39.2095 87.5834 39.7776 87.9877 40.2604 88.3605C40.7432 88.7337 41.3636 89.1432 41.6398 89.2709C41.9159 89.3982 42.5339 89.7347 43.0134 90.0182C43.4926 90.3017 44.1695 90.6643 44.5175 90.8238C44.8655 90.9833 45.3154 91.2444 45.5176 91.4043C45.7198 91.5642 45.9947 91.6947 46.1283 91.6947C46.2619 91.6947 46.5924 91.8591 46.8633 92.0598C47.1341 92.2605 47.4525 92.4244 47.5706 92.4244C47.7639 92.4244 49.6565 93.2717 50.2047 93.6033C50.3245 93.6759 50.7496 93.9088 51.1492 94.1205C51.5484 94.3326 51.911 94.561 51.954 94.6283C51.9971 94.6956 52.3052 94.8478 52.6386 94.9657C52.972 95.084 53.443 95.3279 53.6858 95.5082C53.9835 95.7293 54.3416 95.8386 54.7879 95.8447L55.4489 95.8541L55.9399 94.9053C58.0603 90.8087 57.7229 86.7101 55.0092 83.5949C54.2779 82.7554 53.4308 82.0751 52.9866 81.9694C52.7751 81.9192 52.4709 81.7638 52.3113 81.6235C52.1514 81.4836 51.7591 81.2858 51.4395 81.1838C51.12 81.0818 50.7082 80.8815 50.5247 80.738C50.3412 80.5948 50.0025 80.4361 49.7723 80.3851C49.5416 80.3341 49.2696 80.1914 49.1672 80.0678C49.0649 79.9442 48.652 79.6827 48.2491 79.4873C47.8463 79.2919 47.2129 78.9538 46.8409 78.7364C46.469 78.5189 45.946 78.2191 45.6788 78.0694C45.4112 77.9202 45.0616 77.6725 44.902 77.5192C44.742 77.3658 44.1183 76.8571 43.5157 76.3889C41.5533 74.8637 39.5786 72.4538 39.2168 71.142C39.121 70.7944 38.9443 70.4004 38.8246 70.2662C38.7048 70.1324 38.4993 69.6038 38.3677 69.0919C38.2366 68.5799 38.0185 67.9913 37.8833 67.7841C37.5284 67.2391 37.5264 61.2066 37.8813 60.5364C38.0088 60.2954 38.2171 59.5889 38.3446 58.966C38.4721 58.3427 38.6853 57.6224 38.8177 57.3646C38.9504 57.1068 39.1466 56.5186 39.2538 56.0572C39.361 55.5963 39.5806 54.9714 39.7418 54.6691C39.903 54.3669 40.0354 54.0197 40.0358 53.8982C40.0358 53.7766 40.2319 53.2831 40.4711 52.8013C40.7099 52.32 40.906 51.8566 40.9064 51.7718C40.9064 51.6869 41.0668 51.3998 41.2625 51.1334C41.4578 50.8671 41.6584 50.4648 41.7076 50.2397C41.7567 50.0141 41.8935 49.7494 42.0113 49.6515C42.129 49.5532 42.3573 49.1649 42.5185 48.7888C43.0402 47.57 44.4022 47.3517 45.7503 48.2707C46.0211 48.4555 46.4966 48.6884 46.8072 48.7888C47.1179 48.8891 47.4732 49.0596 47.597 49.1677C47.7209 49.2758 48.1099 49.4663 48.4615 49.5907C48.8132 49.7155 49.2022 49.9032 49.326 50.0084C49.4495 50.1137 49.7796 50.2866 50.0594 50.3931C50.3391 50.4995 50.6985 50.6994 50.8585 50.8369C51.0185 50.9747 51.4107 51.1685 51.7303 51.2672C52.0498 51.3663 52.4628 51.5434 52.6484 51.6604C52.8339 51.7775 53.2274 51.959 53.523 52.0638C53.819 52.1683 54.3136 52.4265 54.6226 52.6374C54.932 52.8478 55.2707 53.0204 55.3759 53.0204C55.481 53.0204 55.8079 53.1848 56.1023 53.3855C56.3967 53.5857 56.7593 53.7501 56.9079 53.7501C57.0565 53.7501 57.3136 53.886 57.4788 54.052C57.6441 54.218 58.0493 54.4497 58.3795 54.5667C58.7096 54.6838 59.0811 54.8678 59.205 54.9759C59.3288 55.084 59.6914 55.2549 60.011 55.3548C60.3306 55.4552 60.7228 55.6542 60.8828 55.7974C61.0424 55.9402 61.4176 56.1237 61.716 56.2049C62.0141 56.2857 62.4315 56.4892 62.6435 56.6564C62.8554 56.8237 63.1157 56.9607 63.2221 56.9607C63.4641 56.9607 65.7539 58.1233 66.0142 58.3782C66.1197 58.4814 66.2834 58.5663 66.3776 58.5663C66.5303 58.5659 68.1248 59.3021 69.0913 59.8185C69.291 59.9254 69.7271 60.1518 70.0601 60.3219C70.3935 60.4916 70.6988 60.7159 70.7386 60.8203C70.9867 61.4693 73.3865 61.3788 74.4496 60.6804C74.7387 60.4903 75.1553 60.2913 75.3758 60.237C75.5963 60.1832 75.8083 60.0882 75.8468 60.0253C75.9341 59.8834 78.1873 58.7747 78.6795 58.6319C78.8793 58.5736 79.2277 58.3709 79.4534 58.1812C79.6792 57.9915 79.9484 57.8365 80.0511 57.8365C80.1543 57.8365 80.4089 57.7019 80.6172 57.5371C80.8259 57.3723 81.3087 57.1333 81.6904 57.006C82.0721 56.8788 82.4822 56.6915 82.602 56.5904C82.7218 56.4888 83.097 56.3236 83.4352 56.2233C83.7735 56.1225 84.1596 55.919 84.2928 55.7709C84.4264 55.6228 84.6075 55.5013 84.6948 55.5009C84.9035 55.5 87.1003 54.382 87.3898 54.1291C87.5132 54.0214 87.8759 53.8509 88.1954 53.7501C88.515 53.6494 88.8748 53.485 88.9945 53.3846C89.1143 53.2843 89.5066 53.062 89.866 52.8907C90.2257 52.7189 90.6833 52.4868 90.8831 52.3747C91.8008 51.8587 93.036 51.2982 93.462 51.204C93.7198 51.1473 93.97 51.0367 94.0183 50.9584C94.0666 50.8797 94.443 50.6541 94.8552 50.4567C95.2673 50.2593 95.768 50.0002 95.9678 49.882C96.1675 49.7633 96.5598 49.5683 96.8396 49.4488C97.1193 49.3297 97.4462 49.1706 97.566 49.0955C99.2544 48.0411 101.156 47.5039 101.902 47.8718C102.699 48.2646 105.141 53.1803 105.839 55.7933C105.978 56.315 106.195 56.9416 106.321 57.1859C106.446 57.4302 106.624 58.0539 106.714 58.5724C106.805 59.0908 107.006 59.8928 107.162 60.3545C107.539 61.4734 107.585 66.8488 107.225 67.7152C107.104 68.006 106.906 68.6746 106.784 69.2003C106.663 69.7261 106.469 70.2609 106.354 70.3886C106.239 70.5163 106.046 70.9025 105.925 71.2472C105.804 71.5915 105.557 72.0602 105.377 72.289C105.196 72.5174 104.819 73.0163 104.539 73.3977C103.537 74.7646 100.552 77.5436 99.7047 77.8993C99.4184 78.0193 99.1464 78.1788 99.1005 78.253C98.9791 78.4508 96.8895 79.5815 96.6463 79.5815C96.5326 79.5815 96.3503 79.6892 96.2419 79.8206C96.1334 79.9519 95.7493 80.1865 95.3887 80.3419C95.0282 80.4969 94.6351 80.7114 94.5149 80.8183C94.3951 80.9248 94.0683 81.0749 93.7885 81.1512C93.5091 81.2278 93.0259 81.4644 92.7153 81.6765C92.4042 81.8891 92.07 82.0628 91.9722 82.0628C91.8211 82.0628 90.9217 82.6841 90.5498 83.0451C90.4864 83.1067 90.1392 83.6157 89.7791 84.1762C89.4185 84.7366 89.0429 85.2951 88.9438 85.4166C88.8451 85.5386 88.677 85.9008 88.5706 86.2218C88.4646 86.5433 88.2714 86.9275 88.141 87.0764C87.7346 87.5418 87.7963 92.1985 88.2166 92.7907C88.3883 93.0322 88.6011 93.4997 88.6892 93.8297C88.7777 94.1597 88.9669 94.5859 89.1095 94.7768C89.2524 94.9681 89.451 95.314 89.5508 95.5453C89.7713 96.0568 90.9521 96.0242 91.6075 95.4882C91.8081 95.3238 92.2016 95.086 92.481 94.96C92.7607 94.8335 93.0876 94.6471 93.2074 94.5447C93.3276 94.4427 93.7629 94.249 94.1754 94.114C94.588 93.9794 94.962 93.7738 95.0062 93.6575C95.0509 93.5413 95.1747 93.4462 95.2815 93.4462C95.3883 93.4462 95.93 93.2166 96.4847 92.9355C97.0394 92.6549 97.5977 92.4253 97.7252 92.4248C97.8523 92.4248 98.0728 92.296 98.2141 92.1385C98.3558 91.9815 98.7903 91.7465 99.1793 91.6168C99.5687 91.4867 99.9276 91.3145 99.9772 91.2338C100.027 91.153 100.338 90.9576 100.669 90.7993C101 90.6415 101.663 90.2903 102.142 90.0194C102.622 89.7482 103.285 89.3961 103.615 89.2362C103.946 89.0768 104.261 88.874 104.315 88.7859C104.369 88.6978 104.655 88.4926 104.949 88.3303C105.518 88.0154 106.269 87.5051 106.864 87.0278C107.064 86.8679 107.306 86.7358 107.402 86.7346C108.229 86.7256 113.622 80.718 114.871 78.4141C115.023 78.1331 115.206 77.8047 115.277 77.6844C115.93 76.572 116.588 74.8082 117.181 72.5766C117.405 71.7339 117.662 70.8144 117.751 70.5334C117.931 69.9676 117.994 62.352 117.826 61.3943C117.772 61.083 117.64 60.5328 117.534 60.1714C117.427 59.8104 117.266 58.9236 117.175 58.2012C117.083 57.4788 116.851 56.417 116.658 55.8419C116.465 55.2663 116.307 54.6687 116.307 54.5137C116.307 54.1409 115.513 51.4377 115.064 50.2813C114.869 49.7779 114.709 49.2526 114.709 49.1135C114.709 48.9748 114.524 48.4669 114.298 47.9856C114.071 47.5039 113.843 46.8908 113.79 46.6232C113.738 46.3556 113.571 45.9616 113.421 45.7474C113.27 45.5337 113.098 45.1286 113.039 44.8476C112.979 44.567 112.782 44.0742 112.6 43.7532C112.418 43.4322 112.221 43.0051 112.163 42.8044C112.104 42.6037 111.938 42.2717 111.794 42.0661C111.65 41.8605 111.488 41.4991 111.434 41.2633C111.331 40.8167 110.724 39.411 110.144 38.2803C109.959 37.9193 109.766 37.4449 109.714 37.2259C109.662 37.0072 109.458 36.5879 109.259 36.2934C109.06 35.9993 108.898 35.6632 108.898 35.5461C108.898 35.4291 108.765 35.1472 108.604 34.9196C108.443 34.6916 108.219 34.2547 108.106 33.9484C107.221 31.5295 106.393 31.0959 104.774 32.2025C104.462 32.415 104.097 32.5888 103.961 32.5888C103.824 32.5888 103.597 32.7173 103.455 32.8744C103.314 33.0318 102.883 33.2651 102.5 33.3932C102.115 33.5213 101.726 33.7171 101.635 33.8276C101.543 33.9386 101.28 34.0707 101.05 34.1217C100.819 34.1727 100.468 34.3424 100.27 34.499C100.071 34.6557 99.6304 34.8829 99.2897 35.0036C98.9486 35.1244 98.5686 35.3116 98.4447 35.4201C98.3209 35.5282 97.9786 35.6942 97.6838 35.7892C97.3894 35.8843 96.9971 36.0776 96.8124 36.2188C96.6276 36.3603 96.2475 36.5643 95.9678 36.6724C95.688 36.7804 95.3611 36.9481 95.2413 37.0452C95.1216 37.1419 94.6854 37.3319 94.2721 37.467C93.8587 37.602 93.4421 37.8076 93.3463 37.9234C93.2504 38.0396 93.0953 38.1343 93.0015 38.1343C92.9077 38.1343 92.213 38.4598 91.4573 38.8571C90.702 39.2544 89.8554 39.6892 89.5756 39.8234C89.2958 39.9572 88.969 40.1261 88.8492 40.1979C88.7294 40.2697 88.2389 40.5262 87.7597 40.7681C87.2802 41.0096 86.4628 41.442 85.9434 41.7292C85.4241 42.0163 84.7151 42.3386 84.3679 42.445C84.0208 42.5511 83.6285 42.733 83.4965 42.8489C83.3642 42.9647 82.9942 43.1434 82.6747 43.2457C82.3551 43.3481 81.8658 43.5859 81.5877 43.7748C81.3095 43.9637 81.0253 44.1178 80.9562 44.1178C80.8876 44.1178 80.6391 44.2553 80.4048 44.423C80.1705 44.5906 79.749 44.7913 79.4684 44.8692C79.1875 44.9471 78.7229 45.1711 78.4354 45.3669C78.1479 45.5631 77.8 45.7234 77.6619 45.7234C77.5238 45.7234 77.242 45.8572 77.0354 46.0203C76.8283 46.1839 76.4437 46.3899 76.1802 46.4784C75.9167 46.5669 75.4931 46.7945 75.239 46.9842C74.9844 47.1735 74.7155 47.3289 74.6412 47.3289C74.5673 47.3289 74.2595 47.5259 73.9578 47.7666C73.3321 48.2663 72.2171 48.3699 71.5609 47.9897C71.3611 47.8738 70.8572 47.6058 70.441 47.3937C70.0248 47.1816 69.6082 46.9165 69.5152 46.8039C69.4222 46.6909 69.2395 46.5987 69.1095 46.5979C68.9796 46.5975 68.7096 46.5057 68.5098 46.394C67.4211 45.785 66.3362 45.2082 65.8221 44.9655C65.5025 44.8146 65.1103 44.6155 64.9507 44.5229C63.964 43.9518 60.9291 42.516 60.4166 42.3777C60.0804 42.2872 59.7641 42.1456 59.7134 42.0632C59.6626 41.9808 59.2541 41.7361 58.805 41.5199C58.3563 41.3033 57.8585 41.0606 57.6989 40.9802C56.8689 40.5621 55.0169 39.6044 54.6356 39.3955C54.396 39.2646 53.9709 39.0598 53.6915 38.9407C53.4118 38.8216 53.0849 38.6629 52.9651 38.5879C52.5452 38.3256 50.5446 37.4045 50.3952 37.4045C50.3119 37.4045 50.0768 37.2728 49.873 37.1117C49.6687 36.9501 49.3049 36.7788 49.0645 36.7303C48.8237 36.6821 48.4907 36.5153 48.3247 36.3599C48.1586 36.2045 47.7489 35.9801 47.4139 35.8614C47.0789 35.7427 46.7037 35.5571 46.5798 35.449C46.456 35.341 46.1064 35.1725 45.8031 35.0746C45.4993 34.9767 45.14 34.7801 45.0039 34.6377C44.8679 34.4954 44.4951 34.2947 44.1756 34.1923C43.856 34.0895 43.4443 33.8884 43.2607 33.7452C43.0772 33.6016 42.743 33.4438 42.5176 33.394C42.2927 33.3447 41.9674 33.1717 41.7949 33.0106C41.6223 32.8491 41.2702 32.6443 41.0124 32.555C40.7545 32.466 40.3148 32.2441 40.035 32.0618C39.393 31.6437 38.9062 31.5442 38.4116 31.7302Z" fill="#5B5AD1"/>
<path d="M166.991 59.328C166.991 50.624 168.996 42.816 173.007 35.904C177.103 28.992 182.607 23.616 189.519 19.776C196.516 15.8507 204.154 13.888 212.431 13.888C221.903 13.888 230.308 16.2347 237.647 20.928C245.071 25.536 250.447 32.1067 253.775 40.64H236.239C233.935 35.9467 230.735 32.448 226.639 30.144C222.543 27.84 217.807 26.688 212.431 26.688C206.543 26.688 201.295 28.0107 196.687 30.656C192.079 33.3013 188.452 37.0987 185.807 42.048C183.247 46.9973 181.967 52.7573 181.967 59.328C181.967 65.8987 183.247 71.6587 185.807 76.608C188.452 81.5573 192.079 85.3973 196.687 88.128C201.295 90.7733 206.543 92.096 212.431 92.096C217.807 92.096 222.543 90.944 226.639 88.64C230.735 86.336 233.935 82.8373 236.239 78.144H253.775C250.447 86.6773 245.071 93.248 237.647 97.856C230.308 102.464 221.903 104.768 212.431 104.768C204.068 104.768 196.431 102.848 189.519 99.008C182.607 95.0827 177.103 89.664 173.007 82.752C168.996 75.84 166.991 68.032 166.991 59.328ZM311.791 104.896C303.514 104.896 295.876 102.976 288.879 99.136C281.967 95.2107 276.463 89.792 272.367 82.88C268.356 75.8827 266.351 68.032 266.351 59.328C266.351 50.624 268.356 42.816 272.367 35.904C276.463 28.992 281.967 23.616 288.879 19.776C295.876 15.8507 303.514 13.888 311.791 13.888C320.154 13.888 327.791 15.8507 334.703 19.776C341.7 23.616 347.204 28.992 351.215 35.904C355.226 42.816 357.231 50.624 357.231 59.328C357.231 68.032 355.226 75.8827 351.215 82.88C347.204 89.792 341.7 95.2107 334.703 99.136C327.791 102.976 320.154 104.896 311.791 104.896ZM311.791 92.224C317.679 92.224 322.927 90.9013 327.535 88.256C332.143 85.5253 335.727 81.6853 338.287 76.736C340.932 71.7013 342.255 65.8987 342.255 59.328C342.255 52.7573 340.932 46.9973 338.287 42.048C335.727 37.0987 332.143 33.3013 327.535 30.656C322.927 28.0107 317.679 26.688 311.791 26.688C305.903 26.688 300.655 28.0107 296.047 30.656C291.439 33.3013 287.812 37.0987 285.167 42.048C282.607 46.9973 281.327 52.7573 281.327 59.328C281.327 65.8987 282.607 71.7013 285.167 76.736C287.812 81.6853 291.439 85.5253 296.047 88.256C300.655 90.9013 305.903 92.224 311.791 92.224ZM401.006 15.04C410.478 15.04 418.755 16.8747 425.838 20.544C433.006 24.128 438.51 29.3333 442.35 36.16C446.275 42.9013 448.238 50.7947 448.238 59.84C448.238 68.8853 446.275 76.736 442.35 83.392C438.51 90.048 433.006 95.168 425.838 98.752C418.755 102.251 410.478 104 401.006 104H371.95V15.04H401.006ZM401.006 92.096C411.417 92.096 419.395 89.28 424.942 83.648C430.489 78.016 433.262 70.08 433.262 59.84C433.262 49.5147 430.489 41.4507 424.942 35.648C419.395 29.8453 411.417 26.944 401.006 26.944H386.542V92.096H401.006ZM477.652 26.816V52.928H508.372V64.832H477.652V92.096H512.212V104H463.06V14.912H512.212V26.816H477.652ZM593.467 104.896C587.494 104.896 582.118 103.872 577.339 101.824C572.56 99.6907 568.806 96.704 566.075 92.864C563.344 89.024 561.979 84.544 561.979 79.424H577.595C577.936 83.264 579.43 86.4213 582.075 88.896C584.806 91.3707 588.603 92.608 593.467 92.608C598.502 92.608 602.427 91.4133 605.243 89.024C608.059 86.5493 609.467 83.392 609.467 79.552C609.467 76.5653 608.571 74.1333 606.779 72.256C605.072 70.3787 602.896 68.928 600.251 67.904C597.691 66.88 594.107 65.7707 589.499 64.576C583.696 63.04 578.96 61.504 575.291 59.968C571.707 58.3467 568.635 55.872 566.075 52.544C563.515 49.216 562.235 44.7787 562.235 39.232C562.235 34.112 563.515 29.632 566.075 25.792C568.635 21.952 572.219 19.008 576.827 16.96C581.435 14.912 586.768 13.888 592.827 13.888C601.446 13.888 608.486 16.064 613.947 20.416C619.494 24.6827 622.566 30.5707 623.163 38.08H607.035C606.779 34.8373 605.243 32.064 602.427 29.76C599.611 27.456 595.899 26.304 591.291 26.304C587.11 26.304 583.696 27.3707 581.051 29.504C578.406 31.6373 577.083 34.7093 577.083 38.72C577.083 41.4507 577.894 43.712 579.515 45.504C581.222 47.2107 583.355 48.576 585.915 49.6C588.475 50.624 591.974 51.7333 596.411 52.928C602.299 54.5493 607.078 56.1707 610.747 57.792C614.502 59.4133 617.659 61.9307 620.219 65.344C622.864 68.672 624.187 73.152 624.187 78.784C624.187 83.3067 622.95 87.5733 620.475 91.584C618.086 95.5947 614.544 98.8373 609.851 101.312C605.243 103.701 599.782 104.896 593.467 104.896ZM703.973 41.536C703.973 46.0587 702.906 50.3253 700.773 54.336C698.64 58.3467 695.226 61.632 690.533 64.192C685.84 66.6667 679.824 67.904 672.485 67.904H656.357V104H641.765V15.04H672.485C679.312 15.04 685.072 16.2347 689.765 18.624C694.544 20.928 698.085 24.0853 700.389 28.096C702.778 32.1067 703.973 36.5867 703.973 41.536ZM672.485 56C678.032 56 682.17 54.7627 684.901 52.288C687.632 49.728 688.997 46.144 688.997 41.536C688.997 31.808 683.493 26.944 672.485 26.944H656.357V56H672.485ZM771.882 85.824H734.634L728.234 104H713.002L744.874 14.912H761.77L793.642 104H778.282L771.882 85.824ZM767.786 73.92L753.322 32.576L738.73 73.92H767.786ZM802.996 59.328C802.996 50.624 805.001 42.816 809.012 35.904C813.108 28.992 818.612 23.616 825.524 19.776C832.521 15.8507 840.159 13.888 848.436 13.888C857.908 13.888 866.313 16.2347 873.652 20.928C881.076 25.536 886.452 32.1067 889.78 40.64H872.244C869.94 35.9467 866.74 32.448 862.644 30.144C858.548 27.84 853.812 26.688 848.436 26.688C842.548 26.688 837.3 28.0107 832.692 30.656C828.084 33.3013 824.457 37.0987 821.812 42.048C819.252 46.9973 817.972 52.7573 817.972 59.328C817.972 65.8987 819.252 71.6587 821.812 76.608C824.457 81.5573 828.084 85.3973 832.692 88.128C837.3 90.7733 842.548 92.096 848.436 92.096C853.812 92.096 858.548 90.944 862.644 88.64C866.74 86.336 869.94 82.8373 872.244 78.144H889.78C886.452 86.6773 881.076 93.248 873.652 97.856C866.313 102.464 857.908 104.768 848.436 104.768C840.073 104.768 832.436 102.848 825.524 99.008C818.612 95.0827 813.108 89.664 809.012 82.752C805.001 75.84 802.996 68.032 802.996 59.328ZM921.812 26.816V52.928H952.532V64.832H921.812V92.096H956.372V104H907.22V14.912H956.372V26.816H921.812Z" fill="#5B5AD1"/>
</svg>
