<svg width="72" height="31" viewBox="0 0 72 31" fill="none" xmlns="http://www.w3.org/2000/svg">
<path d="M12.7969 21.2041V25H1.73926V8.33105H6.00488V21.2041H12.7969ZM31.9033 16.6592C31.9033 18.3688 31.5182 19.8796 30.748 21.1914C29.9779 22.5033 28.903 23.5231 27.5234 24.251C26.1439 24.9788 24.5697 25.3428 22.8008 25.3428C21.0488 25.3428 19.4873 24.9831 18.1162 24.2637C16.7536 23.5443 15.6829 22.5286 14.9043 21.2168C14.1341 19.9049 13.749 18.3942 13.749 16.6846C13.749 14.9834 14.1299 13.4727 14.8916 12.1523C15.6618 10.8236 16.7324 9.79525 18.1035 9.06738C19.4831 8.33952 21.0573 7.97559 22.8262 7.97559C24.5781 7.97559 26.1439 8.33952 27.5234 9.06738C28.903 9.79525 29.9779 10.8151 30.748 12.127C31.5182 13.4303 31.9033 14.9411 31.9033 16.6592ZM27.4346 16.6592C27.4346 15.2204 27.0114 14.0651 26.165 13.1934C25.3271 12.3132 24.2227 11.873 22.8516 11.873C21.4635 11.873 20.3421 12.3174 19.4873 13.2061C18.6325 14.0863 18.2051 15.2458 18.2051 16.6846C18.2051 18.1234 18.6283 19.2744 19.4746 20.1377C20.321 21.001 21.4382 21.4326 22.8262 21.4326C24.1973 21.4326 25.306 20.9967 26.1523 20.125C27.0072 19.2533 27.4346 18.098 27.4346 16.6592ZM50.7178 15.6689V17.5859C50.7178 19.1094 50.3496 20.4635 49.6133 21.6484C48.877 22.8249 47.8571 23.7347 46.5537 24.3779C45.2588 25.0212 43.7861 25.3428 42.1357 25.3428C40.4007 25.3428 38.8773 24.9873 37.5654 24.2764C36.262 23.5654 35.2507 22.5667 34.5312 21.2803C33.8118 19.9854 33.4521 18.4873 33.4521 16.7861C33.4521 15.068 33.8245 13.5446 34.5693 12.2158C35.3226 10.8786 36.3678 9.83757 37.7051 9.09277C39.0508 8.34798 40.5911 7.97559 42.3262 7.97559C43.7819 7.97559 45.0895 8.23372 46.249 8.75C47.4085 9.26628 48.3522 9.98991 49.0801 10.9209C49.8079 11.8519 50.2692 12.9141 50.4639 14.1074H45.9951C45.7497 13.3965 45.2926 12.8464 44.624 12.457C43.9554 12.0677 43.1641 11.873 42.25 11.873C40.862 11.873 39.7786 12.3174 39 13.2061C38.2214 14.0863 37.832 15.2627 37.832 16.7354C37.832 18.2249 38.2256 19.3802 39.0127 20.2012C39.7998 21.0221 40.862 21.4326 42.1992 21.4326C43.1556 21.4326 43.9893 21.238 44.7002 20.8486C45.4196 20.4593 45.8936 19.9261 46.1221 19.249H42.1738V15.6689H50.7178ZM70.4209 16.6592C70.4209 18.3688 70.0358 19.8796 69.2656 21.1914C68.4954 22.5033 67.4206 23.5231 66.041 24.251C64.6615 24.9788 63.0872 25.3428 61.3184 25.3428C59.5664 25.3428 58.0049 24.9831 56.6338 24.2637C55.2712 23.5443 54.2005 22.5286 53.4219 21.2168C52.6517 19.9049 52.2666 18.3942 52.2666 16.6846C52.2666 14.9834 52.6475 13.4727 53.4092 12.1523C54.1794 10.8236 55.25 9.79525 56.6211 9.06738C58.0007 8.33952 59.5749 7.97559 61.3438 7.97559C63.0957 7.97559 64.6615 8.33952 66.041 9.06738C67.4206 9.79525 68.4954 10.8151 69.2656 12.127C70.0358 13.4303 70.4209 14.9411 70.4209 16.6592ZM65.9521 16.6592C65.9521 15.2204 65.529 14.0651 64.6826 13.1934C63.8447 12.3132 62.7402 11.873 61.3691 11.873C59.9811 11.873 58.8597 12.3174 58.0049 13.2061C57.1501 14.0863 56.7227 15.2458 56.7227 16.6846C56.7227 18.1234 57.1458 19.2744 57.9922 20.1377C58.8385 21.001 59.9557 21.4326 61.3438 21.4326C62.7148 21.4326 63.8236 20.9967 64.6699 20.125C65.5247 19.2533 65.9521 18.098 65.9521 16.6592Z" fill="black"/>
</svg>
