<svg width="944" height="119" viewBox="0 0 944 119" fill="none" xmlns="http://www.w3.org/2000/svg">
<path fill-rule="evenodd" clip-rule="evenodd" d="M87.6883 0.11458C86.9761 0.313638 86.9513 0.531052 86.9935 6.21113C87.0154 9.11419 87.0869 11.5437 87.1527 11.6094C87.2185 11.6754 88.5584 11.7713 90.1311 11.8223C92.2296 11.8904 93.1595 11.9781 93.6281 12.1531C93.9793 12.284 94.8292 12.4558 95.5166 12.5345C96.8209 12.6842 97.4718 12.8339 97.9603 13.0966C98.1199 13.1822 98.6989 13.3246 99.2475 13.4127C99.7961 13.5004 100.446 13.6974 100.692 13.85C100.937 14.0025 101.43 14.173 101.786 14.2281C102.141 14.2836 102.831 14.5165 103.319 14.7453C103.806 14.9746 104.284 15.1622 104.382 15.1622C104.479 15.1622 104.773 15.3262 105.035 15.5269C105.297 15.7276 105.583 15.8919 105.67 15.8919C105.758 15.8919 106.274 16.1212 106.819 16.4018C107.363 16.6825 107.88 16.9121 107.967 16.9125C108.055 16.9129 108.24 17.0398 108.38 17.1948C108.519 17.3494 108.885 17.5187 109.193 17.5709C109.501 17.6231 109.833 17.763 109.931 17.8817C110.029 18.0004 110.343 18.1958 110.63 18.3161C110.916 18.4361 111.313 18.6845 111.513 18.8676C111.823 19.1531 113.488 20.3165 114.25 20.7807C114.382 20.861 114.691 21.0911 114.938 21.2918C115.184 21.4921 115.633 21.8535 115.936 22.0941C117.803 23.5781 121.736 27.3108 122.555 28.3767C122.996 28.9502 124.16 30.4187 124.335 30.6234C124.434 30.7393 124.646 31.0473 124.806 31.3075C124.966 31.5682 125.416 32.2616 125.807 32.8486C126.198 33.4351 126.662 34.1453 126.839 34.4263C127.015 34.7074 127.365 35.2601 127.617 35.6554C127.869 36.0502 128.075 36.4785 128.075 36.6066C128.075 36.7347 128.238 37.081 128.438 37.3763C128.638 37.6716 128.801 37.9735 128.801 38.0469C128.801 38.1199 128.975 38.4356 129.187 38.7477C129.4 39.0597 129.656 39.5782 129.757 39.8992C129.858 40.2202 130.076 40.7587 130.242 41.096C130.408 41.4333 130.544 41.7866 130.544 41.8816C130.544 41.9763 130.678 42.2704 130.84 42.5347C131.003 42.7994 131.208 43.4313 131.296 43.9387C131.383 44.4461 131.579 45.1086 131.73 45.4112C131.882 45.7135 132.061 46.4033 132.129 46.9433C132.197 47.4838 132.389 48.1887 132.556 48.5097C132.722 48.8307 132.963 49.7501 133.091 50.5529C133.219 51.3556 133.418 52.4598 133.533 53.0068C133.779 54.1832 133.824 64.6999 133.587 65.8036C133.51 66.1646 133.29 67.3798 133.099 68.5036C132.907 69.6273 132.641 70.8037 132.507 71.1178C132.374 71.4319 132.2 72.0874 132.122 72.5741C132.044 73.0607 131.859 73.657 131.711 73.8997C131.564 74.1424 131.398 74.7351 131.343 75.2169C131.289 75.6986 131.096 76.388 130.916 76.7494C130.735 77.1104 130.541 77.5986 130.484 77.834C130.427 78.0694 130.221 78.452 130.027 78.6845C129.832 78.9166 129.673 79.2278 129.673 79.3759C129.673 79.6928 128.72 81.6548 128.361 82.0762C128.225 82.2365 128.067 82.5649 128.012 82.806C127.957 83.0466 127.761 83.4733 127.578 83.7543C127.394 84.0354 127.066 84.5608 126.849 84.9218C126.632 85.2832 126.116 86.0977 125.703 86.732C125.29 87.3663 124.886 87.9941 124.806 88.1267C123.681 89.9945 117.355 96.4198 114.994 98.0914C114.797 98.2309 114.408 98.5095 114.128 98.7106C113.848 98.9117 113.39 99.1915 113.111 99.3331C112.831 99.4742 112.241 99.8597 111.8 100.19C111.359 100.52 110.726 100.929 110.393 101.099C110.061 101.27 109.751 101.471 109.705 101.546C109.658 101.622 109.376 101.763 109.077 101.858C108.779 101.954 108.404 102.15 108.244 102.294C108.084 102.437 107.683 102.627 107.353 102.715C107.023 102.803 106.674 102.97 106.578 103.085C106.483 103.201 106.172 103.373 105.888 103.467C105.604 103.561 105.154 103.787 104.888 103.968C104.622 104.149 104.092 104.344 103.709 104.4C103.327 104.457 102.818 104.622 102.578 104.767C102.338 104.912 101.913 105.076 101.634 105.133C101.354 105.189 100.798 105.386 100.399 105.571C99.9995 105.756 99.1923 105.981 98.6051 106.072C98.0183 106.162 97.3618 106.328 97.1466 106.44C96.7255 106.658 94.8576 106.959 93.9196 106.959C93.6041 106.959 92.9715 107.095 92.5138 107.261C91.8694 107.495 91.1909 107.582 89.5029 107.645C88.3043 107.689 87.242 107.791 87.1421 107.871C86.9107 108.056 86.8786 117.961 87.1076 118.567L87.255 118.956L90.9278 118.904C94.1263 118.86 94.6509 118.82 94.9888 118.598C95.2353 118.436 95.9219 118.284 96.8708 118.183C97.6927 118.095 98.6457 117.9 98.9892 117.75C99.3324 117.6 100.019 117.404 100.515 117.316C101.01 117.227 101.562 117.059 101.741 116.943C101.919 116.828 102.541 116.639 103.121 116.525C103.701 116.411 104.435 116.182 104.752 116.016C105.068 115.851 105.527 115.715 105.771 115.715C106.016 115.715 106.443 115.561 106.721 115.372C107 115.183 107.567 114.948 107.983 114.849C108.398 114.749 108.812 114.578 108.903 114.469C108.993 114.359 109.413 114.169 109.835 114.045C110.258 113.922 110.682 113.726 110.777 113.61C110.873 113.494 111.16 113.356 111.414 113.303C111.668 113.251 112.107 113.058 112.39 112.875C112.673 112.692 113.107 112.497 113.356 112.442C113.604 112.387 114.06 112.151 114.367 111.917C114.675 111.683 115 111.489 115.091 111.487C115.181 111.485 115.343 111.376 115.452 111.244C115.56 111.113 115.912 110.884 116.232 110.734C116.553 110.586 117.11 110.232 117.469 109.949C117.829 109.667 118.434 109.296 118.813 109.126C119.193 108.956 119.503 108.762 119.503 108.694C119.503 108.627 119.693 108.473 119.925 108.353C120.157 108.232 120.435 108.05 120.543 107.948C120.65 107.845 121.13 107.468 121.61 107.109C122.697 106.296 124.105 105.13 124.6 104.635C124.807 104.428 125.722 103.587 126.634 102.765C128.348 101.221 129.696 99.7919 131.201 97.9278C131.678 97.3351 132.339 96.5466 132.667 96.1763C133.185 95.593 133.735 94.8286 134.245 93.985C134.604 93.3919 135.551 91.9924 135.638 91.9271C135.73 91.8586 135.988 91.4099 136.749 90.0034C136.925 89.6771 137.165 89.3035 137.282 89.1729C137.398 89.042 137.798 88.3441 138.171 87.6217C138.543 86.8993 138.936 86.1442 139.045 85.9436C139.391 85.3019 139.951 83.9917 140.136 83.3897C140.234 83.0686 140.397 82.7072 140.498 82.5869C140.598 82.4666 140.791 81.9738 140.926 81.4925C141.062 81.0108 141.259 80.4817 141.364 80.3165C141.469 80.1517 141.654 79.6594 141.774 79.2221C141.894 78.7852 142.123 78.0665 142.283 77.6247C143.092 75.3898 143.759 72.7278 144.591 68.4305L145 66.3143L144.997 59.6741C144.995 53.8206 144.965 52.9473 144.748 52.304C144.613 51.9026 144.399 50.9175 144.274 50.1148C144.149 49.3124 143.921 48.196 143.768 47.6339C143.615 47.0722 143.427 46.1438 143.351 45.5711C143.275 44.998 143.11 44.3735 142.986 44.1826C142.862 43.9917 142.684 43.4753 142.591 43.0348C142.498 42.5946 142.335 42.0619 142.227 41.851C142.121 41.6406 141.907 41.0165 141.753 40.4646C141.598 39.9127 141.23 38.9031 140.934 38.2207C140.638 37.5387 140.282 36.6192 140.144 36.1775C140.004 35.7361 139.814 35.2434 139.721 35.0831C139.628 34.9224 139.424 34.4957 139.268 34.1343C139.112 33.7733 138.888 33.3136 138.77 33.1129C138.652 32.9122 138.279 32.1706 137.94 31.4645C137.602 30.7589 137.265 30.1442 137.191 30.0985C137.118 30.0532 136.929 29.744 136.772 29.4116C136.277 28.3669 135.035 26.3445 134.743 26.1075C134.693 26.0676 134.551 25.8375 134.426 25.5968C134.301 25.3562 133.867 24.7484 133.461 24.2463C133.055 23.7441 132.724 23.2799 132.724 23.2143C132.724 23.149 132.577 22.9597 132.397 22.7937C132.217 22.6277 131.841 22.2149 131.562 21.8763C129.202 19.0198 122.843 12.8269 122.27 12.8269C122.17 12.8269 121.87 12.6067 120.665 11.6469C119.994 11.1121 119.288 10.6418 118.838 10.4285C118.592 10.3122 118.303 10.1103 118.195 9.98018C118.087 9.84965 117.798 9.63958 117.553 9.51353C117.307 9.38708 117.073 9.23616 117.034 9.17783C116.993 9.1195 116.687 8.93268 116.353 8.76217C116.019 8.59207 115.709 8.39383 115.665 8.32204C115.597 8.21191 113.117 6.95678 108.971 4.93357C108.491 4.69984 108.008 4.50813 107.898 4.50813C107.788 4.50854 107.486 4.37678 107.227 4.21648C106.968 4.05576 106.437 3.88158 106.047 3.82978C105.658 3.77798 105.044 3.58381 104.685 3.39903C104.325 3.21384 103.628 2.99806 103.135 2.91974C102.643 2.84143 102.04 2.67378 101.797 2.54733C101.553 2.42088 100.911 2.22345 100.368 2.10842C99.8257 1.99339 99.1249 1.79066 98.811 1.6585C98.4967 1.52593 97.5814 1.35461 96.777 1.27752C95.9722 1.20083 94.8893 1.01524 94.3699 0.865127C93.7828 0.695438 92.7112 0.560829 91.5369 0.509025C90.4982 0.462932 89.2885 0.326691 88.8492 0.206359C88.4098 0.0860266 88.0501 -0.00656895 88.0501 0.00036544C88.0501 0.00770773 87.8872 0.0586974 87.6883 0.11458ZM54.999 0.4201C54.4797 0.48251 53.4849 0.541657 52.7889 0.551039C51.9292 0.56246 51.2999 0.65587 50.8276 0.841875C50.4293 0.99851 49.4145 1.1784 48.4518 1.26283C47.2925 1.3644 46.5941 1.50105 46.1998 1.70256C45.8855 1.86286 45.1927 2.06233 44.6604 2.14513C44.1277 2.22834 43.5393 2.39599 43.3529 2.51836C43.1661 2.64074 42.5213 2.84265 41.9195 2.96706C41.3182 3.09147 40.569 3.3252 40.2547 3.48592C39.9404 3.64704 39.5104 3.77879 39.2996 3.77879C39.0889 3.77879 38.6089 3.94277 38.2329 4.14346C37.8573 4.34415 37.4647 4.50854 37.3603 4.50854C37.256 4.50854 36.8178 4.69536 36.3874 4.92419C35.9566 5.15262 35.3783 5.38349 35.1026 5.43693C34.8269 5.49077 34.4672 5.65883 34.3035 5.81098C34.1399 5.96313 33.731 6.16096 33.3948 6.2507C33.0585 6.34003 32.743 6.47953 32.6935 6.55989C32.6436 6.64066 32.2322 6.89111 31.7791 7.11668C30.2868 7.85948 29.9429 8.05568 29.5275 8.39995C29.3017 8.58718 29.0402 8.74178 28.9464 8.74341C28.7698 8.74626 27.8431 9.32345 26.96 9.98099C26.1336 10.5965 25.1542 11.2161 25.0036 11.219C24.9268 11.2206 24.7307 11.352 24.5679 11.5115C24.0221 12.0466 22.8754 12.973 22.7593 12.973C22.696 12.973 22.4548 13.1365 22.2233 13.3368C21.9919 13.5371 21.6065 13.8626 21.3665 14.0609C20.7956 14.5324 17.8342 17.3294 16.7204 18.4491C15.8364 19.3375 15.2781 19.9563 13.9572 21.5092C13.5581 21.9787 13.0854 22.5176 12.9075 22.7064C12.7297 22.8949 12.5068 23.1955 12.4122 23.3746C12.3175 23.5532 11.9342 24.0607 11.5607 24.5024C10.8237 25.3733 10.4119 25.9978 9.9681 26.9193C9.81055 27.2456 9.54905 27.6331 9.38622 27.7812C9.2238 27.9292 9.09061 28.1283 9.09061 28.2237C9.09061 28.3192 8.96554 28.5109 8.81327 28.6496C8.66059 28.7883 8.45391 29.1105 8.35402 29.3655C8.25373 29.6204 8.06207 29.9606 7.92807 30.1209C7.79447 30.2816 7.59794 30.6426 7.49196 30.9237C7.38598 31.2047 7.21666 31.5331 7.11555 31.6534C7.01485 31.7737 6.79517 32.1678 6.62747 32.5292C6.45977 32.8902 6.23237 33.3499 6.12152 33.5506C5.64034 34.4215 5.02273 35.759 5.02273 35.9299C5.02273 36.0323 4.8932 36.3708 4.73524 36.6821C4.57729 36.9933 4.37547 37.4836 4.28655 37.7712C4.19803 38.0583 3.97429 38.6221 3.78953 39.0234C3.35627 39.9653 2.87875 41.4056 2.61034 42.5824C2.4934 43.0947 2.23636 43.8563 2.03943 44.2748C1.84249 44.6929 1.68128 45.2709 1.68128 45.5593C1.68128 45.8477 1.52252 46.5966 1.32842 47.2236C1.1193 47.8999 0.912212 49.0836 0.820443 50.1323C0.735171 51.1052 0.568687 52.1339 0.450119 52.4182C-0.148004 53.8561 -0.150848 65.417 0.446462 67.1175C0.56828 67.4642 0.761563 68.6406 0.876072 69.7314C0.99058 70.8217 1.17818 71.9443 1.2935 72.2249C1.40882 72.5059 1.58221 73.2283 1.67885 73.8304C1.77549 74.4325 1.94725 75.0713 2.06014 75.2503C2.17302 75.4294 2.36143 75.9931 2.47919 76.5034C2.59694 77.0137 2.82027 77.721 2.97498 78.0755C3.12969 78.4295 3.30429 78.9814 3.36317 79.302C3.42205 79.6222 3.62346 80.1741 3.81065 80.5278C3.99784 80.8815 4.15092 81.2596 4.15092 81.3677C4.15092 81.4758 4.34705 81.9816 4.58662 82.491C4.8266 83.0009 5.02273 83.4619 5.02273 83.5161C5.02273 83.7144 6.18202 86.0704 6.32252 86.1577C6.4021 86.2071 6.54098 86.524 6.63031 86.8617C6.71964 87.1995 6.8776 87.5744 6.98074 87.6947C7.08428 87.815 7.35593 88.2674 7.58495 88.6994C7.81356 89.1317 8.09252 89.6571 8.20459 89.8672C8.31666 90.0769 8.56192 90.4346 8.74952 90.6614C8.93712 90.8882 9.09061 91.1623 9.09061 91.2704C9.09061 91.3785 9.24491 91.6526 9.43332 91.8794C9.62173 92.1062 9.88567 92.4888 10.0201 92.7299C10.1541 92.9705 10.4598 93.4303 10.699 93.7513C11.1148 94.3093 11.4206 94.7343 12.2193 95.8675C12.6205 96.4361 13.0501 96.9745 13.5942 97.5905C15.4917 99.7369 16.4346 100.762 17.3116 101.632C18.8624 103.171 21.5541 105.596 22.0093 105.864C22.4133 106.103 23.3221 106.814 24.6353 107.92C25.3146 108.492 26.0338 109.01 26.2335 109.071C26.4333 109.133 26.7171 109.289 26.8641 109.419C27.1187 109.644 27.7928 110.056 29.0573 110.761C29.3719 110.936 29.7155 111.166 29.8211 111.272C29.9262 111.377 30.1593 111.509 30.3384 111.563C30.5178 111.618 30.7972 111.784 30.9592 111.933C31.1212 112.081 31.5444 112.306 31.8992 112.432C32.2545 112.558 32.6777 112.782 32.8397 112.929C33.0017 113.077 33.3728 113.241 33.6644 113.293C33.9559 113.345 34.3482 113.509 34.5362 113.657C34.7238 113.805 35.0917 113.973 35.3532 114.031C35.6151 114.088 36.0073 114.284 36.225 114.466C36.4426 114.649 36.8824 114.845 37.202 114.902C37.5219 114.96 38.0035 115.136 38.2727 115.294C38.5415 115.451 39.082 115.649 39.473 115.733C39.8645 115.818 40.2799 115.983 40.3968 116.1C40.5133 116.217 41.0189 116.384 41.5204 116.471C42.0219 116.558 42.7264 116.776 43.0861 116.955C43.4455 117.133 44.1321 117.319 44.6113 117.368C45.0908 117.416 45.866 117.588 46.3334 117.751C46.8011 117.913 47.6839 118.109 48.2946 118.186C48.9057 118.264 49.6671 118.421 49.9867 118.534C50.971 118.885 57.5406 119.169 58.0047 118.882C58.1561 118.787 58.1273 108.336 57.9738 107.871C57.9296 107.737 57.3838 107.689 55.9082 107.689C54.3591 107.689 53.6724 107.624 52.8892 107.403C52.3316 107.246 51.2215 107.041 50.4228 106.948C49.6236 106.855 48.5123 106.627 47.9527 106.44C47.3936 106.253 46.6221 106.059 46.2388 106.009C45.8554 105.959 45.2017 105.758 44.7859 105.564C44.3705 105.37 43.8995 105.209 43.7399 105.208C43.5799 105.206 43.1223 105.053 42.7227 104.867C42.3231 104.681 41.6889 104.451 41.3133 104.357C40.9377 104.263 40.3233 104.022 39.9481 103.821C39.5725 103.621 39.1872 103.457 39.0917 103.457C38.9959 103.457 38.8006 103.326 38.6577 103.167C38.5143 103.008 38.1724 102.836 37.8983 102.784C37.6238 102.733 37.2243 102.544 37.0103 102.365C36.7963 102.186 36.3809 101.961 36.0877 101.865C35.7946 101.769 35.4754 101.594 35.3788 101.477C35.2817 101.36 34.9333 101.131 34.6044 100.969C33.9031 100.624 33.0939 100.135 32.6078 99.7626C32.4178 99.6174 31.9309 99.289 31.5253 99.0328C31.1196 98.7771 30.4005 98.2362 29.927 97.8311C29.4536 97.4265 28.903 96.9921 28.7032 96.8656C27.7952 96.2921 22.821 91.3703 22.6716 90.8976C22.6225 90.7413 22.5226 90.6137 22.4503 90.6137C22.3776 90.6137 22.2217 90.433 22.1031 90.2123C21.9845 89.9916 21.5744 89.4679 21.1915 89.0485C20.8082 88.6292 20.2661 87.9553 19.9863 87.5515C19.707 87.1477 19.2981 86.5787 19.0784 86.2874C18.8587 85.9958 18.6788 85.6907 18.6788 85.6087C18.6788 85.5271 18.5156 85.2448 18.3158 84.9817C18.116 84.7186 17.9524 84.4384 17.9524 84.3593C17.9524 84.2797 17.8009 84.0288 17.6158 83.8021C17.2122 83.3085 16.2884 81.6393 16.1353 81.1274C16.0752 80.9267 15.9034 80.5882 15.7544 80.3752C15.605 80.1623 15.4828 79.8996 15.4824 79.7915C15.482 79.6834 15.2862 79.2009 15.0471 78.7196C14.8079 78.2378 14.6122 77.7561 14.6118 77.6492C14.6114 77.5423 14.4148 77.0059 14.1753 76.4573C13.9357 75.9087 13.7396 75.3519 13.7396 75.2197C13.7396 75.088 13.5796 74.6393 13.3843 74.2228C13.1889 73.8063 12.9644 73.0611 12.886 72.5663C12.8073 72.0719 12.6351 71.3495 12.5035 70.9612C12.3716 70.5725 12.2063 69.4976 12.136 68.5725C12.0658 67.647 11.9131 66.6619 11.7974 66.3829C11.1607 64.8524 11.1282 54.4863 11.7552 52.9595C11.8701 52.6793 12.0439 51.7276 12.1413 50.8445C12.2388 49.9618 12.4105 49.0155 12.5226 48.7418C12.6351 48.4681 12.7975 47.7783 12.8836 47.2093C12.9693 46.6403 13.1581 45.9019 13.3026 45.5683C13.4472 45.235 13.6693 44.604 13.796 44.1655C13.9227 43.7274 14.1249 43.1792 14.2451 42.9475C14.3657 42.7158 14.4644 42.4205 14.4648 42.2912C14.4656 42.1619 14.6573 41.6964 14.8907 41.2563C15.1246 40.8166 15.3605 40.2157 15.4158 39.9212C15.4706 39.6267 15.6269 39.2384 15.7633 39.0585C15.8994 38.8786 16.1008 38.5017 16.2108 38.2207C16.4411 37.6317 17.1992 36.2542 17.8172 35.3021C18.0519 34.9407 18.3844 34.3497 18.5566 33.9887C18.9014 33.265 19.238 32.7535 19.949 31.8725C20.208 31.5514 20.5495 31.1244 20.7083 30.9237C21.0782 30.4562 22.458 28.7414 23.4309 27.5401C24.5772 26.1251 27.2698 23.4961 28.2212 22.863C28.6861 22.5539 29.361 22.0452 29.7212 21.7327C30.5097 21.0483 31.2386 20.5131 31.827 20.1864C32.0665 20.053 32.4105 19.8082 32.5912 19.6422C33.0192 19.249 35.0243 17.9935 35.6768 17.7104C35.9566 17.5888 36.3488 17.3881 36.5482 17.2641C36.748 17.1401 37.1069 16.9615 37.3453 16.8668C37.584 16.7718 38.4457 16.3557 39.2603 15.9421C40.0744 15.5285 40.958 15.1426 41.2235 15.0851C41.4887 15.0276 41.9995 14.8241 42.3585 14.6336C42.7174 14.4427 43.1422 14.2856 43.3026 14.2852C43.4634 14.2844 43.9478 14.1184 44.3798 13.9165C44.8119 13.7145 45.5712 13.4914 46.0674 13.4209C46.564 13.3503 47.1841 13.181 47.4455 13.0452C47.7071 12.9093 48.4631 12.7103 49.1254 12.6022C49.7877 12.4945 50.6774 12.2983 51.1025 12.1657C51.6462 11.9969 52.7474 11.8941 54.8135 11.8206C56.4296 11.7627 57.8025 11.6648 57.8646 11.6028C58.0299 11.4368 58.0786 0.829638 57.9153 0.575513C57.7525 0.322611 56.4024 0.25082 54.999 0.4201ZM38.4116 27.7302C38.1306 27.8354 37.9597 28.0626 37.7944 28.5488C37.6689 28.9184 37.4764 29.3251 37.3664 29.4524C37.2564 29.5792 37.0842 29.9459 36.9843 30.2669C36.884 30.588 36.7143 30.9526 36.6067 31.077C36.4987 31.2015 36.3123 31.5832 36.1921 31.9255C36.0719 32.2681 35.8413 32.7168 35.6796 32.9232C35.5184 33.1292 35.3861 33.3784 35.3861 33.4771C35.3861 33.5755 35.2257 33.8936 35.0295 34.1841C34.833 34.4745 34.5983 34.9925 34.5074 35.3356C34.4164 35.6782 34.2584 36.0572 34.1561 36.1775C34.0538 36.2978 33.8865 36.6592 33.7846 36.9802C33.6822 37.3013 33.4508 37.761 33.2697 38.002C33.089 38.2427 32.8953 38.6865 32.8397 38.9884C32.784 39.2898 32.6172 39.6912 32.4693 39.88C32.3215 40.0689 32.1384 40.5017 32.0625 40.8415C31.9861 41.1813 31.7957 41.6006 31.6386 41.7735C31.4814 41.9465 31.3064 42.4148 31.2492 42.8141C31.1923 43.2134 30.9881 43.8367 30.796 44.1993C30.6039 44.562 30.446 44.9907 30.4452 45.1518C30.4443 45.3129 30.2921 45.773 30.1069 46.1744C29.9218 46.5758 29.687 47.3304 29.5859 47.8509C29.4844 48.3718 29.3054 48.9849 29.1876 49.2133C29.0698 49.4417 28.9111 50.0336 28.8347 50.5284C28.7584 51.0236 28.5696 51.7566 28.4157 52.158C28.2618 52.5594 28.0364 53.5857 27.9146 54.4382C27.7928 55.2911 27.6263 56.1657 27.5443 56.3814C26.6786 58.6686 27.217 67.5527 28.356 69.7734C28.4673 69.99 28.6516 70.5712 28.7665 71.0648C28.881 71.5584 29.0686 72.0703 29.1835 72.2029C29.298 72.3354 29.6741 73.035 30.0184 73.7574C30.3631 74.4798 30.7964 75.2564 30.9816 75.4832C31.1667 75.7104 31.3182 75.9641 31.3182 76.0478C31.3182 76.1314 31.4981 76.4182 31.7177 76.6853C31.9374 76.9521 32.2809 77.382 32.4807 77.6406C33.9145 79.497 37.2239 82.4539 38.9971 83.4631C39.2095 83.5834 39.7776 83.9877 40.2604 84.3605C40.7432 84.7337 41.3636 85.1432 41.6398 85.2709C41.9159 85.3982 42.5339 85.7347 43.0134 86.0182C43.4926 86.3017 44.1695 86.6643 44.5175 86.8238C44.8655 86.9833 45.3154 87.2444 45.5176 87.4043C45.7198 87.5642 45.9947 87.6947 46.1283 87.6947C46.2619 87.6947 46.5924 87.8591 46.8633 88.0598C47.1341 88.2605 47.4525 88.4244 47.5706 88.4244C47.7639 88.4244 49.6565 89.2717 50.2047 89.6033C50.3245 89.6759 50.7496 89.9088 51.1492 90.1205C51.5484 90.3326 51.911 90.561 51.954 90.6283C51.9971 90.6956 52.3052 90.8478 52.6386 90.9657C52.972 91.084 53.443 91.3279 53.6858 91.5082C53.9835 91.7293 54.3416 91.8386 54.7879 91.8447L55.4489 91.8541L55.9399 90.9053C58.0603 86.8087 57.7229 82.7101 55.0092 79.5949C54.2779 78.7554 53.4308 78.0751 52.9866 77.9694C52.7751 77.9192 52.4709 77.7638 52.3113 77.6235C52.1514 77.4836 51.7591 77.2858 51.4395 77.1838C51.12 77.0818 50.7082 76.8815 50.5247 76.738C50.3412 76.5948 50.0025 76.4361 49.7723 76.3851C49.5416 76.3341 49.2696 76.1914 49.1672 76.0678C49.0649 75.9442 48.652 75.6827 48.2491 75.4873C47.8463 75.2919 47.2129 74.9538 46.8409 74.7364C46.469 74.5189 45.946 74.2191 45.6788 74.0694C45.4112 73.9202 45.0616 73.6725 44.902 73.5192C44.742 73.3658 44.1183 72.8571 43.5157 72.3889C41.5533 70.8637 39.5786 68.4538 39.2168 67.142C39.121 66.7944 38.9443 66.4004 38.8246 66.2662C38.7048 66.1324 38.4993 65.6038 38.3677 65.0919C38.2366 64.5799 38.0185 63.9913 37.8833 63.7841C37.5284 63.2391 37.5264 57.2066 37.8813 56.5364C38.0088 56.2954 38.2171 55.5889 38.3446 54.966C38.4721 54.3427 38.6853 53.6224 38.8177 53.3646C38.9504 53.1068 39.1466 52.5186 39.2538 52.0572C39.361 51.5963 39.5806 50.9714 39.7418 50.6691C39.903 50.3669 40.0354 50.0197 40.0358 49.8982C40.0358 49.7766 40.2319 49.2831 40.4711 48.8013C40.7099 48.32 40.906 47.8566 40.9064 47.7718C40.9064 47.6869 41.0668 47.3998 41.2625 47.1334C41.4578 46.8671 41.6584 46.4648 41.7076 46.2397C41.7567 46.0141 41.8935 45.7494 42.0113 45.6515C42.129 45.5532 42.3573 45.1649 42.5185 44.7888C43.0402 43.57 44.4022 43.3517 45.7503 44.2707C46.0211 44.4555 46.4966 44.6884 46.8072 44.7888C47.1179 44.8891 47.4732 45.0596 47.597 45.1677C47.7209 45.2758 48.1099 45.4663 48.4615 45.5907C48.8132 45.7155 49.2022 45.9032 49.326 46.0084C49.4495 46.1137 49.7796 46.2866 50.0594 46.3931C50.3391 46.4995 50.6985 46.6994 50.8585 46.8369C51.0185 46.9747 51.4107 47.1685 51.7303 47.2672C52.0498 47.3663 52.4628 47.5434 52.6484 47.6604C52.8339 47.7775 53.2274 47.959 53.523 48.0638C53.819 48.1683 54.3136 48.4265 54.6226 48.6374C54.932 48.8478 55.2707 49.0204 55.3759 49.0204C55.481 49.0204 55.8079 49.1848 56.1023 49.3855C56.3967 49.5857 56.7593 49.7501 56.9079 49.7501C57.0565 49.7501 57.3136 49.886 57.4788 50.052C57.6441 50.218 58.0493 50.4497 58.3795 50.5667C58.7096 50.6838 59.0811 50.8678 59.205 50.9759C59.3288 51.084 59.6914 51.2549 60.011 51.3548C60.3306 51.4552 60.7228 51.6542 60.8828 51.7974C61.0424 51.9402 61.4176 52.1237 61.716 52.2049C62.0141 52.2857 62.4315 52.4892 62.6435 52.6564C62.8554 52.8237 63.1157 52.9607 63.2221 52.9607C63.4641 52.9607 65.7539 54.1233 66.0142 54.3782C66.1197 54.4814 66.2834 54.5663 66.3776 54.5663C66.5303 54.5659 68.1248 55.3021 69.0913 55.8185C69.291 55.9254 69.7271 56.1518 70.0601 56.3219C70.3935 56.4916 70.6988 56.7159 70.7386 56.8203C70.9867 57.4693 73.3865 57.3788 74.4496 56.6804C74.7387 56.4903 75.1553 56.2913 75.3758 56.237C75.5963 56.1832 75.8083 56.0882 75.8468 56.0253C75.9341 55.8834 78.1873 54.7747 78.6795 54.6319C78.8793 54.5736 79.2277 54.3709 79.4534 54.1812C79.6792 53.9915 79.9484 53.8365 80.0511 53.8365C80.1543 53.8365 80.4089 53.7019 80.6172 53.5371C80.8259 53.3723 81.3087 53.1333 81.6904 53.006C82.0721 52.8788 82.4822 52.6915 82.602 52.5904C82.7218 52.4888 83.097 52.3236 83.4352 52.2233C83.7735 52.1225 84.1596 51.919 84.2928 51.7709C84.4264 51.6228 84.6075 51.5013 84.6948 51.5009C84.9035 51.5 87.1003 50.382 87.3898 50.1291C87.5132 50.0214 87.8759 49.8509 88.1954 49.7501C88.515 49.6494 88.8748 49.485 88.9945 49.3846C89.1143 49.2843 89.5066 49.062 89.866 48.8907C90.2257 48.7189 90.6833 48.4868 90.8831 48.3747C91.8008 47.8587 93.036 47.2982 93.462 47.204C93.7198 47.1473 93.97 47.0367 94.0183 46.9584C94.0666 46.8797 94.443 46.6541 94.8552 46.4567C95.2673 46.2593 95.768 46.0002 95.9678 45.882C96.1675 45.7633 96.5598 45.5683 96.8396 45.4488C97.1193 45.3297 97.4462 45.1706 97.566 45.0955C99.2544 44.0411 101.156 43.5039 101.902 43.8718C102.699 44.2646 105.141 49.1803 105.839 51.7933C105.978 52.315 106.195 52.9416 106.321 53.1859C106.446 53.4302 106.624 54.0539 106.714 54.5724C106.805 55.0908 107.006 55.8928 107.162 56.3545C107.539 57.4734 107.585 62.8488 107.225 63.7152C107.104 64.006 106.906 64.6746 106.784 65.2003C106.663 65.7261 106.469 66.2609 106.354 66.3886C106.239 66.5163 106.046 66.9025 105.925 67.2472C105.804 67.5915 105.557 68.0602 105.377 68.289C105.196 68.5174 104.819 69.0163 104.539 69.3977C103.537 70.7646 100.552 73.5436 99.7047 73.8993C99.4184 74.0193 99.1464 74.1788 99.1005 74.253C98.9791 74.4508 96.8895 75.5815 96.6463 75.5815C96.5326 75.5815 96.3503 75.6892 96.2419 75.8206C96.1334 75.9519 95.7493 76.1865 95.3887 76.3419C95.0282 76.4969 94.6351 76.7114 94.5149 76.8183C94.3951 76.9248 94.0683 77.0749 93.7885 77.1512C93.5091 77.2278 93.0259 77.4644 92.7153 77.6765C92.4042 77.8891 92.07 78.0628 91.9722 78.0628C91.8211 78.0628 90.9217 78.6841 90.5498 79.0451C90.4864 79.1067 90.1392 79.6157 89.7791 80.1762C89.4185 80.7366 89.0429 81.2951 88.9438 81.4166C88.8451 81.5386 88.677 81.9008 88.5706 82.2218C88.4646 82.5433 88.2714 82.9275 88.141 83.0764C87.7346 83.5418 87.7963 88.1985 88.2166 88.7907C88.3883 89.0322 88.6011 89.4997 88.6892 89.8297C88.7777 90.1597 88.9669 90.5859 89.1095 90.7768C89.2524 90.9681 89.451 91.314 89.5508 91.5453C89.7713 92.0568 90.9521 92.0242 91.6075 91.4882C91.8081 91.3238 92.2016 91.086 92.481 90.96C92.7607 90.8335 93.0876 90.6471 93.2074 90.5447C93.3276 90.4427 93.7629 90.249 94.1754 90.114C94.588 89.9794 94.962 89.7738 95.0062 89.6575C95.0509 89.5413 95.1747 89.4462 95.2815 89.4462C95.3883 89.4462 95.93 89.2166 96.4847 88.9355C97.0394 88.6549 97.5977 88.4253 97.7252 88.4248C97.8523 88.4248 98.0728 88.296 98.2141 88.1385C98.3558 87.9815 98.7903 87.7465 99.1793 87.6168C99.5687 87.4867 99.9276 87.3145 99.9772 87.2338C100.027 87.153 100.338 86.9576 100.669 86.7993C101 86.6415 101.663 86.2903 102.142 86.0194C102.622 85.7482 103.285 85.3961 103.615 85.2362C103.946 85.0768 104.261 84.874 104.315 84.7859C104.369 84.6978 104.655 84.4926 104.949 84.3303C105.518 84.0154 106.269 83.5051 106.864 83.0278C107.064 82.8679 107.306 82.7358 107.402 82.7346C108.229 82.7256 113.622 76.718 114.871 74.4141C115.023 74.1331 115.206 73.8047 115.277 73.6844C115.93 72.572 116.588 70.8082 117.181 68.5766C117.405 67.7339 117.662 66.8144 117.751 66.5334C117.931 65.9676 117.994 58.352 117.826 57.3943C117.772 57.083 117.64 56.5328 117.534 56.1714C117.427 55.8104 117.266 54.9236 117.175 54.2012C117.083 53.4788 116.851 52.417 116.658 51.8419C116.465 51.2663 116.307 50.6687 116.307 50.5137C116.307 50.1409 115.513 47.4377 115.064 46.2813C114.869 45.7779 114.709 45.2526 114.709 45.1135C114.709 44.9748 114.524 44.4669 114.298 43.9856C114.071 43.5039 113.843 42.8908 113.79 42.6232C113.738 42.3556 113.571 41.9616 113.421 41.7474C113.27 41.5337 113.098 41.1286 113.039 40.8476C112.979 40.567 112.782 40.0742 112.6 39.7532C112.418 39.4322 112.221 39.0051 112.163 38.8044C112.104 38.6037 111.938 38.2717 111.794 38.0661C111.65 37.8605 111.488 37.4991 111.434 37.2633C111.331 36.8167 110.724 35.411 110.144 34.2803C109.959 33.9193 109.766 33.4449 109.714 33.2259C109.662 33.0072 109.458 32.5879 109.259 32.2934C109.06 31.9993 108.898 31.6632 108.898 31.5461C108.898 31.4291 108.765 31.1472 108.604 30.9196C108.443 30.6916 108.219 30.2547 108.106 29.9484C107.221 27.5295 106.393 27.0959 104.774 28.2025C104.462 28.415 104.097 28.5888 103.961 28.5888C103.824 28.5888 103.597 28.7173 103.455 28.8744C103.314 29.0318 102.883 29.2651 102.5 29.3932C102.115 29.5213 101.726 29.7171 101.635 29.8276C101.543 29.9386 101.28 30.0707 101.05 30.1217C100.819 30.1727 100.468 30.3424 100.27 30.499C100.071 30.6557 99.6304 30.8829 99.2897 31.0036C98.9486 31.1244 98.5686 31.3116 98.4447 31.4201C98.3209 31.5282 97.9786 31.6942 97.6838 31.7892C97.3894 31.8843 96.9971 32.0776 96.8124 32.2188C96.6276 32.3603 96.2475 32.5643 95.9678 32.6724C95.688 32.7804 95.3611 32.9481 95.2413 33.0452C95.1216 33.1419 94.6854 33.3319 94.2721 33.467C93.8587 33.602 93.4421 33.8076 93.3463 33.9234C93.2504 34.0396 93.0953 34.1343 93.0015 34.1343C92.9077 34.1343 92.213 34.4598 91.4573 34.8571C90.702 35.2544 89.8554 35.6892 89.5756 35.8234C89.2958 35.9572 88.969 36.1261 88.8492 36.1979C88.7294 36.2697 88.2389 36.5262 87.7597 36.7681C87.2802 37.0096 86.4628 37.442 85.9434 37.7292C85.4241 38.0163 84.7151 38.3386 84.3679 38.445C84.0208 38.5511 83.6285 38.733 83.4965 38.8489C83.3642 38.9647 82.9942 39.1434 82.6747 39.2457C82.3551 39.3481 81.8658 39.5859 81.5877 39.7748C81.3095 39.9637 81.0253 40.1178 80.9562 40.1178C80.8876 40.1178 80.6391 40.2553 80.4048 40.423C80.1705 40.5906 79.749 40.7913 79.4684 40.8692C79.1875 40.9471 78.7229 41.1711 78.4354 41.3669C78.1479 41.5631 77.8 41.7234 77.6619 41.7234C77.5238 41.7234 77.242 41.8572 77.0354 42.0203C76.8283 42.1839 76.4437 42.3899 76.1802 42.4784C75.9167 42.5669 75.4931 42.7945 75.239 42.9842C74.9844 43.1735 74.7155 43.3289 74.6412 43.3289C74.5673 43.3289 74.2595 43.5259 73.9578 43.7666C73.3321 44.2663 72.2171 44.3699 71.5609 43.9897C71.3611 43.8738 70.8572 43.6058 70.441 43.3937C70.0248 43.1816 69.6082 42.9165 69.5152 42.8039C69.4222 42.6909 69.2395 42.5987 69.1095 42.5979C68.9796 42.5975 68.7096 42.5057 68.5098 42.394C67.4211 41.785 66.3362 41.2082 65.8221 40.9655C65.5025 40.8146 65.1103 40.6155 64.9507 40.5229C63.964 39.9518 60.9291 38.516 60.4166 38.3777C60.0804 38.2872 59.7641 38.1456 59.7134 38.0632C59.6626 37.9808 59.2541 37.7361 58.805 37.5199C58.3563 37.3033 57.8585 37.0606 57.6989 36.9802C56.8689 36.5621 55.0169 35.6044 54.6356 35.3955C54.396 35.2646 53.9709 35.0598 53.6915 34.9407C53.4118 34.8216 53.0849 34.6629 52.9651 34.5879C52.5452 34.3256 50.5446 33.4045 50.3952 33.4045C50.3119 33.4045 50.0768 33.2728 49.873 33.1117C49.6687 32.9501 49.3049 32.7788 49.0645 32.7303C48.8237 32.6821 48.4907 32.5153 48.3247 32.3599C48.1586 32.2045 47.7489 31.9801 47.4139 31.8614C47.0789 31.7427 46.7037 31.5571 46.5798 31.449C46.456 31.341 46.1064 31.1725 45.8031 31.0746C45.4993 30.9767 45.14 30.7801 45.0039 30.6377C44.8679 30.4954 44.4951 30.2947 44.1756 30.1923C43.856 30.0895 43.4443 29.8884 43.2607 29.7452C43.0772 29.6016 42.743 29.4438 42.5176 29.394C42.2927 29.3447 41.9674 29.1717 41.7949 29.0106C41.6223 28.8491 41.2702 28.6443 41.0124 28.555C40.7545 28.466 40.3148 28.2441 40.035 28.0618C39.393 27.6437 38.9062 27.5442 38.4116 27.7302Z" fill="black"/>
<path d="M214.36 111.753C205.831 111.753 198.233 109.913 191.566 106.233C184.942 102.553 179.768 97.3364 176.045 90.5825C172.321 83.8286 170.46 76.0789 170.46 67.3335C170.46 58.6313 172.3 50.925 175.98 44.2144C179.66 37.4604 184.812 32.2435 191.436 28.5635C198.103 24.8835 205.744 23.0435 214.36 23.0435C221.46 23.0435 227.954 24.2557 233.842 26.6802C239.73 29.1047 244.601 32.6115 248.454 37.2007C252.307 41.7466 254.775 47.0285 255.858 53.0464H238.518C237.176 48.4572 234.319 44.7122 229.946 41.8115C225.573 38.8675 220.335 37.3955 214.23 37.3955C208.732 37.3955 203.883 38.6294 199.683 41.0972C195.527 43.5649 192.323 47.0934 190.072 51.6826C187.821 56.2285 186.695 61.4888 186.695 67.4634C186.695 73.4813 187.842 78.7632 190.137 83.3091C192.431 87.8117 195.657 91.2536 199.813 93.6348C204.013 96.016 208.818 97.2065 214.23 97.2065C220.161 97.2065 225.335 95.7778 229.751 92.9204C234.21 90.0197 237.133 86.1882 238.518 81.4258H255.858C254.862 87.3571 252.459 92.639 248.649 97.2715C244.839 101.861 239.99 105.432 234.102 107.987C228.214 110.498 221.633 111.753 214.36 111.753ZM354.474 67.3335C354.474 75.9058 352.526 83.5688 348.629 90.3228C344.733 97.0767 339.343 102.337 332.459 106.104C325.618 109.87 317.934 111.753 309.405 111.753C300.876 111.753 293.191 109.892 286.35 106.168C279.553 102.445 274.228 97.2065 270.375 90.4526C266.522 83.6987 264.595 76.0356 264.595 67.4634C264.595 58.8478 266.522 51.1847 270.375 44.4741C274.228 37.7202 279.553 32.46 286.35 28.6934C293.191 24.9268 300.919 23.0435 309.534 23.0435C318.063 23.0435 325.726 24.9268 332.524 28.6934C339.364 32.46 344.733 37.6986 348.629 44.4092C352.526 51.0765 354.474 58.7179 354.474 67.3335ZM337.979 67.3335C337.979 61.5321 336.767 56.38 334.342 51.8774C331.918 47.3748 328.519 43.868 324.146 41.3569C319.817 38.8026 314.946 37.5254 309.534 37.5254C304.036 37.5254 299.101 38.8026 294.728 41.3569C290.398 43.868 287 47.3748 284.532 51.8774C282.064 56.38 280.83 61.5754 280.83 67.4634C280.83 73.2215 282.064 78.3735 284.532 82.9194C287 87.422 290.398 90.9289 294.728 93.4399C299.101 95.951 304.036 97.2065 309.534 97.2065C314.946 97.2065 319.817 95.951 324.146 93.4399C328.519 90.9289 331.918 87.422 334.342 82.9194C336.767 78.3735 337.979 73.1782 337.979 67.3335ZM400.877 24.7319C409.19 24.7319 416.593 26.5503 423.087 30.187C429.625 33.8237 434.712 38.9108 438.349 45.4482C441.985 51.9424 443.804 59.3241 443.804 67.5933C443.804 75.8192 442.007 83.1576 438.413 89.6084C434.82 96.016 429.755 101.016 423.217 104.61C416.723 108.203 409.276 110 400.877 110H369.186V24.7319H400.877ZM399.514 95.7778C405.099 95.7778 409.991 94.6089 414.19 92.271C418.433 89.8898 421.702 86.5778 423.996 82.335C426.291 78.0921 427.438 73.1782 427.438 67.5933C427.438 61.9217 426.291 56.9429 423.996 52.6567C421.702 48.3273 418.433 44.972 414.19 42.5908C409.991 40.1663 405.099 38.9541 399.514 38.9541H384.772V95.7778H399.514ZM474.102 38.9541V60.2549H509.105V73.8276H474.102V95.7778H513.066V110H458.516V24.7319H513.066V38.9541H474.102ZM559.18 48.9551C559.18 43.7165 560.436 39.1489 562.947 35.2524C565.501 31.356 569.073 28.347 573.662 26.2256C578.295 24.1042 583.62 23.0435 589.638 23.0435C595.569 23.0435 600.851 24.0825 605.484 26.1606C610.116 28.2388 613.731 31.1828 616.329 34.9927C618.927 38.8026 620.225 43.2402 620.225 48.3057H604.185C604.098 44.6689 602.648 41.7466 599.834 39.5386C597.063 37.2873 593.405 36.1616 588.859 36.1616C584.702 36.1616 581.369 37.2007 578.858 39.2788C576.39 41.3136 575.156 43.9546 575.156 47.2017C575.156 50.4054 576.238 52.765 578.403 54.2803C580.611 55.7956 583.534 56.9862 587.17 57.8521L601.133 61.2939C607.497 62.8092 612.649 65.6017 616.589 69.6714C620.528 73.6978 622.498 78.8931 622.498 85.2573C622.498 90.5825 621.156 95.2367 618.472 99.2197C615.831 103.203 612.064 106.298 607.172 108.506C602.323 110.671 596.673 111.753 590.222 111.753C580.654 111.753 572.861 109.437 566.844 104.805C560.869 100.129 557.622 93.7863 557.102 85.7769H573.143C573.316 89.7599 574.983 92.8988 578.143 95.1934C581.304 97.4447 585.417 98.5703 590.482 98.5703C595.374 98.5703 599.206 97.5312 601.977 95.4531C604.748 93.375 606.133 90.5176 606.133 86.8809C606.133 83.7637 605.159 81.4041 603.211 79.8022C601.263 78.2004 598.708 77.0098 595.548 76.2305L581.261 72.7886C574.247 71.1001 568.813 68.286 564.96 64.3462C561.107 60.3631 559.18 55.2327 559.18 48.9551ZM672.019 24.7319C680.981 24.7319 688.016 27.2646 693.125 32.3301C698.277 37.3955 700.853 44.1711 700.853 52.6567C700.853 58.1551 699.684 63.0257 697.346 67.2686C695.008 71.4681 691.631 74.7585 687.215 77.1396C682.843 79.5208 677.691 80.7114 671.759 80.7114H652.602V110H637.016V24.7319H672.019ZM668.837 67.3335C674.075 67.3335 677.994 65.9264 680.591 63.1123C683.232 60.2549 684.553 56.6831 684.553 52.397C684.553 48.5005 683.232 45.2101 680.591 42.5259C677.994 39.7983 674.205 38.4346 669.227 38.4346H652.602V67.3335H668.837ZM730.956 24.7319H746.802L778.428 110H761.933L755.049 90.5825H722.449L715.24 110H699.135L730.956 24.7319ZM750.504 77.6592L745.048 62.6577C744.529 61.229 743.1 57.0078 740.762 49.9941L738.944 44.6689C738.598 45.8379 737.775 48.284 736.476 52.0073C735.177 55.7306 733.857 59.2808 732.515 62.6577L726.93 77.6592H750.504ZM824.832 111.753C816.303 111.753 808.705 109.913 802.037 106.233C795.413 102.553 790.24 97.3364 786.516 90.5825C782.793 83.8286 780.931 76.0789 780.931 67.3335C780.931 58.6313 782.771 50.925 786.451 44.2144C790.131 37.4604 795.283 32.2435 801.907 28.5635C808.575 24.8835 816.216 23.0435 824.832 23.0435C831.932 23.0435 838.426 24.2557 844.314 26.6802C850.202 29.1047 855.073 32.6115 858.926 37.2007C862.779 41.7466 865.247 47.0285 866.329 53.0464H848.99C847.648 48.4572 844.79 44.7122 840.418 41.8115C836.045 38.8675 830.806 37.3955 824.702 37.3955C819.204 37.3955 814.355 38.6294 810.155 41.0972C805.999 43.5649 802.795 47.0934 800.544 51.6826C798.292 56.2285 797.167 61.4888 797.167 67.4634C797.167 73.4813 798.314 78.7632 800.609 83.3091C802.903 87.8117 806.129 91.2536 810.285 93.6348C814.484 96.016 819.29 97.2065 824.702 97.2065C830.633 97.2065 835.807 95.7778 840.223 92.9204C844.682 90.0197 847.605 86.1882 848.99 81.4258H866.329C865.334 87.3571 862.931 92.639 859.121 97.2715C855.311 101.861 850.462 105.432 844.574 107.987C838.686 110.498 832.105 111.753 824.832 111.753ZM896.432 38.9541V60.2549H931.436V73.8276H896.432V95.7778H935.397V110H880.847V24.7319H935.397V38.9541H896.432Z" fill="black"/>
</svg>
