<svg width="32" height="32" viewBox="0 0 32 32" fill="none" xmlns="http://www.w3.org/2000/svg">
<path d="M18.0499 15.7702C18.0499 20.7979 14.0093 24.8735 9.02512 24.8735C4.04097 24.8735 0 20.7969 0 15.7702C0 10.7435 4.04067 6.66663 9.02512 6.66663C14.0096 6.66663 18.0499 10.7426 18.0499 15.7702Z" fill="black"/>
<path d="M27.9504 15.7703C27.9504 20.5027 25.9301 24.3406 23.4379 24.3406C20.9456 24.3406 18.9253 20.5027 18.9253 15.7703C18.9253 11.0379 20.9453 7.19995 23.4375 7.19995C25.9298 7.19995 27.9501 11.0366 27.9501 15.7703" fill="black"/>
<path d="M32 15.7703C32 20.0094 31.2896 23.448 30.4129 23.448C29.5363 23.448 28.8262 20.0103 28.8262 15.7703C28.8262 11.5303 29.5366 8.09265 30.4129 8.09265C31.2893 8.09265 32 11.53 32 15.7703Z" fill="black"/>
</svg>
