<svg width="66" height="66" viewBox="0 0 66 66" fill="none" xmlns="http://www.w3.org/2000/svg">
<path d="M16.5051 2.70106C16.2211 0.745776 18.6426 -0.393305 19.9678 1.07221L36.5616 19.4234C37.0087 19.9179 37.6728 20.1571 38.3325 20.0613L62.8167 16.5052C64.772 16.2212 65.9111 18.6427 64.4455 19.9679L46.0943 36.5617C45.5999 37.0088 45.3607 37.6729 45.4565 38.3326L49.0125 62.8168C49.2965 64.7721 46.875 65.9112 45.5499 64.4457L28.9561 46.0944C28.5089 45.6 27.8449 45.3608 27.1851 45.4566L2.70095 49.0127C0.745657 49.2967 -0.393424 46.8751 1.07209 45.55L19.4233 28.9562C19.9178 28.5091 20.157 27.845 20.0612 27.1853L16.5051 2.70106Z" fill="#FFB800"/>
</svg>
