<svg width="32" height="32" viewBox="0 0 32 32" fill="none" xmlns="http://www.w3.org/2000/svg">
<g clip-path="url(#clip0_1_5274)">
<path d="M10.0669 29C22.1394 29 28.7444 18.9956 28.7444 10.3225C28.7444 10.0412 28.7381 9.75373 28.7256 9.47248C30.0105 8.54328 31.1193 7.39234 32 6.07373C30.8034 6.60613 29.5329 6.95384 28.2319 7.10498C29.6017 6.28388 30.6274 4.99396 31.1187 3.47436C29.8301 4.23808 28.4208 4.77682 26.9513 5.06748C25.9611 4.01541 24.652 3.31882 23.2262 3.0854C21.8005 2.85198 20.3376 3.09473 19.0637 3.77613C17.7897 4.45752 16.7757 5.53961 16.1785 6.85508C15.5812 8.17056 15.4339 9.64615 15.7594 11.0537C13.15 10.9228 10.5972 10.2449 8.26664 9.06413C5.93604 7.88332 3.87959 6.22592 2.23062 4.19936C1.39253 5.64432 1.13608 7.35419 1.51337 8.98145C1.89067 10.6087 2.87342 12.0313 4.26188 12.96C3.2195 12.9269 2.19997 12.6462 1.2875 12.1412V12.2225C1.28657 13.7389 1.8108 15.2088 2.77108 16.3824C3.73136 17.5559 5.06843 18.3607 6.555 18.66C5.58941 18.9242 4.57598 18.9627 3.59313 18.7725C4.01261 20.0766 4.82876 21.2172 5.92769 22.0351C7.02662 22.853 8.35349 23.3075 9.72313 23.335C7.3979 25.1615 4.52557 26.1522 1.56875 26.1475C1.04438 26.1467 0.520532 26.1145 0 26.0512C3.00381 27.9783 6.49804 29.0018 10.0669 29Z" fill="black"/>
</g>
<defs>
<clipPath id="clip0_1_5274">
<rect width="32" height="32" fill="white"/>
</clipPath>
</defs>
</svg>
